<?xml version="1.0" encoding="utf-8"?>
<!-- Generator: Adobe Illustrator 23.0.3, SVG Export Plug-In . SVG Version: 6.00 Build 0)  -->
<svg version="1.1" id="Camada_1" xmlns="http://www.w3.org/2000/svg" xmlns:xlink="http://www.w3.org/1999/xlink" x="0px" y="0px"
	 viewBox="0 0 400 400" style="enable-background:new 0 0 400 400;" xml:space="preserve">
<style type="text/css">
	.st0{fill:#2D5CA7;}
</style>
<g id="Grupo_102" transform="translate(-1221.391 -30)">
	<g id="contrast" transform="translate(1221.391 30)">
		<path id="Rectangle_16" class="st0" d="M209.47,1.14h0.02c7.86,0,14.23,6.37,14.23,14.23v39.01c0,7.86-6.37,14.23-14.23,14.23
			h-0.02c-7.86,0-14.23-6.37-14.23-14.23V15.37C195.24,7.51,201.61,1.14,209.47,1.14z"/>
		<path id="Rectangle_16_Copy" class="st0" d="M209.47,330.53h0.02c7.86,0,14.23,6.37,14.23,14.23v39.01
			c0,7.86-6.37,14.23-14.23,14.23h-0.02c-7.86,0-14.23-6.37-14.23-14.23v-39.01C195.24,336.9,201.61,330.53,209.47,330.53z"/>
		<path id="Rectangle_16_Copy_2" class="st0" d="M397.86,196.22c-0.05,7.81-6.42,14.09-14.23,14.05h-39.86
			c-7.81,0.04-14.17-6.24-14.23-14.05c0.05-7.81,6.42-14.09,14.23-14.05h39.86C391.44,182.13,397.8,188.41,397.86,196.22z"/>
		<path id="Rectangle_16_Copy_3" class="st0" d="M69.32,196.22c-0.05,7.81-6.42,14.09-14.23,14.05H15.23
			C7.42,210.31,1.05,204.02,1,196.22c0.05-7.81,6.42-14.09,14.23-14.05h39.86C62.9,182.13,69.26,188.41,69.32,196.22z"/>
		<path id="Rectangle_16-2" class="st0" d="M353.87,67.34c5.48,5.37,5.57,14.16,0.2,19.64c-0.07,0.07-0.13,0.13-0.2,0.2
			l-28.18,27.78c-5.59,5.49-14.55,5.49-20.14,0c-5.48-5.37-5.57-14.16-0.2-19.64c0.07-0.07,0.13-0.13,0.2-0.2l28.18-27.78
			C339.31,61.84,348.28,61.84,353.87,67.34z"/>
		<path id="Rectangle_16_Copy-2" class="st0" d="M115.43,306.84c5.48,5.37,5.57,14.16,0.2,19.64c-0.07,0.07-0.13,0.13-0.2,0.2
			l-28.18,27.78c-5.59,5.49-14.55,5.49-20.14,0c-5.48-5.37-5.57-14.16-0.2-19.64c0.07-0.07,0.13-0.13,0.2-0.2l28.18-27.78
			C100.88,301.35,109.84,301.35,115.43,306.84z"/>
		<path id="Rectangle_16_Copy_2-2" class="st0" d="M349.84,346.63c-5.59,5.49-14.55,5.49-20.14,0l-28.18-27.84
			c-5.48-5.37-5.57-14.16-0.2-19.64c0.07-0.07,0.13-0.13,0.2-0.2c5.59-5.49,14.55-5.49,20.14,0l28.18,27.78
			c5.5,5.35,5.61,14.15,0.26,19.64C350.01,346.45,349.93,346.54,349.84,346.63z"/>
		<path id="Rectangle_16_Copy_3-2" class="st0" d="M101.37,96.27c-5.59,5.49-14.55,5.49-20.14,0L53.05,68.43
			c-5.48-5.37-5.57-14.16-0.2-19.64c0.07-0.07,0.13-0.13,0.2-0.2c5.59-5.49,14.55-5.49,20.14,0l28.18,27.78
			c5.5,5.35,5.61,14.15,0.26,19.64C101.54,96.1,101.45,96.18,101.37,96.27z"/>
		<path id="_" class="st0" d="M199.43,258.6c-24.85,0.13-47.89-12.95-60.52-34.35c-6.2-10.48-9.44-22.45-9.37-34.63
			c-0.08-12.18,3.16-24.16,9.37-34.65c12.63-21.4,35.67-34.49,60.52-34.37c24.84-0.12,47.88,12.97,60.5,34.37
			c6.21,10.48,9.46,22.46,9.39,34.65c0.07,12.18-3.17,24.15-9.39,34.63C247.3,245.65,224.27,258.72,199.43,258.6z M199.43,140.74
			c-17.59-0.06-33.9,9.21-42.86,24.35c-8.86,15.15-8.86,33.9,0,49.05c8.96,15.14,25.27,24.41,42.86,24.35V140.74z"/>
	</g>
</g>
</svg>
