<svg xmlns="http://www.w3.org/2000/svg" xmlns:xlink="http://www.w3.org/1999/xlink" width="23" height="24" viewBox="0 0 23 24">
  <defs>
    <clipPath id="clip-path">
      <path id="_.mask" data-name=".mask" d="M34.133,20.418H23.167v4.636h6.312c-.588,2.945-3.049,4.636-6.312,4.636a7.092,7.092,0,0,1,0-14.182A6.723,6.723,0,0,1,27.5,17.091L30.923,13.6a11.585,11.585,0,0,0-7.756-3A11.851,11.851,0,0,0,11.4,22.6a11.851,11.851,0,0,0,11.767,12c5.884,0,11.233-4.364,11.233-12A10.142,10.142,0,0,0,34.133,20.418Z" transform="translate(-11.4 -10.6)" fill="none"/>
    </clipPath>
  </defs>
  <g id="_.icon" data-name=".icon" transform="translate(-206 -1380)">
    <g id="_.yellow" data-name=".yellow" transform="translate(206 1380)" clip-path="url(#clip-path)">
      <path id="_.caminho" data-name=".caminho" d="M9.4,33.782V19.6l9.093,7.091Z" transform="translate(-10.47 -14.691)" fill="#fbbc05"/>
    </g>
    <g id="_.red" data-name=".red" transform="translate(206 1380)" clip-path="url(#clip-path)">
      <path id="_.caminho-2" data-name=".caminho" d="M9.4,14.6l9.093,7.091,3.744-3.327,12.837-2.127V8.6H9.4Z" transform="translate(-10.47 -9.691)" fill="#ea4335"/>
    </g>
    <g id="_.green" data-name=".green" transform="translate(206 1380)" clip-path="url(#clip-path)">
      <path id="_.caminho-3" data-name=".caminho" d="M9.4,28.782,25.447,16.236l4.226.545,5.4-8.182V34.782H9.4Z" transform="translate(-10.47 -9.691)" fill="#34a853"/>
    </g>
    <g id="_.blue" data-name=".blue" transform="translate(206 1380)" clip-path="url(#clip-path)">
      <path id="_.caminho-4" data-name=".caminho" d="M41.121,39.782,24.54,26.691,22.4,25.055,41.121,19.6Z" transform="translate(-16.516 -14.691)" fill="#4285f4"/>
    </g>
  </g>
</svg>
