<svg id="_.icon" data-name=".icon" xmlns="http://www.w3.org/2000/svg" width="32" height="12" viewBox="0 0 32 12">
  <path id="Caminho_2024" data-name="Caminho 2024" d="M17.763,48.663a1.459,1.459,0,0,0,1.372-1.612,1.367,1.367,0,0,0-1.372-1.48c-.8,0-1.216.71-1.216,1.565C16.547,48.11,17.119,48.663,17.763,48.663Zm3.445.926c0,2.575-1.239,3.405-3.743,3.405a7.176,7.176,0,0,1-2.372-.4l.107-1.709a4.238,4.238,0,0,0,2.1.518c1.24,0,1.908-.59,1.908-1.817v-.337h-.024A2.414,2.414,0,0,1,17.1,50.323c-1.705,0-2.766-1.3-2.766-3.152s.87-3.261,2.8-3.261a2.422,2.422,0,0,1,2.11,1.276h.025V44.055h1.943v5.534Z" transform="translate(-14.33 -40.994)" fill="#fff"/>
  <path id="Caminho_2025" data-name="Caminho 2025" d="M171.88,52.5h2.388l2.245-6.566h-2.086l-1.267,4.677h-.023L171.88,45.93h-2.25Z" transform="translate(-156.371 -43.185)" fill="#fff"/>
  <path id="Caminho_2026" data-name="Caminho 2026" d="M100.137,47.681c0-.98-.4-1.848-1.387-1.848s-1.386.868-1.386,1.848.4,1.835,1.386,1.835S100.137,48.648,100.137,47.681Zm-4.977,0A3.595,3.595,0,1,1,98.75,51.1,3.317,3.317,0,0,1,95.16,47.681Z" transform="translate(-88.26 -41.65)" fill="#fff"/>
  <path id="Caminho_2027" data-name="Caminho 2027" d="M231.221,97.089a.981.981,0,1,1-.981-1.009A.994.994,0,0,1,231.221,97.089Z" transform="translate(-210.866 -88.736)" fill="#fff"/>
  <path id="Caminho_2028" data-name="Caminho 2028" d="M258.616,18.485c-.782,0-1.3.693-1.3,1.625a1.456,1.456,0,0,0,1.3,1.591c.806,0,1.291-.682,1.291-1.674A1.374,1.374,0,0,0,258.616,18.485Zm-3.435-4.245h2.144v3.54h.024a2.509,2.509,0,0,1,2.121-.944c1.706,0,2.641,1.637,2.641,3.144,0,1.841-.983,3.372-2.82,3.372a2.278,2.278,0,0,1-2.12-1.256h-.024v1.113H255.18V14.24Z" transform="translate(-234.684 -14.24)" fill="#fff"/>
  <path id="Caminho_2029" data-name="Caminho 2029" d="M340.607,46.263a2.291,2.291,0,0,0-.718-.075c-.989,0-1.541.768-1.541,2.051v2.769H336.23V44.451h1.93v1.208h.024a1.9,1.9,0,0,1,1.812-1.359,4.167,4.167,0,0,1,.718.075Z" transform="translate(-308.713 -41.696)" fill="#fff"/>
</svg>
