<svg xmlns="http://www.w3.org/2000/svg" viewBox="0 0 386 174"  xmlns:v="https://vecta.io/nano"><path d="M197.29,103.52c7.25,0,13-6.11,13-15.15,0-6.57-3.85-13.92-13-13.92-7.57,0-11.53,6.68-11.53,14.71,0,9.16,5.42,14.36,11.53,14.36Zm32.69,8.7c0,24.2-11.76,32-35.51,32a68.42,68.42,0,0,1-22.5-3.74l1-16.06c6.23,3.06,11.43,4.87,19.91,4.87,11.76,0,18.1-5.54,18.1-17.08v-3.17h-.23c-4.87,6.9-11.65,10.07-19.79,10.07-16.18,0-26.24-12.21-26.24-29.63S173,58.85,191.31,58.85c8.7,0,15.71,4.75,20,12h.23V60.21H230v52Z" fill="#3560ac"/><path d="M312.05,119.05H334.7L356,60.49H336.21l-12,41.71H324L312.05,60.49H290.71Z" fill="#1f8943"/><path d="M277.49 89.79c0-8.76-3.82-16.52-13.15-16.52S251.2 81 251.2 89.79s3.82 16.4 13.14 16.4 13.15-7.76 13.15-16.4zm-47.19 0c0-19.44 14.71-30.67 34-30.67s34 11.24 34 30.67-14.71 30.55-34 30.55-34-11.23-34-30.55z" fill="#ffce0b"/><path d="M133 122.07a51.22 51.22 0 0 1-16.93-2.85 38.12 38.12 0 0 1-13.79-8l8.06-14.48q12.72 8.41 21.93 8.42 5.08 0 5.09-3a2.78 2.78 0 0 0-1.82-2.45 49.64 49.64 0 0 0-6.72-2.52l-5.48-2-4.64-1.81a34.41 34.41 0 0 1-4.06-1.91l-3.15-2a11.11 11.11 0 0 1-2.49-2.38 25.27 25.27 0 0 1-1.73-2.7 10.27 10.27 0 0 1-1.15-3.3 23.62 23.62 0 0 1-.3-3.91 20.71 20.71 0 0 1 7.51-16.6q7.52-6.36 20.53-6.36a38.89 38.89 0 0 1 26.05 9.45L150.9 78q-11.44-7-18.11-7c-3.48 0-5.21 1.15-5.21 3.46a3 3 0 0 0 1.78 2.75 32.91 32.91 0 0 0 6.58 2.33q5.44 1.71 9 3a49.58 49.58 0 0 1 6.69 3.06 17.66 17.66 0 0 1 4.88 3.73 14.75 14.75 0 0 1 2.63 4.67 18.22 18.22 0 0 1 1 6.18q0 10.24-7.27 16.08-7.27 5.84-19.87 5.81zM52.47 88.23c0 10 5 16.92 13.16 16.92 7.25 0 13.29-6.89 13.29-16.07 0-9.42-5.31-16.42-13.29-16.42-8.45 0-13.16 7.25-13.16 15.57zm48.2-58.46v90.61h-20v-11.24h-.25c-2.77 7-11.59 12.69-21.61 12.69C40 121.83 30 106.36 30 87.76 30 72.54 39.54 56 56.93 56c8.7 0 16.06 2.52 21.63 9.54h.24V29.77h21.87z" fill="#22376c"/></svg>