<svg xmlns="http://www.w3.org/2000/svg" xmlns:xlink="http://www.w3.org/1999/xlink" width="688" height="351" viewBox="0 0 688 351">
  <defs>
    <clipPath id="clip-path">
      <rect id="Retângulo_1735" data-name="Retângulo 1735" width="688" height="351" transform="translate(-0.344 0.342)" fill="none"/>
    </clipPath>
    <clipPath id="clip-path-2">
      <rect id="SVGID" width="266.535" height="261.171" fill="none"/>
    </clipPath>
    <clipPath id="clip-ilustra-destaque_m">
      <rect width="688" height="351"/>
    </clipPath>
  </defs>
  <g id="ilustra-destaque_m" clip-path="url(#clip-ilustra-destaque_m)">
    <g id="_.ilustra-destaque" data-name=".ilustra-destaque" transform="translate(0.344 -0.342)" clip-path="url(#clip-path)">
      <g id="Grupo_33552" data-name="Grupo 33552" transform="translate(206.938 92.014)" clip-path="url(#clip-path-2)">
        <path id="Caminho_8553" data-name="Caminho 8553" d="M400.92,130.9a20.279,20.279,0,0,1,40.558,0,19.632,19.632,0,0,1-.361,3.734q1.229-.117,2.486-.117a24.838,24.838,0,0,1,25.086,24.578,24.568,24.568,0,0,1-14.244,22.179,16.134,16.134,0,0,1,3.9,20.161,14.487,14.487,0,1,1-17.335,14.224,14.116,14.116,0,0,1,1.15-5.6,16.574,16.574,0,0,1-15.307-16.33,16.193,16.193,0,0,1,5.85-12.46,24.558,24.558,0,0,1-14.157-22.179,24.089,24.089,0,0,1,1.492-8.365A20.045,20.045,0,0,1,400.92,130.9Z" transform="translate(-217.998 -74.207)" fill="#0f174d"/>
        <ellipse id="Elipse_352" data-name="Elipse 352" cx="38.228" cy="35.75" rx="38.228" ry="35.75" transform="translate(117.044 51.193)" fill="#0f174d"/>
        <rect id="Retângulo_1731" data-name="Retângulo 1731" width="31.228" height="35.614" transform="translate(139.663 105.837)" fill="#f18918"/>
        <path id="Caminho_8554" data-name="Caminho 8554" d="M356.55,204.17l19.226-2.33L356.55,213.325Z" transform="translate(-216.887 -76.495)"/>
        <path id="Caminho_8555" data-name="Caminho 8555" d="M386.246,202.464V165.67a22.794,22.794,0,0,0-22.658-22.93h0a22.794,22.794,0,0,0-22.658,22.93v22.218C340.92,214.962,386.246,202.464,386.246,202.464Z" transform="translate(-216.496 -75.012)" fill="#f18918"/>
        <path id="Caminho_8556" data-name="Caminho 8556" d="M340.92,174.565v11.572a4.659,4.659,0,0,0,1.336.2c2.983,0,5.4-2.681,5.4-5.986s-2.418-5.986-5.4-5.986a4.661,4.661,0,0,0-1.336.2Z" transform="translate(-216.496 -75.805)" fill="#c75450"/>
        <path id="Caminho_8557" data-name="Caminho 8557" d="M31.238,31.344H12.957A12.957,12.957,0,0,1,0,18.387V0H31.2V31.344Z" transform="translate(139.653 62.746)" fill="#0f174d"/>
        <ellipse id="Elipse_353" data-name="Elipse 353" cx="10.335" cy="10.129" rx="10.335" ry="10.129" transform="translate(160.557 90.979)" fill="#f18918"/>
        <ellipse id="Elipse_354" data-name="Elipse 354" cx="6.474" cy="6.347" rx="6.474" ry="6.347" transform="translate(146.166 98.379)" fill="#c75450"/>
        <path id="Caminho_8558" data-name="Caminho 8558" d="M363.159,187.84l-14.449.556S356.3,198.389,363.159,187.84Z" transform="translate(-216.691 -76.144)" fill="#fff"/>
        <path id="Caminho_8559" data-name="Caminho 8559" d="M363.22,174.949a2.047,2.047,0,1,0,2.047-2,2.047,2.047,0,0,0-2.047,2Z" transform="translate(-217.054 -75.77)" fill="#0f174d"/>
        <path id="Caminho_8560" data-name="Caminho 8560" d="M344.87,174.949a2.047,2.047,0,1,0,2.047-2,2.047,2.047,0,0,0-2.047,2Z" transform="translate(-216.594 -75.77)" fill="#0f174d"/>
        <path id="Caminho_8561" data-name="Caminho 8561" d="M353.593,184.313a1.686,1.686,0,0,0,.312,0l4.524-.721-.263-1.579-4.534.721-.224-.214,1.073-8.774-1.628-.195-1.063,8.774a1.716,1.716,0,0,0,.546,1.5A1.814,1.814,0,0,0,353.593,184.313Z" transform="translate(-216.767 -75.785)" fill="#0f174d"/>
        <path id="Caminho_8562" data-name="Caminho 8562" d="M387.778,137.64v28.273a10.364,10.364,0,0,0-7.439,3.12H370.7a14.029,14.029,0,0,1-14.156-13.873V137.64Z" transform="translate(-216.887 -74.884)" fill="#0f174d"/>
        <path id="Caminho_8563" data-name="Caminho 8563" d="M433.777,454.193,252.61,424.019,290.9,270.85l63.051-52.49h31.287l46.038,36.364Z" transform="translate(-214.284 -76.909)" fill="#0f174d"/>
        <path id="Caminho_8564" data-name="Caminho 8564" d="M398.78,457.268l.39-230.588,35.762,28.253,31.823,48.015-29.19-2.74,9.145,157.059Z" transform="translate(-217.944 -77.118)" fill="#fcf4e5"/>
        <path id="Caminho_8565" data-name="Caminho 8565" d="M256.548,228.37S315.26,364.5,266.463,372.512c-60.72,9.944-32.057-134.685-32.057-134.685Z" transform="translate(-213.659 -77.16)" fill="#0f174d"/>
        <path id="Caminho_8566" data-name="Caminho 8566" d="M263.936,214.907l-26,.3a.877.877,0,0,1-.887-.848l-.517-43.5a.868.868,0,0,1,.868-.868l26-.292a.868.868,0,0,1,.887.848l.517,43.491a.868.868,0,0,1-.868.868Z" transform="translate(-213.882 -75.689)" fill="#fcf4e5"/>
        <path id="Caminho_8567" data-name="Caminho 8567" d="M270.649,210.71c0,1.043,0,2.106-.058,3.178-.565,14.624-5.85,31.2-19.567,34.278-21.332,4.758-20.094-31.2-20.094-31.2s28.722-32.484,35.518-24.958c1.16,1.287,2.145,3.607,2.876,6.61.137.595.273,1.238.4,1.9A58.671,58.671,0,0,1,270.649,210.71Z" transform="translate(-213.741 -76.22)" fill="#f18918"/>
        <path id="Caminho_8568" data-name="Caminho 8568" d="M270.428,200.671l-10.188,10.3-1.18-1.121,10.968-11.085C270.165,199.365,270.3,199.969,270.428,200.671Z" transform="translate(-214.446 -76.418)" fill="#0f174d"/>
        <path id="Caminho_8569" data-name="Caminho 8569" d="M271.48,211.22c0,1.043,0,2.106-.058,3.178l-5.938,9.554-1.4-.838Z" transform="translate(-214.572 -76.73)" fill="#0f174d"/>
        <ellipse id="Elipse_355" data-name="Elipse 355" cx="2.671" cy="2.613" rx="2.671" ry="2.613" transform="translate(39.349 98.857)" fill="#0f174d"/>
        <path id="Caminho_8570" data-name="Caminho 8570" d="M338.493,231.38,287.59,438.1l-43.61-11.7,46.7-155.227Z" transform="translate(-214.068 -77.236)" fill="#fcf4e5"/>
        <path id="Caminho_8571" data-name="Caminho 8571" d="M417.461,296.18l49.4,8.511s15.531,48.005-16.73,62.044S403.1,321.07,403.1,321.07Z" transform="translate(-218.052 -78.861)" fill="#0f174d"/>
        <path id="Caminho_8572" data-name="Caminho 8572" d="M379.293,295.5c.156.975.312,1.95.517,2.925,2.652,13.366,9.925,27.99,23.048,28.9,20.377,1.414,13.991-31.636,13.991-31.636s-31.2-25.962-36.4-18.065a14.8,14.8,0,0,0-1.687,6.493c-.049.575-.078,1.189-.1,1.813A55.466,55.466,0,0,0,379.293,295.5Z" transform="translate(-217.44 -78.358)" fill="#f18918"/>
        <path id="Caminho_8573" data-name="Caminho 8573" d="M378.66,286.123l10.9,8.092.975-1.2-11.7-8.706A9.939,9.939,0,0,0,378.66,286.123Z" transform="translate(-217.441 -78.563)" fill="#0f174d"/>
        <path id="Caminho_8574" data-name="Caminho 8574" d="M379.31,296c.156.975.312,1.95.517,2.925l6.874,7.994,1.17-.975Z" transform="translate(-217.457 -78.856)" fill="#0f174d"/>
      </g>
      <path id="Caminho_8575" data-name="Caminho 8575" d="M48.2,274.63l8.131,64.023H33.34Z" transform="translate(-1.856 13.693)" fill="#9dc5c6"/>
      <ellipse id="Elipse_356" data-name="Elipse 356" cx="32.398" cy="31.743" rx="32.398" ry="31.743" transform="translate(128.142 142.797)" fill="#0f174d"/>
      <ellipse id="Elipse_357" data-name="Elipse 357" cx="6.581" cy="23.574" rx="6.581" ry="23.574" transform="translate(139.385 139.336) rotate(-58.91)" fill="#0f174d"/>
      <ellipse id="Elipse_358" data-name="Elipse 358" cx="6.64" cy="23.35" rx="6.64" ry="23.35" transform="translate(155.537 133.304) rotate(-30.49)" fill="#0f174d"/>
      <path id="Caminho_8576" data-name="Caminho 8576" d="M48.569,273.211l75.374-46,2.028-1.238L138.3,218.44l24.813,2.925,2.252.263,9.974,1.18,10.861,10.3,1.609,1.5,59.629,56.419h0v.02l8.979,46.192H48.15Z" transform="translate(-2.227 15.103)" fill="#c4d3ea"/>
      <path id="Caminho_8577" data-name="Caminho 8577" d="M125.89,227.408l21.849,16.057L161.788,229.7l-1.492-1.462-.088-.088-1.94,1.9-.039.039-10.7,10.5L127.918,226.17Z" transform="translate(-4.173 14.909)" fill="#0f174d"/>
      <path id="Caminho_8578" data-name="Caminho 8578" d="M170.64,227.89l2,1.969,11.982,11.757,6.259-6.8-1.609-1.5-4.738,5.148-10-9.847-2.311-2.272Z" transform="translate(-5.294 14.904)" fill="#0f174d"/>
      <path id="Caminho_8579" data-name="Caminho 8579" d="M165.74,218.564l2.213-.234,10.169,118.911H175.88Z" transform="translate(-5.171 15.105)" fill="#0f174d"/>
      <path id="Caminho_8580" data-name="Caminho 8580" d="M158.47,223.016l2.223-.175,7,114.514H165.46Z" transform="translate(-4.989 14.992)" fill="#0f174d"/>
      <path id="Caminho_8581" data-name="Caminho 8581" d="M177.649,221.732l-37.019-4.368V175.15h37.019Z" transform="translate(-4.543 16.188)" fill="#ed7666"/>
      <path id="Caminho_8582" data-name="Caminho 8582" d="M178.015,201.629,155.22,198.86l22.795,13.629Z" transform="translate(-4.908 15.594)"/>
      <path id="Caminho_8583" data-name="Caminho 8583" d="M178.347,203.1,142,196.907V158.944c0-13.873,12.021-25.114,26.86-25.114h0c14.829,0,26.86,11.241,26.86,25.114v29.92C195.74,199.247,188.252,204.941,178.347,203.1Z" transform="translate(-4.577 17.225)" fill="#ed7666"/>
      <path id="Caminho_8584" data-name="Caminho 8584" d="M180.238,185c-1.618,0-2.866,3.227-2.788,7.146s1.453,7.068,3.061,7.039,2.866-3.227,2.788-7.146S181.886,184.942,180.238,185Z" transform="translate(-5.464 15.941)" fill="#0f174d"/>
      <path id="Caminho_8585" data-name="Caminho 8585" d="M196.925,166.534v13.717a5.46,5.46,0,0,1-1.589.244c-3.529,0-6.406-3.188-6.406-7.1s2.876-7.1,6.406-7.1a5.847,5.847,0,0,1,1.589.234Z" transform="translate(-5.752 16.41)" fill="#c75450"/>
      <ellipse id="Elipse_359" data-name="Elipse 359" cx="12.246" cy="12.001" rx="12.246" ry="12.001" transform="translate(120.303 174.55)" fill="#ed7666"/>
      <ellipse id="Elipse_360" data-name="Elipse 360" cx="7.673" cy="7.517" rx="7.673" ry="7.517" transform="translate(150.049 182.506)" fill="#c75450"/>
      <path id="Caminho_8586" data-name="Caminho 8586" d="M171.45,183.7l17.111,1.121S179.22,196.423,171.45,183.7Z" transform="translate(-5.314 15.974)" fill="#fff"/>
      <path id="Caminho_8587" data-name="Caminho 8587" d="M170.565,166.939a2.428,2.428,0,1,1-2.428-2.379A2.427,2.427,0,0,1,170.565,166.939Z" transform="translate(-5.171 16.454)" fill="#0f174d"/>
      <path id="Caminho_8588" data-name="Caminho 8588" d="M192.315,166.939a2.428,2.428,0,1,1-2.418-2.379A2.4,2.4,0,0,1,192.315,166.939Z" transform="translate(-5.715 16.454)" fill="#0f174d"/>
      <path id="Caminho_8589" data-name="Caminho 8589" d="M181.985,178.308a2.194,2.194,0,0,0,1.433-.6,2.087,2.087,0,0,0,.643-1.784v-2.34h-1.95l-.068,2.759h-.078l-.283.059H177.13v1.9h4.553a1.088,1.088,0,0,0,.3.01Z" transform="translate(-5.456 16.228)" fill="#0f174d"/>
      <path id="Caminho_8590" data-name="Caminho 8590" d="M140.63,218.45l37.048,4.368s-2.038,8.316-12.548,8.316S140.63,218.45,140.63,218.45Z" transform="translate(-4.543 15.102)" fill="#ed7666"/>
      <ellipse id="Elipse_361" data-name="Elipse 361" cx="2.876" cy="7.224" rx="2.876" ry="7.224" transform="translate(173.985 198.718) rotate(-69.54)" fill="#0f174d"/>
      <path id="Caminho_8591" data-name="Caminho 8591" d="M165.209,184c.37,1.54,4.319,1.95,8.775.907s7.8-3.139,7.449-4.68-4.319-1.95-8.775-.916S164.839,182.455,165.209,184Z" transform="translate(-5.157 16.098)" fill="#0f174d"/>
      <rect id="Retângulo_1732" data-name="Retângulo 1732" width="8.804" height="37.915" transform="translate(137.472 153.56)" fill="#0f174d"/>
      <path id="Caminho_8592" data-name="Caminho 8592" d="M5.4,20.181H0V0H14.02V11.563A8.619,8.619,0,0,1,5.4,20.181Z" transform="translate(142.942 149.202)" fill="#0f174d"/>
      <rect id="Retângulo_1733" data-name="Retângulo 1733" width="23.126" height="8.453" transform="translate(153.198 149.202)" fill="#0f174d"/>
      <path id="Caminho_8593" data-name="Caminho 8593" d="M181.411,136.4s8.121,3.8,11.553,10.578l-3,10.968-19.265-.488L162,140.495h19.373Z" transform="translate(-5.078 17.16)" fill="none"/>
      <path id="Caminho_8594" data-name="Caminho 8594" d="M61.5,230.2s-42.4-27.064-43.8-20.8S54.065,239.96,54.065,239.96Z" transform="translate(-1.464 15.353)" fill="#ed7666"/>
      <path id="Caminho_8595" data-name="Caminho 8595" d="M49.717,257.974s-37.838-32.708-40.1-26.722,31.325,35.36,31.325,35.36Z" transform="translate(-1.259 14.8)" fill="#ed7666"/>
      <path id="Caminho_8596" data-name="Caminho 8596" d="M40.643,265.441c7.887,9.32,21.537,9.4,31.062,2.155s10.851-20.678,2.925-30-21.966-11.007-31.491-3.714S32.755,256.121,40.643,265.441Z" transform="translate(-1.905 14.829)" fill="#ed7666"/>
      <path id="Caminho_8597" data-name="Caminho 8597" d="M53.019,239.338S9.809,211.582,7.527,218.085,43.6,249.565,43.6,249.565Z" transform="translate(-1.207 15.136)" fill="#ed7666"/>
      <path id="Caminho_8598" data-name="Caminho 8598" d="M78.776,244.34s-2.662-6.591-9.876-15.989-20.572-19.723-23.828-18.523,18.1,35.214,18.1,35.214Z" transform="translate(-2.141 15.321)" fill="#ed7666"/>
      <path id="Caminho_8599" data-name="Caminho 8599" d="M54.678,255.11l1.287-1.95a16.778,16.778,0,0,1-5.743-8.092c-1.54-4.368,3.646-10.324,5.782-12.255l.643-.595-6.142-11.7-2.077,1.053,5.343,10.139c-1.95,1.95-7.8,8.4-5.752,14.068A18.835,18.835,0,0,0,54.678,255.11Z" transform="translate(-2.213 15.05)" fill="#0f174d"/>
      <path id="Caminho_8600" data-name="Caminho 8600" d="M37.943,247.06a61.594,61.594,0,0,1,3.393-7.751,56.36,56.36,0,0,1,5-6.737l-1.8-1.462a59.8,59.8,0,0,0-5.275,7.156,60.1,60.1,0,0,0-3.529,8.072Z" transform="translate(-1.916 14.785)" fill="#0f174d"/>
      <path id="Caminho_8601" data-name="Caminho 8601" d="M54.155,257.686l24.978-4.046s7.02,44.846,5.294,85.315H26.33C33.866,300.027,54.155,257.686,54.155,257.686Z" transform="translate(-1.68 14.22)" fill="#ed7666"/>
      <path id="Caminho_8602" data-name="Caminho 8602" d="M579.485,159.719s-39.807-2.311-42.4,27.473-28.274,17.636-28.274,17.636Z" transform="translate(-13.761 16.576)"/>
      <ellipse id="Elipse_362" data-name="Elipse 362" cx="42.664" cy="41.805" rx="42.664" ry="41.805" transform="translate(563.501 123.426)"/>
      <ellipse id="Elipse_363" data-name="Elipse 363" cx="36.288" cy="33.937" rx="36.288" ry="33.937" transform="translate(530.391 173.107)"/>
      <path id="União_11" data-name="União 11" d="M0,16.242,27.212,54.585a48.885,48.885,0,0,0,6.415,7.458,31.288,31.288,0,0,0,5.782,4.417,5.272,5.272,0,0,0,.526.293,26.949,26.949,0,0,0,13.493,3.49v42.263H90.487V70.243h0l48.855-29.852,15.483-9.525,19.859-12.089c-3.9.868-8.4,1.677-13.532,2.32q-4.651.585-10.013.975a255.394,255.394,0,0,1-39.447-.654c-12.616-1.111-24.686-2.73-35.849-4.582q-4.4-.721-8.619-1.491c-11.008-2.018-20.971-4.212-29.532-6.3C17.9,4.222,5.674,0,5.674,0Z" transform="translate(638.631 341.973) rotate(180)" fill="#a35a5f"/>
      <path id="Caminho_8604" data-name="Caminho 8604" d="M563.27,240.769,586.084,238,563.27,251.639Z" transform="translate(-15.125 14.612)"/>
      <path id="Caminho_8605" data-name="Caminho 8605" d="M598.509,238.776V195.09a27.055,27.055,0,0,0-26.889-27.22h0a27.055,27.055,0,0,0-26.89,27.22v26.323C544.72,253.575,598.509,238.776,598.509,238.776Z" transform="translate(-14.66 16.371)" fill="#a35a5f"/>
      <path id="Caminho_8606" data-name="Caminho 8606" d="M544.72,205.634v13.737a5.85,5.85,0,0,0,1.589.234c3.539,0,6.415-3.188,6.415-7.1s-2.876-7.107-6.415-7.107A5.849,5.849,0,0,0,544.72,205.634Z" transform="translate(-14.661 15.43)" fill="#c75450"/>
      <path id="Caminho_8607" data-name="Caminho 8607" d="M37.117,37.222H28.274A28.273,28.273,0,0,1,0,8.95V0H37.049V37.222Z" transform="translate(548.096 178.304)"/>
      <ellipse id="Elipse_364" data-name="Elipse 364" cx="12.265" cy="12.021" rx="12.265" ry="12.021" transform="translate(572.938 211.831)" fill="#a35a5f"/>
      <path id="Caminho_8608" data-name="Caminho 8608" d="M571.19,212.716a7.683,7.683,0,1,0,7.683-7.526,7.6,7.6,0,0,0-7.683,7.526Z" transform="translate(-15.323 15.435)" fill="#c75450"/>
      <path id="Caminho_8609" data-name="Caminho 8609" d="M571.11,221.39l-17.14.663S562.969,233.918,571.11,221.39Z" transform="translate(-14.892 15.029)" fill="#fff"/>
      <path id="Caminho_8610" data-name="Caminho 8610" d="M571.19,206.049a2.428,2.428,0,1,0,2.428-2.379,2.4,2.4,0,0,0-2.428,2.379Z" transform="translate(-15.323 15.473)"/>
      <path id="Caminho_8611" data-name="Caminho 8611" d="M549.41,206.049a2.428,2.428,0,1,0,2.427-2.379,2.4,2.4,0,0,0-2.427,2.379Z" transform="translate(-14.778 15.473)"/>
      <path id="Caminho_8612" data-name="Caminho 8612" d="M559.764,217.356a2.157,2.157,0,0,0,.361,0l5.372-.858-.312-1.872-5.372.858v-.059l-.273-.312V210.58h-1.95v4.543a2.009,2.009,0,0,0,.663,1.677A2.194,2.194,0,0,0,559.764,217.356Z" transform="translate(-14.983 15.3)"/>
      <path id="Caminho_8613" data-name="Caminho 8613" d="M659.268,324.2v51.836A178.224,178.224,0,0,1,641.5,381.61l-1.307.331-1.5.361a180.368,180.368,0,0,1-42.118,4.953c-48.748,0-101.786-9.369-133.765-40.693-2.125-2.086,1.843-11.972,2.633-16.408a49.032,49.032,0,0,1,3.4-8.774c.6-1.219,1.268-2.418,1.95-3.568a43.41,43.41,0,0,1,5.606-7.38l.107-.107.887-.195,1.823-.38,1.121-.214,1.638-.312c1.482-.263,3.032-.517,4.651-.751l.673-.1,2.486-.332h.254c.595-.068,1.189-.146,1.794-.2q3.9-.448,8.209-.741c5.148-.361,10.783-.536,16.955-.487,3.48,0,7.117.127,10.929.322h.2l2.184.117,2.369.146c2.213.146,4.494.322,6.825.526,1.843.166,3.685.331,5.5.527.9.078,1.8.175,2.71.273l2.145.234q5.05.556,9.925,1.219l2.642.361c4.426.6,8.775,1.277,12.928,1.95l2.184.361q3.276.556,6.435,1.141c6.415,1.17,12.479,2.408,18.124,3.646,3.373.751,6.61,1.5,9.662,2.233l1.745.419,1.735.419,1.453.361.429.107.975.253c.848.214,1.7.429,2.505.653l2.389.614,3.841,1.034,1.374.38.692.2.683.185,2.1.595,1.258.361.6.175.6.176,3.568,1.053.975.292.214.068.819.254h.068l2.174.673h.127l.322.107.975.312.448.146c1.121.361,1.706.565,1.706.565l5.674-16.223Z" transform="translate(-12.594 12.891)" fill="#dee3e1"/>
      <path id="Caminho_8614" data-name="Caminho 8614" d="M469,321.565c9.8-1.891,34.64-5.391,71.962-1.618a517.531,517.531,0,0,1,88.39,17.061l.975-2.925A517.394,517.394,0,0,0,541.3,316.9c-35.1-3.559-58.936-.868-70.295,1.141A40.27,40.27,0,0,0,469,321.565Z" transform="translate(-12.765 12.677)" fill="#838c9c"/>
      <path id="Caminho_8615" data-name="Caminho 8615" d="M714.659,344.64A177.711,177.711,0,0,1,644.91,380.42l-1.307.332-20.591-47.82-1.56-3.617-4.5-10.451h0l-6.113-14.234-6.347-14.77c-.088-.214-.185-.439-.263-.653-1.287-3.032-2.418-6.035-3.305-8.891-4.592-14.516-3.334-25.348,12.3-19.625.478.176.975.341,1.414.526l.595.224c2.272.858,4.573,1.794,6.942,2.808C652.33,277.176,689.291,302.875,714.659,344.64Z" transform="translate(-16.009 14.082)" fill="#a35a5f"/>
      <path id="Caminho_8616" data-name="Caminho 8616" d="M645.191,381.577l-1.306.331-1.5.361L621.5,333.621l-1.55-3.607-4.465-10.383h0l-5.694-13.269,1.326-.546,1.316-.546,6.532,15.209h0l4.485,10.471,1.56,3.636Z" transform="translate(-16.29 12.925)"/>
      <path id="Caminho_8617" data-name="Caminho 8617" d="M578,311.533l6.484,4.475,2.437-3.4,16.808-23.4,16.789-23.4,1.16-1.618c-2.369-.975-4.67-1.95-6.942-2.8a5.384,5.384,0,0,0-.527-.292l-.059.078-13.727,19.177-22.142,30.759Z" transform="translate(-15.494 14.033)" fill="#dee3e1"/>
      <path id="Caminho_8618" data-name="Caminho 8618" d="M490.63,307.777l6.717,4.134,3.451-5.352,11.777-18.319-15.463,9.466-6.327,9.817Z" transform="translate(-13.306 13.352)" fill="#dee3e1"/>
    </g>
  </g>
</svg>
