<svg xmlns="http://www.w3.org/2000/svg" xmlns:xlink="http://www.w3.org/1999/xlink" width="649" height="434" viewBox="0 0 649 434">
  <defs>
    <clipPath id="clip-ilustra-download_g">
      <rect width="649" height="434"/>
    </clipPath>
  </defs>
  <g id="ilustra-download_g" clip-path="url(#clip-ilustra-download_g)">
    <g id="_.ilustra-download" data-name=".ilustra-download" transform="translate(-3)">
      <path id="Caminho_7770" data-name="Caminho 7770" d="M78.966,19.991c-39.329,59.555-46.07,66.3-64.049,93.265s-34.52,76.41,44.542,105.625,147.606,0,163.337-33.71S207.064,104.266,193.58,77.3,118.294-39.564,78.966,19.991Z" transform="matrix(-0.799, 0.602, -0.602, -0.799, 409.792, 297.328)" fill="#a6dae8"/>
      <path id="Caminho_8318" data-name="Caminho 8318" d="M110.535,27.982c-55.051,83.363-64.488,92.8-89.655,130.55S-27.44,265.489,83.229,306.384s206.615,0,228.636-47.187-22.02-113.248-40.9-151S165.586-55.381,110.535,27.982Z" transform="matrix(0.996, -0.087, 0.087, 0.996, 236.37, 98.812)" fill="#a6dae8"/>
      <g id="Grupo_33485" data-name="Grupo 33485" transform="translate(356.777 184.291)">
        <rect id="Area_SIZE:LARGE_STATE:DEFAULT_STYLE:STYLE2_" data-name="Area [SIZE:LARGE][STATE:DEFAULT][STYLE:STYLE2]" width="65.559" height="65.559" rx="32.78" transform="translate(0)" fill="#fff"/>
        <g id="Grupo_32920" data-name="Grupo 32920" transform="translate(18.786 15.57)">
          <g id="surface1">
            <path id="Caminho_66" data-name="Caminho 66" d="M19.068.266a.833.833,0,0,0-.6-.266H5.028A4.547,4.547,0,0,0,.5,4.519V29.936a4.547,4.547,0,0,0,4.528,4.519H23.271A4.547,4.547,0,0,0,27.8,29.936V9.754a.9.9,0,0,0-.241-.583Zm.241,2.672,5.684,5.967H21.3a1.982,1.982,0,0,1-1.989-1.981Zm3.962,29.853H5.028a2.883,2.883,0,0,1-2.863-2.855V4.519A2.883,2.883,0,0,1,5.028,1.665H17.645v5.26A3.641,3.641,0,0,0,21.3,10.57h4.835V29.936A2.877,2.877,0,0,1,23.271,32.791Zm0,0" transform="translate(-0.5 0)" fill="#333" stroke="#333" stroke-width="0.5"/>
            <path id="Caminho_67" data-name="Caminho 67" d="M103.7,401.934H90a.832.832,0,1,0,0,1.665h13.707a.832.832,0,1,0-.008-1.665Zm0,0" transform="translate(-83.205 -374.885)" fill="#333" stroke="#333" stroke-width="0.5"/>
            <path id="Caminho_68" data-name="Caminho 68" d="M123.72,182.9a.826.826,0,0,0,1.215,0l4.877-5.235a.83.83,0,0,0-1.215-1.132l-3.437,3.687v-9.088a.832.832,0,1,0-1.665,0v9.088l-3.429-3.687a.83.83,0,0,0-1.215,1.132Zm0,0" transform="translate(-110.678 -158.837)" fill="#333" stroke="#333" stroke-width="0.5"/>
          </g>
        </g>
      </g>
      <g id="Grupo_33487" data-name="Grupo 33487" transform="translate(89.48 0)" style="mix-blend-mode: hard-light;isolation: isolate">
        <g id="Grupo_33356" data-name="Grupo 33356" transform="translate(119.905 136.726)">
          <path id="Caminho_8279" data-name="Caminho 8279" d="M2213.021,651.2h-221.9A11.119,11.119,0,0,0,1980,662.319V803.676a11.119,11.119,0,0,0,11.119,11.119H2076.2v16.842h-16.246a4.389,4.389,0,0,0-4.382,4.382v8.555a1.476,1.476,0,0,0,1.49,1.491h89.1a1.476,1.476,0,0,0,1.491-1.491v-8.555a4.389,4.389,0,0,0-4.382-4.382H2127.02V814.795h85.971a11.119,11.119,0,0,0,11.119-11.119V662.319A11.074,11.074,0,0,0,2213.021,651.2Zm-230.01,11.119a8.149,8.149,0,0,1,8.138-8.138h221.9a8.149,8.149,0,0,1,8.138,8.138V797.058H1983.01ZM2124.1,831.667h-8.436a1.49,1.49,0,1,0,0,2.981h27.663a1.4,1.4,0,0,1,1.4,1.4v7.065h-86.12v-7.065a1.4,1.4,0,0,1,1.4-1.4h27.664a1.49,1.49,0,0,0,0-2.981h-8.437V814.795h44.893v16.872Zm97.06-27.991a8.149,8.149,0,0,1-8.138,8.138h-221.9a8.148,8.148,0,0,1-8.138-8.138v-3.637h238.178Z" transform="translate(-1980 -651.2)" fill="#3b2f45"/>
        </g>
        <g id="Grupo_33358" data-name="Grupo 33358" transform="translate(221.15 84.349)">
          <path id="Caminho_8281" data-name="Caminho 8281" d="M2385.318,626a1.826,1.826,0,0,0-1.818,1.818,1.845,1.845,0,0,0,1.818,1.818,1.826,1.826,0,0,0,1.818-1.818A1.845,1.845,0,0,0,2385.318,626Z" transform="translate(-2364.511 -580.54)" fill="#3b2f45"/>
          <path id="Caminho_8282" data-name="Caminho 8282" d="M2367.218,626a1.825,1.825,0,0,0-1.818,1.818,1.845,1.845,0,0,0,1.818,1.818,1.818,1.818,0,1,0,0-3.637Z" transform="translate(-2351.807 -580.54)" fill="#3b2f45"/>
          <path id="Caminho_8283" data-name="Caminho 8283" d="M2403.319,626a1.826,1.826,0,0,0-1.819,1.818,1.845,1.845,0,0,0,1.819,1.818,1.818,1.818,0,1,0,0-3.637Z" transform="translate(-2377.146 -580.54)" fill="#3b2f45"/>
          <path id="Caminho_8285" data-name="Caminho 8285" d="M2375.351,522.9a6.051,6.051,0,1,0,6.052,6.051A6.056,6.056,0,0,0,2375.351,522.9Z" transform="translate(-2354.544 -508.174)" fill="#3b2f45"/>
          <path id="Caminho_8286" data-name="Caminho 8286" d="M2351.636,511.865a20.777,20.777,0,1,0-22.118,0l-6.886,15.5a1.5,1.5,0,0,0,.745,1.967,1.511,1.511,0,0,0,1.968-.775l6.8-15.292a20.651,20.651,0,0,0,16.813,0l6.8,15.292a1.489,1.489,0,0,0,1.371.894,1.333,1.333,0,0,0,.6-.119,1.472,1.472,0,0,0,.745-1.967Zm-28.825-17.588a17.8,17.8,0,1,1,17.8,17.8A17.824,17.824,0,0,1,2322.811,494.277Z" transform="translate(-2319.8 -473.5)" fill="#3b2f45"/>
        </g>
        <g id="Grupo_33359" data-name="Grupo 33359" transform="translate(428.023 123.282)">
          <path id="Caminho_8313" data-name="Caminho 8313" d="M3132.325,678.954a6.458,6.458,0,0,0-3.279.924l-43.849-43.85,4.262-4.263a1.477,1.477,0,0,0,0-2.117l-7.184-7.184,3.965-3.965a1.52,1.52,0,0,0,.447-1.043,1.4,1.4,0,0,0-.447-1.043l-6.648-6.648a1.518,1.518,0,0,0-1.043-.447,1.4,1.4,0,0,0-1.044.447l-3.964,3.965-7.185-7.184a1.517,1.517,0,0,0-1.043-.447,1.4,1.4,0,0,0-1.043.447l-10.4,10.4L3016.6,632.988a1.492,1.492,0,0,0-.864,1.1,1.508,1.508,0,0,0,.417,1.341l44.536,44.535a1.517,1.517,0,0,0,1.043.447.828.828,0,0,0,.269-.03,1.548,1.548,0,0,0,1.1-.865l16.038-37.262,4.024-4.024,43.85,43.85a6.178,6.178,0,0,0-.925,3.279,6.46,6.46,0,0,0,.925,3.279l-41.435,41.435a6.178,6.178,0,0,0-3.279-.924,6.319,6.319,0,0,0-1.491,12.46v57.264h-29.72a4.39,4.39,0,0,0-4.383,4.382v9.748a1.477,1.477,0,0,0,1.491,1.491h68.2a1.476,1.476,0,0,0,1.49-1.491V803.26a4.389,4.389,0,0,0-4.382-4.382H3083.8V741.614a6.329,6.329,0,0,0,4.829-6.141,6.456,6.456,0,0,0-.924-3.279l41.435-41.435a6.175,6.175,0,0,0,3.279.924,6.323,6.323,0,0,0,6.32-6.32A6.476,6.476,0,0,0,3132.325,678.954ZM3078.519,612.9l4.531,4.531-2.921,2.922-1.7-1.7-2.832-2.832Zm-17.378,63.345-41.406-41.406,34.579-14.875,21.731,21.731Zm21.939-42.3-10.522-10.523a1.5,1.5,0,0,0-2.117,2.117l10.523,10.523-3.19,3.19L3056.729,618.2l8.5-8.5,7.959,7.959,5.872,5.873h0l7.184,7.184ZM3113.4,801.8a1.4,1.4,0,0,1,1.4,1.4v8.257h-65.223V803.2a1.4,1.4,0,0,1,1.4-1.4Z" transform="translate(-3015.715 -606.1)" fill="#3b2f45"/>
        </g>
        <g id="Grupo_33360" data-name="Grupo 33360" transform="translate(384.714 261.478)">
          <path id="Caminho_8314" data-name="Caminho 8314" d="M2939.514,1085.052h-18.661V1071.19a1.476,1.476,0,0,0-1.49-1.49H2871.19a1.476,1.476,0,0,0-1.491,1.49V1130.3a9.516,9.516,0,0,0,9.51,9.509h32.135a9.516,9.516,0,0,0,9.509-9.509v-6.379A20.69,20.69,0,0,0,2941,1103.415v-16.872A1.5,1.5,0,0,0,2939.514,1085.052Zm-21.642,45.281a6.526,6.526,0,0,1-6.528,6.528h-32.135a6.526,6.526,0,0,1-6.528-6.528v-57.622h45.191Zm20.151-26.918a17.681,17.681,0,0,1-17.171,17.528V1088h17.171Z" transform="translate(-2869.699 -1069.7)" fill="#3b2f45"/>
        </g>
        <g id="Grupo_33361" data-name="Grupo 33361" transform="translate(317.512 0)">
          <path id="Caminho_8315" data-name="Caminho 8315" d="M2864.252,188.1A38.752,38.752,0,1,0,2903,226.852,38.789,38.789,0,0,0,2864.252,188.1Zm0,74.524a35.771,35.771,0,1,1,35.772-35.771A35.8,35.8,0,0,1,2864.252,262.624Z" transform="translate(-2818.047 -180.648)" fill="#3b2f45"/>
          <path id="Caminho_8316" data-name="Caminho 8316" d="M2929.16,272.195a1.5,1.5,0,0,0-2.116-2.116l-7.005,7.005a4.075,4.075,0,0,0-3.339,0l-11.536-11.536a1.5,1.5,0,0,0-2.116,2.116l11.536,11.536a3.891,3.891,0,0,0-.358,1.669,4.143,4.143,0,1,0,8.287,0,3.909,3.909,0,0,0-.357-1.669Z" transform="translate(-2872.164 -234.694)" fill="#3b2f45"/>
          <path id="Caminho_8317" data-name="Caminho 8317" d="M2846.7,163.1a46.2,46.2,0,1,0,46.2,46.2A46.245,46.245,0,0,0,2846.7,163.1Zm0,89.429a43.224,43.224,0,1,1,43.224-43.224A43.255,43.255,0,0,1,2846.7,252.529Z" transform="translate(-2800.5 -163.1)" fill="#3b2f45"/>
        </g>
        <g id="Grupo_33486" data-name="Grupo 33486" transform="translate(0 328.639)">
          <path id="Caminho_8280" data-name="Caminho 8280" d="M1785.314,1351.638H1647.689a1.49,1.49,0,0,1,0-2.981h137.625a7.438,7.438,0,0,0,0-14.875h-346.07a10.418,10.418,0,0,1,.03-20.837h541.689a7.449,7.449,0,0,0,7.44-7.453v-.059a7.449,7.449,0,0,0-7.44-7.453H1430.542a1.49,1.49,0,0,1,0-2.981h550.422a10.435,10.435,0,0,1,10.415,10.433v.059a10.436,10.436,0,0,1-10.415,10.433H1439.274a7.438,7.438,0,0,0-.03,14.875h346.07a10.418,10.418,0,0,1,0,20.837Z" transform="translate(-1428.859 -1295)" fill="#3b2f45"/>
        </g>
      </g>
      <g id="Untitled-1" transform="translate(242.972 198.232)">
        <g id="Grupo_32907" data-name="Grupo 32907" transform="translate(38.995 8.414)">
          <path id="path868_1_" d="M193.41,52.628c2.1,0,3.772-1.759,3.772-4.387a3.735,3.735,0,0,0-3.772-4.027c-2.183,0-3.327,1.929-3.327,4.26-.021,2.649,1.547,4.154,3.327,4.154Zm9.452,2.5c0,6.994-3.391,9.261-10.279,9.261a19.892,19.892,0,0,1-6.506-1.081l.3-4.641a11.658,11.658,0,0,0,5.764,1.4c3.412,0,5.235-1.611,5.235-4.938v-.911h-.064a6.629,6.629,0,0,1-5.722,2.9c-4.684,0-7.587-3.539-7.587-8.562,0-5.065,2.395-8.859,7.693-8.859a6.649,6.649,0,0,1,5.786,3.476h.064V40.081h5.319V55.128Z" transform="translate(-184 -39.7)" fill="#fff"/>
          <path id="path870_1_" d="M362.067,58.854h6.549L374.783,41.9h-5.722l-3.476,12.059h-.064L362.067,41.9H355.9Z" transform="translate(-319.47 -41.434)" fill="#fff"/>
          <path id="path872_1_" d="M287.048,48.88c0-2.543-1.1-4.768-3.815-4.768-2.691,0-3.793,2.246-3.793,4.768,0,2.5,1.1,4.747,3.793,4.747C285.946,53.627,287.048,51.381,287.048,48.88Zm-13.648,0c0-5.616,4.26-8.88,9.855-8.88s9.855,3.243,9.855,8.88c0,5.595-4.26,8.837-9.855,8.837S273.4,54.475,273.4,48.88Z" transform="translate(-254.454 -39.936)" fill="#fff"/>
        </g>
        <g id="Grupo_32908" data-name="Grupo 32908" transform="translate(0 0)">
          <path id="Caminho_7459" data-name="Caminho 7459" d="M107.58,52.946a14.844,14.844,0,0,1-4.9-.827A11.188,11.188,0,0,1,98.7,49.788l2.331-4.2c2.458,1.632,4.578,2.437,6.337,2.437.975,0,1.462-.276,1.462-.869a.768.768,0,0,0-.53-.7,12.948,12.948,0,0,0-1.95-.721q-.985-.35-1.589-.572c-.381-.148-.848-.318-1.335-.53a8.889,8.889,0,0,1-1.166-.551c-.276-.17-.593-.36-.911-.593a3.36,3.36,0,0,1-.742-.678,8.416,8.416,0,0,1-.509-.784,3.017,3.017,0,0,1-.339-.954,6.208,6.208,0,0,1-.085-1.123,5.986,5.986,0,0,1,2.183-4.811,8.878,8.878,0,0,1,5.934-1.844,11.285,11.285,0,0,1,7.545,2.734l-2.586,4.175c-2.2-1.356-3.963-2.035-5.235-2.035-1,0-1.5.339-1.5,1a.894.894,0,0,0,.509.805,9.408,9.408,0,0,0,1.907.678c1.06.318,1.907.615,2.586.869a14.533,14.533,0,0,1,1.929.89,5.3,5.3,0,0,1,1.42,1.081,4.143,4.143,0,0,1,.763,1.335,5.068,5.068,0,0,1,.276,1.78,5.7,5.7,0,0,1-2.1,4.662A8.972,8.972,0,0,1,107.58,52.946Z" transform="translate(-77.783 -26.243)" fill="#fff"/>
          <path id="path876_5_" d="M6.506,16.912c0,2.9,1.441,4.9,3.815,4.9,2.1,0,3.836-1.992,3.836-4.641,0-2.734-1.547-4.747-3.836-4.747C7.863,12.4,6.506,14.5,6.506,16.912ZM20.451,0V26.216H14.644V22.973h-.064c-.805,2.035-3.348,3.666-6.252,3.666C2.9,26.639,0,22.146,0,16.785c0-4.408,2.755-9.2,7.8-9.2a7.455,7.455,0,0,1,6.252,2.755h.064V0Z" fill="#fff"/>
        </g>
      </g>
      <g id="Grupo_33203" data-name="Grupo 33203" transform="translate(3 69.646)">
        <path id="Caminho_8017" data-name="Caminho 8017" d="M410.478,394.626h2.837l-9.646-88.521-8.512-6.62-15.888-12.673-52.394-41.423-41.423-.189-8.133,10.4L263.51,287.569l-.189,25.346-.568,66.769-11.727,71.309L248,475.582c30.264,41.991,168.531,19.293,168.531,2.27s-5.485-77.361-5.485-77.361Z" transform="translate(-190.056 -135.116)" fill="#1e2bb1"/>
        <path id="Caminho_8018" data-name="Caminho 8018" d="M320.894,353.4,309.545,308l-47.287,30.263L244.29,320.105,217.431,374.58s-3.972,47.287,50.124,23.644C298.007,385.172,320.894,353.4,320.894,353.4Z" transform="translate(-217.366 -79.132)" fill="#1e2bb1"/>
        <path id="Caminho_8019" data-name="Caminho 8019" d="M321.662,385.05l5.107-30.642-5.864-48.989L291.4,267.4l-46.53,88.9-.378-.378L217.631,410.4s-3.972,47.287,50.124,23.643C322.04,410.4,321.662,385.05,321.662,385.05Z" transform="translate(-217.187 -115.325)" fill="#1e2bb1"/>
        <g id="Grupo_33190" data-name="Grupo 33190" transform="translate(166.211 134.238)">
          <rect id="Retângulo_1706" data-name="Retângulo 1706" width="3.026" height="64.689" transform="matrix(0.975, -0.22, 0.22, 0.975, 0, 0.667)" fill="#4976ff"/>
        </g>
        <path id="Caminho_8020" data-name="Caminho 8020" d="M343.78,298.883s-80.388-7.188-84.36-18.537c-.378-1.324,1.891-27.237,1.891-27.237s13.619-19.293,47.476-15.7C375.746,244.6,343.78,298.883,343.78,298.883Z" transform="translate(-179.913 -142.458)" fill="#c6eafd"/>
        <path id="Caminho_8021" data-name="Caminho 8021" d="M340.692,277.927s-1.513-.189-4.161-.378c-8.323-.946-27.426-3.026-41.612-6.431-3.972-.946-23.076-4.918-27.426-7-22.32-10.781,12.294-30.453,35.56-27.8,15.888,1.7,28.372,6.242,33.668,10.4C352.23,258.634,340.692,277.927,340.692,277.927Z" transform="translate(-179.095 -143.254)" fill="#4976ff"/>
        <circle id="Elipse_304" data-name="Elipse 304" cx="24.967" cy="24.967" r="24.967" transform="translate(112.797 19.671)" fill="#0f174d"/>
        <path id="Caminho_8022" data-name="Caminho 8022" d="M320.312,224.689v62.986c-8.323-.946-27.426-3.026-41.612-6.431V224.5h41.612Z" transform="translate(-162.688 -153.57)" fill="#ed7666"/>
        <path id="Caminho_8023" data-name="Caminho 8023" d="M312.824,241.915,287.1,238.7l25.724,15.7Z" transform="translate(-155.199 -140.911)"/>
        <path id="Caminho_8024" data-name="Caminho 8024" d="M320.356,279.82,279.5,272.633V228.94c0-15.889,13.619-28.94,30.264-28.94h0c16.645,0,30.263,12.862,30.263,28.94v34.425C339.838,275.47,331.516,282.09,320.356,279.82Z" transform="translate(-161.974 -175.411)" fill="#ed7666"/>
        <circle id="Elipse_305" data-name="Elipse 305" cx="8.701" cy="8.701" r="8.701" transform="translate(131.523 60.905)" fill="#c75450"/>
        <path id="Caminho_8025" data-name="Caminho 8025" d="M294.923,234.909H277.9V214.1a10.5,10.5,0,0,1,10.4-10.4h6.62Z" transform="translate(-163.401 -172.112)" fill="#0f174d"/>
        <circle id="Elipse_306" data-name="Elipse 306" cx="13.808" cy="13.808" r="13.808" transform="translate(94.929 68.336) rotate(-45)" fill="#ed7666"/>
        <path id="Caminho_8026" data-name="Caminho 8026" d="M289.143,220.2s.189,12.862,5.107,18.536,19.293,3.026,19.293,3.026a16.773,16.773,0,0,0,8.323,4.729c5.674,1.135,6.62-4.539,6.62-4.539l2.459-2.459s14,14,1.891,21.374c-16.078,10.025-37.64.189-43.882-6.62-6.053-6.809-4.35-34.046-4.35-34.046Z" transform="translate(-157.621 -157.403)" fill="#0f174d"/>
        <path id="Caminho_8027" data-name="Caminho 8027" d="M315.59,219.678v15.7a5.235,5.235,0,0,1-1.7.189c-3.972,0-7.188-3.594-7.188-8.133s3.215-8.133,7.188-8.133C314.455,219.489,315.022,219.489,315.59,219.678Z" transform="translate(-137.726 -158.205)" fill="#c75450"/>
        <g id="Grupo_33192" data-name="Grupo 33192" transform="translate(146.276 59.374)">
          <path id="Caminho_8028" data-name="Caminho 8028" d="M300,221.048a2.648,2.648,0,1,1-2.648-2.648A2.586,2.586,0,0,1,300,221.048Z" transform="translate(-294.7 -218.382)" fill="#0f174d"/>
          <path id="Caminho_8029" data-name="Caminho 8029" d="M312.6,221.056a2.648,2.648,0,1,1-2.648-2.648A2.481,2.481,0,0,1,312.6,221.056Z" transform="translate(-283.467 -218.39)" fill="#0f174d"/>
          <g id="Grupo_33191" data-name="Grupo 33191" transform="translate(12.484 10.043)">
            <path id="Caminho_8030" data-name="Caminho 8030" d="M306.6,229.185h-5.3v-2.27h5.485V223.7h2.27v2.837a2.71,2.71,0,0,1-.757,1.891A3.4,3.4,0,0,1,306.6,229.185Z" transform="translate(-301.3 -223.7)" fill="#0f174d"/>
          </g>
        </g>
        <path id="Caminho_8031" data-name="Caminho 8031" d="M283.889,222.23h5.485a8.678,8.678,0,0,0,8.7-8.7V200.1H283.7v22.13Z" transform="translate(-158.23 -175.322)" fill="#0f174d"/>
        <ellipse id="Elipse_307" data-name="Elipse 307" cx="23.454" cy="21.185" rx="23.454" ry="21.185" transform="translate(132.468)" fill="#0f174d"/>
        <g id="Grupo_33193" data-name="Grupo 33193" transform="translate(189.327 151.507)">
          <path id="Caminho_8032" data-name="Caminho 8032" d="M347.231,360.917c-9.647-38.208-13.051-64.121-13.808-81.144L317.535,267.1c-.567,17.591,1.891,47.854,14.564,97.6.946,3.594,1.892,7,2.648,10.4H351.2Q349.217,368.294,347.231,360.917Z" transform="translate(-317.46 -267.1)" fill="#0f174d"/>
        </g>
        <g id="Grupo_33194" data-name="Grupo 33194" transform="translate(43.38 227.923)">
          <path id="Caminho_8033" data-name="Caminho 8033" d="M292.315,309.959,290.8,307.5l-50.5,31.588h5.674Z" transform="translate(-240.3 -307.5)" fill="#0f174d"/>
        </g>
        <g id="Grupo_33195" data-name="Grupo 33195" transform="translate(135.198 142.745)">
          <rect id="Retângulo_1707" data-name="Retângulo 1707" width="3.026" height="55.419" transform="translate(0 0.51) rotate(-9.695)" fill="#4976ff"/>
        </g>
        <ellipse id="Elipse_308" data-name="Elipse 308" cx="11.916" cy="5.107" rx="11.916" ry="5.107" transform="translate(140.789 83.149) rotate(-29.518)" fill="#0f174d"/>
        <ellipse id="Elipse_309" data-name="Elipse 309" cx="4.918" cy="11.159" rx="4.918" ry="11.159" transform="translate(158.649 80.202) rotate(-61.359)" fill="#0f174d"/>
        <path id="Caminho_8034" data-name="Caminho 8034" d="M334.5,347.362c7.755,13.43,26.292,38.208,54.1,25.913,16.834-7.566,16.834-20.806,11.727-33.1-11.349-9.268-28.372-19.482-53.15-30.074C347.173,310.1,353.793,344.9,334.5,347.362Z" transform="translate(-112.943 -77.259)" fill="#1e2bb1"/>
        <path id="Caminho_8035" data-name="Caminho 8035" d="M384.118,340.764,330.4,277.4l2.459,48.233c9.457,6.431,18.158,13.619,18.158,13.619,24.778,10.592,41.8,20.806,53.15,30.074C397.736,354.194,384.118,340.764,384.118,340.764Z" transform="translate(-116.598 -106.411)" fill="#1e2bb1"/>
        <path id="União_1" data-name="União 1" d="M31.637,60.378H28.044C12.911,59.431,4.4,42.03,1.374,26.331q-.284-1.7-.568-3.4a61.183,61.183,0,0,1-.756-11.35A7.754,7.754,0,0,0,.238,9.5,21.438,21.438,0,0,1,1.374,3.822Q9.058,7.482,18.09,11.56,9.023,7.437,1.185,3.633A17.569,17.569,0,0,1,2.13,1.742c3.026-4.729,14,.945,24.022,7.755l17.969,13.43q-7.873-3.31-15.023-6.451,7.254,3.2,15.212,6.64h0c.041.215,6.56,34.81-12.672,37.261Zm0,0a83.44,83.44,0,0,1-3.957-7.907A63.388,63.388,0,0,0,31.637,60.378Z" transform="translate(189.92 209.725)" fill="#ed7666"/>
        <path id="Caminho_8039" data-name="Caminho 8039" d="M349.758,316.519s-8.512-7.187-18.158-13.619h0Z" transform="translate(-115.528 -83.678)" fill="#ed7666"/>
        <path id="Caminho_8040" data-name="Caminho 8040" d="M384.118,340.764,330.4,277.4l2.459,48.233c9.457,6.431,18.158,13.619,18.158,13.619,24.778,10.592,41.8,20.806,53.15,30.074C397.736,354.194,384.118,340.764,384.118,340.764Z" transform="translate(-116.598 -106.411)" fill="#1e2bb1"/>
        <path id="Caminho_8041" data-name="Caminho 8041" d="M334.5,347.362c7.755,13.43,26.292,38.208,54.1,25.913,16.834-7.566,16.834-20.806,11.727-33.1-11.349-9.268-28.372-19.482-53.15-30.074C347.173,310.1,353.793,344.9,334.5,347.362Z" transform="translate(-112.943 -77.259)" fill="#1e2bb1"/>
        <g id="Grupo_33196" data-name="Grupo 33196" transform="translate(189.969 219.222)">
          <path id="Caminho_8042" data-name="Caminho 8042" d="M317.8,304.98l12.673,9.457,1.135-1.324L317.989,302.9C317.989,303.467,317.8,304.224,317.8,304.98Z" transform="translate(-317.8 -302.9)" fill="#0f174d"/>
        </g>
        <g id="Grupo_33197" data-name="Grupo 33197" transform="translate(190.726 232.651)">
          <path id="Caminho_8043" data-name="Caminho 8043" d="M318.2,310l.567,3.4,7.944,9.457,1.324-1.135Z" transform="translate(-318.2 -310)" fill="#0f174d"/>
        </g>
        <g id="Grupo_33198" data-name="Grupo 33198" transform="translate(69.861 144.13)">
          <path id="Caminho_8044" data-name="Caminho 8044" d="M261.3,263.2l-7,14.186c.378.189,36.505,19.671,36.694,101h15.7C306.694,286.276,263.19,264.146,261.3,263.2Z" transform="translate(-254.3 -263.2)" fill="#0f174d"/>
        </g>
        <g id="Grupo_33199" data-name="Grupo 33199" transform="translate(39.693 243.936)">
          <rect id="Retângulo_1708" data-name="Retângulo 1708" width="3.026" height="20.995" transform="translate(0 2.941) rotate(-76.338)" fill="#0f174d"/>
        </g>
        <g id="Grupo_33200" data-name="Grupo 33200" transform="translate(105.988 256.862)">
          <path id="Caminho_8045" data-name="Caminho 8045" d="M276.8,323.178l-2.837-.378a13.259,13.259,0,0,1-.567,2.648h3.026A9.5,9.5,0,0,0,276.8,323.178Z" transform="translate(-273.4 -322.8)" fill="#ba874a"/>
        </g>
        <path id="Caminho_8046" data-name="Caminho 8046" d="M308.727,321.55c.189-1.135.378-2.27.567-3.216a73.947,73.947,0,0,0,.757-10.781,7.76,7.76,0,0,0-.189-2.081,16.607,16.607,0,0,0-1.891-7.377c-5.674-8.89-40.1,20.239-40.1,20.239a30.945,30.945,0,0,0,1.135,32.155c10.781,17.023,10.214,13.051,10.214,13.051C300.026,356.731,306.836,331.763,308.727,321.55Z" transform="translate(-175.88 -89.466)" fill="#ed7666"/>
        <g id="Grupo_33201" data-name="Grupo 33201" transform="translate(121.309 216.006)">
          <path id="Caminho_8047" data-name="Caminho 8047" d="M294.362,303.281l-11.916,9.079-.946-1.324,12.862-9.836Z" transform="translate(-281.5 -301.2)" fill="#0f174d"/>
        </g>
        <g id="Grupo_33202" data-name="Grupo 33202" transform="translate(123.957 228.868)">
          <path id="Caminho_8048" data-name="Caminho 8048" d="M292.357,308c-.189,1.135-.378,2.27-.568,3.215l-7.566,8.89-1.324-1.135Z" transform="translate(-282.9 -308)" fill="#0f174d"/>
        </g>
      </g>
    </g>
  </g>
</svg>
