<svg xmlns="http://www.w3.org/2000/svg" xmlns:xlink="http://www.w3.org/1999/xlink" width="464" height="308" viewBox="0 0 464 308">
  <defs>
    <clipPath id="clip-ilustra-download_p">
      <rect width="464" height="308"/>
    </clipPath>
  </defs>
  <g id="ilustra-download_p" clip-path="url(#clip-ilustra-download_p)">
    <g id="_.ilustra-download" data-name=".ilustra-download" transform="translate(-5251 -1215)">
      <rect id="Retângulo_1725" data-name="Retângulo 1725" width="464" height="308" transform="translate(5251 1215)" fill="none"/>
      <g id="_.ilustra-download-2" data-name=".ilustra-download" transform="translate(5287 1239)">
        <path id="Caminho_7770" data-name="Caminho 7770" d="M47.5,12.024C23.841,47.844,19.786,51.9,8.972,68.12s-20.763,45.958,26.791,63.53,88.781,0,98.243-20.276-9.462-48.662-17.572-64.882S71.151-23.8,47.5,12.024Z" transform="matrix(-0.799, 0.602, -0.602, -0.799, 246.48, 178.509)" fill="#a6dae8"/>
        <path id="Caminho_8318" data-name="Caminho 8318" d="M66.483,16.831C33.371,66.971,27.7,72.647,12.559,95.352s-29.063,64.331,37.5,88.928,124.273,0,137.518-28.381-13.245-68.115-24.6-90.821S99.595-33.31,66.483,16.831Z" transform="matrix(0.996, -0.087, 0.087, 0.996, 142.773, 59.107)" fill="#a6dae8"/>
        <g id="Grupo_33485" data-name="Grupo 33485" transform="translate(214.958 110.683)">
          <rect id="Area_SIZE:LARGE_STATE:DEFAULT_STYLE:STYLE2_" data-name="Area [SIZE:LARGE][STATE:DEFAULT][STYLE:STYLE2]" width="39.432" height="39.432" rx="19.716" transform="translate(0)" fill="#fff"/>
          <g id="Grupo_32920" data-name="Grupo 32920" transform="translate(11.299 9.365)">
            <g id="surface1">
              <path id="Caminho_66" data-name="Caminho 66" d="M11.668.16a.5.5,0,0,0-.36-.16H3.223A2.735,2.735,0,0,0,.5,2.718V18.006a2.735,2.735,0,0,0,2.723,2.718H14.2a2.735,2.735,0,0,0,2.723-2.718V5.867a.539.539,0,0,0-.145-.35Zm.145,1.607,3.419,3.589H13.01a1.192,1.192,0,0,1-1.2-1.191ZM14.2,19.723H3.223A1.734,1.734,0,0,1,1.5,18.006V2.718A1.734,1.734,0,0,1,3.223,1h7.589V4.165a2.19,2.19,0,0,0,2.2,2.193h2.908V18.006A1.731,1.731,0,0,1,14.2,19.723Zm0,0" transform="translate(-0.5 0)" fill="#333" stroke="#333" stroke-width="0.5"/>
              <path id="Caminho_67" data-name="Caminho 67" d="M97.912,401.934h-8.24a.5.5,0,1,0,0,1h8.245a.5.5,0,1,0-.005-1Zm0,0" transform="translate(-85.583 -385.665)" fill="#333" stroke="#333" stroke-width="0.5"/>
              <path id="Caminho_68" data-name="Caminho 68" d="M121.69,177.876a.5.5,0,0,0,.731,0l2.933-3.149a.5.5,0,0,0-.731-.681l-2.067,2.218V170.8a.5.5,0,1,0-1,0v5.466l-2.062-2.218a.5.5,0,0,0-.731.681Zm0,0" transform="translate(-113.846 -163.404)" fill="#333" stroke="#333" stroke-width="0.5"/>
            </g>
          </g>
        </g>
        <g id="Grupo_33487" data-name="Grupo 33487" transform="translate(53.822 0)" style="mix-blend-mode: hard-light;isolation: isolate">
          <g id="Grupo_33356" data-name="Grupo 33356" transform="translate(72.346 81.911)">
            <path id="Caminho_8279" data-name="Caminho 8279" d="M2120.155,651.2H1986.687a6.688,6.688,0,0,0-6.688,6.688V742.91a6.688,6.688,0,0,0,6.688,6.688h51.171v10.13h-9.771a2.64,2.64,0,0,0-2.636,2.636v5.146a.888.888,0,0,0,.9.9h53.592a.888.888,0,0,0,.9-.9v-5.146a2.64,2.64,0,0,0-2.636-2.636h-9.772V749.6h51.709a6.688,6.688,0,0,0,6.688-6.688V657.888A6.661,6.661,0,0,0,2120.155,651.2Zm-138.344,6.688a4.9,4.9,0,0,1,4.895-4.895h133.468a4.9,4.9,0,0,1,4.895,4.895v81.042H1981.811Zm84.86,101.858H2061.6a.9.9,0,1,0,0,1.793h16.638a.841.841,0,0,1,.843.843v4.249h-51.8v-4.249a.842.842,0,0,1,.843-.843h16.639a.9.9,0,0,0,0-1.793h-5.074V749.6h27v10.148Zm58.379-16.836a4.9,4.9,0,0,1-4.9,4.895H1986.687a4.9,4.9,0,0,1-4.895-4.895v-2.187H2125.05Z" transform="translate(-1980 -651.2)" fill="#3b2f45"/>
          </g>
          <g id="Grupo_33358" data-name="Grupo 33358" transform="translate(133.27 50.65)">
            <path id="Caminho_8281" data-name="Caminho 8281" d="M2384.594,626a1.1,1.1,0,0,0-1.094,1.094,1.11,1.11,0,0,0,1.094,1.094,1.1,1.1,0,0,0,1.094-1.094A1.11,1.11,0,0,0,2384.594,626Z" transform="translate(-2372.079 -598.657)" fill="#3b2f45"/>
            <path id="Caminho_8282" data-name="Caminho 8282" d="M2366.493,626a1.1,1.1,0,0,0-1.094,1.094,1.11,1.11,0,0,0,1.094,1.094,1.094,1.094,0,1,0,0-2.187Z" transform="translate(-2357.224 -598.657)" fill="#3b2f45"/>
            <path id="Caminho_8283" data-name="Caminho 8283" d="M2402.594,626a1.1,1.1,0,0,0-1.094,1.094,1.11,1.11,0,0,0,1.094,1.094,1.094,1.094,0,0,0,0-2.187Z" transform="translate(-2386.851 -598.657)" fill="#3b2f45"/>
            <path id="Caminho_8285" data-name="Caminho 8285" d="M2372.939,522.9a3.64,3.64,0,1,0,3.64,3.64A3.642,3.642,0,0,0,2372.939,522.9Z" transform="translate(-2360.425 -514.043)" fill="#3b2f45"/>
            <path id="Caminho_8286" data-name="Caminho 8286" d="M2338.949,496.575a12.5,12.5,0,1,0-13.3,0L2321.5,505.9a.9.9,0,0,0,.448,1.183.908.908,0,0,0,1.183-.466l4.088-9.2a12.421,12.421,0,0,0,10.113,0l4.088,9.2a.9.9,0,0,0,.825.538.8.8,0,0,0,.359-.072.886.886,0,0,0,.448-1.183ZM2321.611,486a10.7,10.7,0,1,1,10.7,10.7A10.72,10.72,0,0,1,2321.611,486Z" transform="translate(-2319.8 -473.5)" fill="#3b2f45"/>
          </g>
          <g id="Grupo_33359" data-name="Grupo 33359" transform="translate(258.045 73.825)">
            <path id="Caminho_8313" data-name="Caminho 8313" d="M3085.853,649.92a3.886,3.886,0,0,0-1.973.556L3057.506,624.1l2.564-2.564a.889.889,0,0,0,0-1.273l-4.321-4.321,2.384-2.385a.916.916,0,0,0,.269-.627.841.841,0,0,0-.269-.628l-4-4a.913.913,0,0,0-.627-.269.841.841,0,0,0-.627.269l-2.384,2.385-4.321-4.321a.912.912,0,0,0-.627-.269.84.84,0,0,0-.627.269l-6.258,6.257-22.412,9.646a.9.9,0,0,0-.52.663.907.907,0,0,0,.25.807l26.787,26.787a.913.913,0,0,0,.627.269.5.5,0,0,0,.162-.018.931.931,0,0,0,.663-.52l9.646-22.412,2.42-2.42,26.375,26.374a3.713,3.713,0,0,0-.556,1.972,3.887,3.887,0,0,0,.556,1.972l-24.922,24.922a3.714,3.714,0,0,0-1.972-.556,3.8,3.8,0,0,0-.9,7.495v34.443h-17.876a2.64,2.64,0,0,0-2.636,2.636v5.863a.888.888,0,0,0,.9.9h41.023a.888.888,0,0,0,.9-.9v-5.863a2.64,2.64,0,0,0-2.636-2.636h-17.875V687.608a3.806,3.806,0,0,0,2.9-3.693,3.881,3.881,0,0,0-.555-1.972l24.922-24.922a3.714,3.714,0,0,0,1.972.556,3.8,3.8,0,0,0,3.8-3.8A3.9,3.9,0,0,0,3085.853,649.92Zm-32.363-39.732,2.725,2.725-1.757,1.757-1.022-1.022-1.7-1.7Zm-10.453,38.1-24.9-24.9,20.8-8.947L3052,627.508Zm13.2-25.442-6.329-6.329a.9.9,0,0,0-1.273,1.273l6.329,6.329-1.919,1.918-12.658-12.658,5.11-5.11,4.787,4.787,3.532,3.532h0l4.321,4.321Zm18.235,100.961a.841.841,0,0,1,.842.843v4.967H3036.08V724.65a.842.842,0,0,1,.843-.843Z" transform="translate(-3015.715 -606.1)" fill="#3b2f45"/>
          </g>
          <g id="Grupo_33360" data-name="Grupo 33360" transform="translate(231.865 156.947)">
            <path id="Caminho_8314" data-name="Caminho 8314" d="M2911.691,1078.934h-11.224V1070.6a.888.888,0,0,0-.9-.9H2870.6a.888.888,0,0,0-.9.9v35.554a5.724,5.724,0,0,0,5.719,5.719h19.328a5.724,5.724,0,0,0,5.719-5.719v-3.837a12.445,12.445,0,0,0,12.121-12.336V1079.83A.9.9,0,0,0,2911.691,1078.934Zm-13.017,27.235a3.926,3.926,0,0,1-3.927,3.927h-19.328a3.925,3.925,0,0,1-3.926-3.927v-34.658h27.181Zm12.12-16.19a10.634,10.634,0,0,1-10.328,10.542v-19.812h10.328Z" transform="translate(-2869.699 -1069.7)" fill="#3b2f45"/>
          </g>
          <g id="Grupo_33361" data-name="Grupo 33361" transform="translate(191.38 0)">
            <path id="Caminho_8315" data-name="Caminho 8315" d="M2848.808,188.1a23.308,23.308,0,1,0,23.308,23.308A23.331,23.331,0,0,0,2848.808,188.1Zm0,44.824a21.515,21.515,0,1,1,21.515-21.515A21.532,21.532,0,0,1,2848.808,232.924Z" transform="translate(-2821.018 -183.618)" fill="#3b2f45"/>
            <path id="Caminho_8316" data-name="Caminho 8316" d="M2918.575,269.367a.9.9,0,1,0-1.273-1.273l-4.214,4.213a2.451,2.451,0,0,0-2.008,0l-6.938-6.939a.9.9,0,0,0-1.273,1.273l6.939,6.939a2.342,2.342,0,0,0-.215,1,2.492,2.492,0,1,0,4.984,0,2.352,2.352,0,0,0-.215-1Z" transform="translate(-2884.294 -246.812)" fill="#3b2f45"/>
            <path id="Caminho_8317" data-name="Caminho 8317" d="M2828.291,163.1a27.791,27.791,0,1,0,27.791,27.791A27.815,27.815,0,0,0,2828.291,163.1Zm0,53.789a26,26,0,1,1,26-26A26.017,26.017,0,0,1,2828.291,216.889Z" transform="translate(-2800.5 -163.1)" fill="#3b2f45"/>
          </g>
          <g id="Grupo_33486" data-name="Grupo 33486" transform="translate(0 197.342)">
            <path id="Caminho_8280" data-name="Caminho 8280" d="M1643.637,1329.066h-82.924a.9.9,0,0,1,0-1.793h82.924a4.473,4.473,0,0,0,0-8.947H1435.116a6.266,6.266,0,1,1,.018-12.533h326.389a4.484,4.484,0,0,0,4.483-4.482v-.036a4.484,4.484,0,0,0-4.483-4.483H1429.873a.9.9,0,0,1,0-1.793h331.651a6.282,6.282,0,0,1,6.276,6.276v.036a6.282,6.282,0,0,1-6.276,6.275H1435.134a4.473,4.473,0,0,0-.018,8.947h208.521a6.266,6.266,0,0,1,0,12.533Z" transform="translate(-1428.859 -1295)" fill="#3b2f45"/>
          </g>
        </g>
        <g id="Untitled-1" transform="translate(146.403 119.07)">
          <g id="Grupo_32907" data-name="Grupo 32907" transform="translate(23.454 5.06)">
            <path id="path868_1_" d="M189.66,47.476a2.4,2.4,0,0,0,2.269-2.639,2.246,2.246,0,0,0-2.269-2.422c-1.313,0-2,1.16-2,2.562-.013,1.593.931,2.5,2,2.5Zm5.685,1.5c0,4.206-2.04,5.57-6.182,5.57a11.964,11.964,0,0,1-3.913-.65l.178-2.792a7.012,7.012,0,0,0,3.467.841c2.052,0,3.148-.969,3.148-2.97v-.548h-.038a3.987,3.987,0,0,1-3.442,1.746c-2.817,0-4.563-2.129-4.563-5.15,0-3.046,1.44-5.328,4.627-5.328a4,4,0,0,1,3.48,2.09h.038V39.929h3.2v9.05Z" transform="translate(-184 -39.7)" fill="#fff"/>
            <path id="path870_1_" d="M359.609,52.1h3.939l3.709-10.2h-3.442l-2.09,7.253h-.038L359.609,41.9H355.9Z" transform="translate(-333.988 -41.62)" fill="#fff"/>
            <path id="path872_1_" d="M281.609,45.341c0-1.53-.663-2.868-2.294-2.868s-2.282,1.351-2.282,2.868.663,2.855,2.282,2.855S281.609,46.845,281.609,45.341Zm-8.209,0c0-3.378,2.562-5.341,5.927-5.341s5.927,1.95,5.927,5.341c0,3.365-2.562,5.315-5.927,5.315S273.4,48.706,273.4,45.341Z" transform="translate(-262.004 -39.962)" fill="#fff"/>
          </g>
          <g id="Grupo_32908" data-name="Grupo 32908" transform="translate(0 0)">
            <path id="Caminho_7459" data-name="Caminho 7459" d="M104.041,45.116a8.928,8.928,0,0,1-2.945-.5,6.729,6.729,0,0,1-2.4-1.4l1.4-2.524a7.278,7.278,0,0,0,3.811,1.466c.586,0,.88-.166.88-.523a.462.462,0,0,0-.319-.421,7.789,7.789,0,0,0-1.173-.433q-.593-.21-.956-.344c-.229-.089-.51-.191-.8-.319a5.347,5.347,0,0,1-.7-.331c-.166-.1-.357-.217-.548-.357a2.021,2.021,0,0,1-.446-.408,5.061,5.061,0,0,1-.306-.472,1.814,1.814,0,0,1-.2-.574,3.733,3.733,0,0,1-.051-.676,3.6,3.6,0,0,1,1.313-2.894,5.34,5.34,0,0,1,3.569-1.109,6.788,6.788,0,0,1,4.538,1.644l-1.555,2.511A6.712,6.712,0,0,0,104,36.232c-.6,0-.905.2-.905.6a.538.538,0,0,0,.306.484,5.659,5.659,0,0,0,1.147.408c.637.191,1.147.37,1.555.523a8.741,8.741,0,0,1,1.16.535,3.184,3.184,0,0,1,.854.65,2.492,2.492,0,0,1,.459.8,3.048,3.048,0,0,1,.166,1.071,3.426,3.426,0,0,1-1.262,2.8A5.4,5.4,0,0,1,104.041,45.116Z" transform="translate(-86.119 -29.055)" fill="#fff"/>
            <path id="path876_5_" d="M3.913,10.172c0,1.746.867,2.945,2.294,2.945a2.56,2.56,0,0,0,2.307-2.792c0-1.644-.931-2.855-2.307-2.855C4.729,7.457,3.913,8.719,3.913,10.172ZM12.3,0V15.768H8.808v-1.95H8.77a4.036,4.036,0,0,1-3.76,2.205C1.746,16.023,0,13.32,0,10.1,0,7.444,1.657,4.563,4.691,4.563A4.484,4.484,0,0,1,8.451,6.22h.038V0Z" transform="translate(0)" fill="#fff"/>
          </g>
        </g>
        <g id="Grupo_33203" data-name="Grupo 33203" transform="translate(0 41.565)">
          <path id="Caminho_8017" data-name="Caminho 8017" d="M345.725,335.076h1.706l-5.8-53.243-5.12-3.982-9.556-7.622-31.513-24.915-24.915-.114-4.892,6.257-8.3,19.226-.114,15.245-.341,40.16-7.053,42.89L248,383.768c18.2,25.256,101.366,11.6,101.366,1.365s-3.3-46.531-3.3-46.531Z" transform="translate(-213.148 -178.988)" fill="#1e2bb1"/>
          <path id="Caminho_8018" data-name="Caminho 8018" d="M279.635,335.3,272.809,308l-28.442,18.2L233.56,315.281,217.4,348.046s-2.389,28.442,30.148,14.221C265.869,354.417,279.635,335.3,279.635,335.3Z" transform="translate(-217.366 -170.342)" fill="#1e2bb1"/>
          <path id="Caminho_8019" data-name="Caminho 8019" d="M280.176,338.163l3.072-18.43-3.527-29.466L261.974,267.4l-27.987,53.47-.227-.228L217.6,353.407s-2.389,28.442,30.148,14.221C280.4,353.407,280.176,338.163,280.176,338.163Z" transform="translate(-217.338 -175.932)" fill="#1e2bb1"/>
          <g id="Grupo_33190" data-name="Grupo 33190" transform="translate(99.971 80.74)">
            <rect id="Retângulo_1706" data-name="Retângulo 1706" width="1.82" height="38.909" transform="matrix(0.975, -0.22, 0.22, 0.975, 0, 0.401)" fill="#4976ff"/>
          </g>
          <path id="Caminho_8020" data-name="Caminho 8020" d="M310.143,274.207s-48.351-4.323-50.74-11.149c-.228-.8,1.138-16.382,1.138-16.382s8.191-11.6,28.555-9.443C329.369,241.556,310.143,274.207,310.143,274.207Z" transform="translate(-211.582 -180.122)" fill="#c6eafd"/>
          <path id="Caminho_8021" data-name="Caminho 8021" d="M308.651,261.246s-.91-.114-2.5-.228c-5.006-.569-16.5-1.82-25.029-3.868-2.389-.569-13.88-2.958-16.5-4.209-13.425-6.485,7.395-18.316,21.388-16.724,9.556,1.024,17.065,3.754,20.25,6.257C315.591,249.642,308.651,261.246,308.651,261.246Z" transform="translate(-211.456 -180.244)" fill="#4976ff"/>
          <circle id="Elipse_304" data-name="Elipse 304" cx="15.017" cy="15.017" r="15.017" transform="translate(67.844 11.832)" fill="#0f174d"/>
          <path id="Caminho_8022" data-name="Caminho 8022" d="M303.729,224.614V262.5c-5.006-.569-16.5-1.82-25.029-3.868V224.5h25.029Z" transform="translate(-208.922 -181.837)" fill="#ed7666"/>
          <path id="Caminho_8023" data-name="Caminho 8023" d="M302.572,240.634,287.1,238.7l15.472,9.443Z" transform="translate(-207.765 -179.883)"/>
          <path id="Caminho_8024" data-name="Caminho 8024" d="M304.074,248.009,279.5,243.686v-26.28c0-9.556,8.191-17.406,18.2-17.406h0c10.011,0,18.2,7.736,18.2,17.406v20.705C315.791,245.393,310.786,249.375,304.074,248.009Z" transform="translate(-208.812 -185.21)" fill="#ed7666"/>
          <circle id="Elipse_305" data-name="Elipse 305" cx="5.233" cy="5.233" r="5.233" transform="translate(79.107 36.633)" fill="#c75450"/>
          <path id="Caminho_8025" data-name="Caminho 8025" d="M288.139,222.471H277.9V209.957a6.313,6.313,0,0,1,6.257-6.257h3.982Z" transform="translate(-209.032 -184.701)" fill="#0f174d"/>
          <circle id="Elipse_306" data-name="Elipse 306" cx="8.305" cy="8.305" r="8.305" transform="translate(57.097 41.102) rotate(-45)" fill="#ed7666"/>
          <path id="Caminho_8026" data-name="Caminho 8026" d="M287.246,220.2s.114,7.736,3.072,11.149,11.6,1.82,11.6,1.82a10.089,10.089,0,0,0,5.006,2.844,3.27,3.27,0,0,0,3.982-2.73l1.479-1.479s8.419,8.419,1.138,12.856c-9.67,6.03-22.64.114-26.394-3.982-3.641-4.1-2.617-20.478-2.617-20.478Z" transform="translate(-208.14 -182.43)" fill="#0f174d"/>
          <path id="Caminho_8027" data-name="Caminho 8027" d="M312.047,219.527v9.443a3.149,3.149,0,0,1-1.024.114,4.929,4.929,0,0,1,0-9.784C311.364,219.414,311.706,219.414,312.047,219.527Z" transform="translate(-205.067 -182.553)" fill="#c75450"/>
          <g id="Grupo_33192" data-name="Grupo 33192" transform="translate(87.981 35.712)">
            <path id="Caminho_8028" data-name="Caminho 8028" d="M297.885,219.993a1.593,1.593,0,1,1-1.593-1.593A1.555,1.555,0,0,1,297.885,219.993Z" transform="translate(-294.7 -218.389)" fill="#0f174d"/>
            <path id="Caminho_8029" data-name="Caminho 8029" d="M310.485,219.994a1.593,1.593,0,1,1-1.593-1.593A1.492,1.492,0,0,1,310.485,219.994Z" transform="translate(-292.965 -218.39)" fill="#0f174d"/>
            <g id="Grupo_33191" data-name="Grupo 33191" transform="translate(7.509 6.04)">
              <path id="Caminho_8030" data-name="Caminho 8030" d="M304.485,227H301.3v-1.365h3.3V223.7h1.365v1.707a1.63,1.63,0,0,1-.455,1.138A2.045,2.045,0,0,1,304.485,227Z" transform="translate(-301.3 -223.7)" fill="#0f174d"/>
            </g>
          </g>
          <path id="Caminho_8031" data-name="Caminho 8031" d="M283.814,213.411h3.3a5.219,5.219,0,0,0,5.233-5.233V200.1H283.7v13.311Z" transform="translate(-208.234 -185.197)" fill="#0f174d"/>
          <ellipse id="Elipse_307" data-name="Elipse 307" cx="14.107" cy="12.742" rx="14.107" ry="12.742" transform="translate(79.676)" fill="#0f174d"/>
          <g id="Grupo_33193" data-name="Grupo 33193" transform="translate(113.875 91.127)">
            <path id="Caminho_8032" data-name="Caminho 8032" d="M335.367,323.528c-5.8-22.981-7.85-38.567-8.3-48.806l-9.556-7.622c-.341,10.58,1.138,28.783,8.76,58.7.569,2.161,1.138,4.209,1.593,6.257h9.9Q336.561,327.965,335.367,323.528Z" transform="translate(-317.46 -267.1)" fill="#0f174d"/>
          </g>
          <g id="Grupo_33194" data-name="Grupo 33194" transform="translate(26.092 137.089)">
            <path id="Caminho_8033" data-name="Caminho 8033" d="M271.586,308.979l-.91-1.479-30.376,19h3.413Z" transform="translate(-240.3 -307.5)" fill="#0f174d"/>
          </g>
          <g id="Grupo_33195" data-name="Grupo 33195" transform="translate(81.318 85.857)">
            <rect id="Retângulo_1707" data-name="Retângulo 1707" width="1.82" height="33.333" transform="translate(0 0.307) rotate(-9.695)" fill="#4976ff"/>
          </g>
          <ellipse id="Elipse_308" data-name="Elipse 308" cx="7.167" cy="3.072" rx="7.167" ry="3.072" transform="translate(84.68 50.011) rotate(-29.518)" fill="#0f174d"/>
          <ellipse id="Elipse_309" data-name="Elipse 309" cx="2.958" cy="6.712" rx="2.958" ry="6.712" transform="translate(95.423 48.239) rotate(-61.359)" fill="#0f174d"/>
          <path id="Caminho_8034" data-name="Caminho 8034" d="M334.5,332.512c4.664,8.078,15.814,22.981,32.537,15.586,10.125-4.551,10.125-12.514,7.054-19.909-6.826-5.574-17.065-11.718-31.968-18.089C342.122,310.1,346.1,331.033,334.5,332.512Z" transform="translate(-201.24 -170.053)" fill="#1e2bb1"/>
          <path id="Caminho_8035" data-name="Caminho 8035" d="M362.71,315.512,330.4,277.4l1.479,29.011c5.688,3.868,10.922,8.191,10.922,8.191,14.9,6.371,25.142,12.514,31.968,18.089C370.9,323.589,362.71,315.512,362.71,315.512Z" transform="translate(-201.805 -174.555)" fill="#1e2bb1"/>
          <path id="União_1" data-name="União 1" d="M19.029,36.315H16.867C7.766,35.746,2.646,25.28.826,15.837Q.656,14.814.485,13.79A36.8,36.8,0,0,1,.03,6.963,4.664,4.664,0,0,0,.143,5.712,12.894,12.894,0,0,1,.826,2.3Q5.448,4.5,10.881,6.953,5.427,4.473.712,2.185a10.567,10.567,0,0,1,.569-1.137C3.1-1.8,9.7,1.616,15.73,5.712L26.537,13.79Q21.8,11.8,17.5,9.91q4.363,1.928,9.15,3.994h0c.025.13,3.946,20.937-7.622,22.411Zm0,0a50.187,50.187,0,0,1-2.38-4.756A38.126,38.126,0,0,0,19.029,36.315Z" transform="translate(114.231 126.143)" fill="#ed7666"/>
          <path id="Caminho_8039" data-name="Caminho 8039" d="M342.522,311.091S337.4,306.768,331.6,302.9h0Z" transform="translate(-201.639 -171.044)" fill="#ed7666"/>
          <path id="Caminho_8040" data-name="Caminho 8040" d="M362.71,315.512,330.4,277.4l1.479,29.011c5.688,3.868,10.922,8.191,10.922,8.191,14.9,6.371,25.142,12.514,31.968,18.089C370.9,323.589,362.71,315.512,362.71,315.512Z" transform="translate(-201.805 -174.555)" fill="#1e2bb1"/>
          <path id="Caminho_8041" data-name="Caminho 8041" d="M334.5,332.512c4.664,8.078,15.814,22.981,32.537,15.586,10.125-4.551,10.125-12.514,7.054-19.909-6.826-5.574-17.065-11.718-31.968-18.089C342.122,310.1,346.1,331.033,334.5,332.512Z" transform="translate(-201.24 -170.053)" fill="#1e2bb1"/>
          <g id="Grupo_33196" data-name="Grupo 33196" transform="translate(114.261 131.855)">
            <path id="Caminho_8042" data-name="Caminho 8042" d="M317.8,304.151l7.622,5.688.683-.8-8.191-6.143C317.914,303.241,317.8,303.7,317.8,304.151Z" transform="translate(-317.8 -302.9)" fill="#0f174d"/>
          </g>
          <g id="Grupo_33197" data-name="Grupo 33197" transform="translate(114.716 139.933)">
            <path id="Caminho_8043" data-name="Caminho 8043" d="M318.2,310l.341,2.048,4.778,5.688.8-.683Z" transform="translate(-318.2 -310)" fill="#0f174d"/>
          </g>
          <g id="Grupo_33198" data-name="Grupo 33198" transform="translate(42.019 86.69)">
            <path id="Caminho_8044" data-name="Caminho 8044" d="M258.509,263.2l-4.209,8.533c.227.114,21.957,11.832,22.071,60.751h9.443C285.813,277.079,259.647,263.769,258.509,263.2Z" transform="translate(-254.3 -263.2)" fill="#0f174d"/>
          </g>
          <g id="Grupo_33199" data-name="Grupo 33199" transform="translate(23.874 146.72)">
            <rect id="Retângulo_1708" data-name="Retângulo 1708" width="1.82" height="12.628" transform="translate(0 1.769) rotate(-76.338)" fill="#0f174d"/>
          </g>
          <g id="Grupo_33200" data-name="Grupo 33200" transform="translate(63.748 154.495)">
            <path id="Caminho_8045" data-name="Caminho 8045" d="M275.448,323.027l-1.706-.228a7.977,7.977,0,0,1-.341,1.593h1.82A5.715,5.715,0,0,0,275.448,323.027Z" transform="translate(-273.4 -322.8)" fill="#ba874a"/>
          </g>
          <path id="Caminho_8046" data-name="Caminho 8046" d="M290.862,311.53c.114-.683.228-1.365.341-1.934a44.475,44.475,0,0,0,.455-6.485,4.668,4.668,0,0,0-.114-1.251,9.99,9.99,0,0,0-1.138-4.437c-3.413-5.347-24.118,12.173-24.118,12.173a18.612,18.612,0,0,0,.683,19.34c6.485,10.239,6.143,7.85,6.143,7.85C285.629,332.69,289.725,317.673,290.862,311.53Z" transform="translate(-210.959 -171.938)" fill="#ed7666"/>
          <g id="Grupo_33201" data-name="Grupo 33201" transform="translate(72.964 129.921)">
            <path id="Caminho_8047" data-name="Caminho 8047" d="M289.236,302.451l-7.167,5.461-.569-.8,7.736-5.916Z" transform="translate(-281.5 -301.2)" fill="#0f174d"/>
          </g>
          <g id="Grupo_33202" data-name="Grupo 33202" transform="translate(74.556 137.658)">
            <path id="Caminho_8048" data-name="Caminho 8048" d="M288.588,308c-.114.683-.228,1.365-.341,1.934l-4.551,5.347-.8-.683Z" transform="translate(-282.9 -308)" fill="#0f174d"/>
          </g>
        </g>
      </g>
    </g>
  </g>
</svg>
