<svg xmlns="http://www.w3.org/2000/svg" xmlns:xlink="http://www.w3.org/1999/xlink" width="558" height="371" viewBox="0 0 558 371">
  <defs>
    <clipPath id="clip-ilustra-download_m">
      <rect width="558" height="371"/>
    </clipPath>
  </defs>
  <g id="ilustra-download_m" clip-path="url(#clip-ilustra-download_m)">
    <g id="_.ilustra-download" data-name=".ilustra-download">
      <path id="Caminho_7770" data-name="Caminho 7770" d="M67.477,17.082c-33.607,50.89-39.368,56.651-54.731,79.7s-29.5,65.293,38.062,90.258,126.131,0,139.574-28.806S176.939,89.1,165.417,66.052,101.084-33.808,67.477,17.082Z" transform="matrix(-0.799, 0.602, -0.602, -0.799, 350.176, 254.212)" fill="#a6dae8"/>
      <path id="Caminho_8318" data-name="Caminho 8318" d="M94.453,23.911c-47.042,71.235-55.106,79.3-76.611,111.556s-41.29,91.4,53.278,126.341,176.555,0,195.372-40.322-18.817-96.772-34.946-129.029S141.5-47.324,94.453,23.911Z" transform="matrix(0.996, -0.087, 0.087, 0.996, 202.839, 84.577)" fill="#a6dae8"/>
      <g id="Grupo_33485" data-name="Grupo 33485" transform="translate(305.392 157.55)">
        <rect id="Area_SIZE:LARGE_STATE:DEFAULT_STYLE:STYLE2_" data-name="Area [SIZE:LARGE][STATE:DEFAULT][STYLE:STYLE2]" width="56.021" height="56.021" rx="28.01" transform="translate(0)" fill="#fff"/>
        <g id="Grupo_32920" data-name="Grupo 32920" transform="translate(16.053 13.305)">
          <g id="surface1">
            <path id="Caminho_66" data-name="Caminho 66" d="M16.366.228A.712.712,0,0,0,15.854,0H4.369A3.885,3.885,0,0,0,.5,3.862V25.581a3.885,3.885,0,0,0,3.869,3.862H19.958a3.885,3.885,0,0,0,3.869-3.862V8.335a.765.765,0,0,0-.206-.5Zm.206,2.283,4.857,5.1H18.272a1.694,1.694,0,0,1-1.7-1.693Zm3.385,25.51H4.369a2.463,2.463,0,0,1-2.446-2.44V3.862A2.463,2.463,0,0,1,4.369,1.422H15.15V5.917a3.111,3.111,0,0,0,3.122,3.115H22.4V25.581A2.459,2.459,0,0,1,19.958,28.021Zm0,0" transform="translate(-0.5 0)" fill="#333" stroke="#333" stroke-width="0.5"/>
            <path id="Caminho_67" data-name="Caminho 67" d="M101.589,401.934H89.883a.711.711,0,1,0,0,1.422H101.6a.711.711,0,1,0-.007-1.422Zm0,0" transform="translate(-84.073 -378.821)" fill="#333" stroke="#333" stroke-width="0.5"/>
            <path id="Caminho_68" data-name="Caminho 68" d="M122.979,181.064a.706.706,0,0,0,1.038,0l4.168-4.473a.709.709,0,0,0-1.038-.967l-2.937,3.15v-7.766a.711.711,0,1,0-1.422,0v7.766l-2.93-3.15a.709.709,0,0,0-1.038.967Zm0,0" transform="translate(-111.835 -160.504)" fill="#333" stroke="#333" stroke-width="0.5"/>
          </g>
        </g>
      </g>
      <g id="Grupo_33487" data-name="Grupo 33487" transform="translate(76.466 0)" style="mix-blend-mode: hard-light;isolation: isolate">
        <g id="Grupo_33356" data-name="Grupo 33356" transform="translate(102.782 116.975)">
          <path id="Caminho_8279" data-name="Caminho 8279" d="M2179.119,651.2H1989.5a9.5,9.5,0,0,0-9.5,9.5V781.493a9.5,9.5,0,0,0,9.5,9.5h72.7v14.392h-13.882a3.751,3.751,0,0,0-3.745,3.745v7.311a1.261,1.261,0,0,0,1.273,1.274h76.138a1.261,1.261,0,0,0,1.274-1.274V809.13a3.751,3.751,0,0,0-3.745-3.745H2105.63V790.994h73.463a9.5,9.5,0,0,0,9.5-9.5V660.7A9.463,9.463,0,0,0,2179.119,651.2Zm-196.547,9.5a6.963,6.963,0,0,1,6.954-6.954h189.618a6.963,6.963,0,0,1,6.954,6.954V775.838H1982.573Zm120.562,144.71h-7.208a1.274,1.274,0,1,0,0,2.547h23.638a1.2,1.2,0,0,1,1.2,1.2v6.037h-73.59v-6.037a1.2,1.2,0,0,1,1.2-1.2h23.639a1.274,1.274,0,0,0,0-2.547H2064.8V790.994h38.362v14.417Zm82.939-23.919a6.963,6.963,0,0,1-6.954,6.954H1989.5a6.963,6.963,0,0,1-6.954-6.954v-3.108h203.526Z" transform="translate(-1980 -651.2)" fill="#3b2f45"/>
        </g>
        <g id="Grupo_33358" data-name="Grupo 33358" transform="translate(189.338 72.114)">
          <path id="Caminho_8281" data-name="Caminho 8281" d="M2385.054,626a1.56,1.56,0,0,0-1.554,1.554,1.577,1.577,0,0,0,1.554,1.554,1.56,1.56,0,0,0,1.554-1.554A1.577,1.577,0,0,0,2385.054,626Z" transform="translate(-2367.274 -587.154)" fill="#3b2f45"/>
          <path id="Caminho_8282" data-name="Caminho 8282" d="M2366.954,626a1.56,1.56,0,0,0-1.554,1.554,1.577,1.577,0,0,0,1.554,1.554,1.554,1.554,0,1,0,0-3.108Z" transform="translate(-2353.784 -587.154)" fill="#3b2f45"/>
          <path id="Caminho_8283" data-name="Caminho 8283" d="M2403.054,626a1.56,1.56,0,0,0-1.554,1.554,1.577,1.577,0,0,0,1.554,1.554,1.554,1.554,0,0,0,0-3.108Z" transform="translate(-2380.689 -587.154)" fill="#3b2f45"/>
          <path id="Caminho_8285" data-name="Caminho 8285" d="M2374.471,522.9a5.171,5.171,0,1,0,5.171,5.171A5.175,5.175,0,0,0,2374.471,522.9Z" transform="translate(-2356.691 -510.316)" fill="#3b2f45"/>
          <path id="Caminho_8286" data-name="Caminho 8286" d="M2347,506.283a17.754,17.754,0,1,0-18.9,0l-5.884,13.246a1.279,1.279,0,0,0,.636,1.681,1.291,1.291,0,0,0,1.682-.662l5.808-13.067a17.646,17.646,0,0,0,14.367,0l5.808,13.067a1.272,1.272,0,0,0,1.172.764,1.14,1.14,0,0,0,.51-.1,1.258,1.258,0,0,0,.637-1.681Zm-24.632-15.029a15.207,15.207,0,1,1,15.207,15.207A15.23,15.23,0,0,1,2322.373,491.254Z" transform="translate(-2319.8 -473.5)" fill="#3b2f45"/>
        </g>
        <g id="Grupo_33359" data-name="Grupo 33359" transform="translate(366.606 105.487)">
          <path id="Caminho_8313" data-name="Caminho 8313" d="M3115.36,668.355a5.518,5.518,0,0,0-2.8.79l-37.47-37.47,3.643-3.643a1.262,1.262,0,0,0,0-1.809l-6.139-6.139,3.388-3.388a1.3,1.3,0,0,0,.382-.891,1.2,1.2,0,0,0-.382-.892l-5.681-5.68a1.3,1.3,0,0,0-.891-.382,1.2,1.2,0,0,0-.892.382l-3.387,3.388-6.14-6.139a1.294,1.294,0,0,0-.891-.382,1.194,1.194,0,0,0-.892.382l-8.89,8.89-31.841,13.7a1.275,1.275,0,0,0-.738.942,1.289,1.289,0,0,0,.356,1.146l38.057,38.056a1.3,1.3,0,0,0,.892.382.707.707,0,0,0,.229-.026,1.322,1.322,0,0,0,.942-.739l13.7-31.841,3.438-3.439,37.471,37.47a5.276,5.276,0,0,0-.79,2.8,5.519,5.519,0,0,0,.79,2.8l-35.407,35.407a5.277,5.277,0,0,0-2.8-.79,5.4,5.4,0,0,0-1.274,10.648v48.933h-25.4a3.751,3.751,0,0,0-3.745,3.744v8.329a1.261,1.261,0,0,0,1.274,1.274h58.281a1.261,1.261,0,0,0,1.273-1.274v-8.329a3.751,3.751,0,0,0-3.745-3.744h-25.4V721.9a5.407,5.407,0,0,0,4.126-5.247,5.518,5.518,0,0,0-.789-2.8l35.407-35.407a5.276,5.276,0,0,0,2.8.79,5.4,5.4,0,0,0,5.4-5.4A5.534,5.534,0,0,0,3115.36,668.355Zm-45.979-56.447,3.872,3.872-2.5,2.5-1.452-1.452-2.42-2.42Zm-14.85,54.129-35.382-35.381,29.548-12.711,18.57,18.57Zm18.748-36.146-8.991-8.992a1.279,1.279,0,0,0-1.809,1.809l8.992,8.992-2.726,2.726-17.983-17.984,7.26-7.26,6.8,6.8L3069.84,621h0l6.139,6.139Zm25.906,143.436a1.2,1.2,0,0,1,1.2,1.2v7.056h-55.734v-7.056a1.2,1.2,0,0,1,1.2-1.2Z" transform="translate(-3015.715 -606.1)" fill="#3b2f45"/>
        </g>
        <g id="Grupo_33360" data-name="Grupo 33360" transform="translate(329.412 223.578)">
          <path id="Caminho_8314" data-name="Caminho 8314" d="M2929.357,1082.818H2913.41v-11.845a1.261,1.261,0,0,0-1.273-1.274h-41.164a1.261,1.261,0,0,0-1.274,1.274v50.512a8.132,8.132,0,0,0,8.126,8.126h27.459a8.131,8.131,0,0,0,8.125-8.126v-5.451a17.68,17.68,0,0,0,17.22-17.525v-14.418A1.277,1.277,0,0,0,2929.357,1082.818Zm-18.493,38.693a5.577,5.577,0,0,1-5.579,5.578h-27.459a5.577,5.577,0,0,1-5.578-5.578v-49.239h38.617Zm17.219-23a15.108,15.108,0,0,1-14.673,14.978V1085.34h14.673Z" transform="translate(-2869.699 -1069.7)" fill="#3b2f45"/>
        </g>
        <g id="Grupo_33361" data-name="Grupo 33361" transform="translate(271.895 0)">
          <path id="Caminho_8315" data-name="Caminho 8315" d="M2858.614,188.1a33.114,33.114,0,1,0,33.115,33.114A33.146,33.146,0,0,0,2858.614,188.1Zm0,63.682a30.567,30.567,0,1,1,30.567-30.567A30.591,30.591,0,0,1,2858.614,251.782Z" transform="translate(-2819.131 -181.732)" fill="#3b2f45"/>
          <path id="Caminho_8316" data-name="Caminho 8316" d="M2925.3,271.162a1.279,1.279,0,0,0-1.809-1.809l-5.986,5.986a3.482,3.482,0,0,0-2.853,0l-9.858-9.858a1.279,1.279,0,0,0-1.808,1.809l9.858,9.858a3.326,3.326,0,0,0-.306,1.426,3.541,3.541,0,1,0,7.081,0,3.341,3.341,0,0,0-.305-1.426Z" transform="translate(-2876.592 -239.118)" fill="#3b2f45"/>
          <path id="Caminho_8317" data-name="Caminho 8317" d="M2839.982,163.1a39.483,39.483,0,1,0,39.482,39.483A39.517,39.517,0,0,0,2839.982,163.1Zm0,76.418a36.935,36.935,0,1,1,36.935-36.935A36.962,36.962,0,0,1,2839.982,239.518Z" transform="translate(-2800.5 -163.1)" fill="#3b2f45"/>
        </g>
        <g id="Grupo_33486" data-name="Grupo 33486" transform="translate(0 280.968)">
          <path id="Caminho_8280" data-name="Caminho 8280" d="M1734,1343.4H1616.184a1.274,1.274,0,1,1,0-2.547H1734a6.355,6.355,0,0,0,0-12.711H1437.749a8.9,8.9,0,1,1,.026-17.805h463.7a6.371,6.371,0,0,0,6.368-6.368v-.051a6.371,6.371,0,0,0-6.368-6.368H1430.3a1.274,1.274,0,0,1,0-2.547h471.178a8.925,8.925,0,0,1,8.916,8.916v.051a8.925,8.925,0,0,1-8.916,8.915h-463.7a6.355,6.355,0,0,0-.026,12.711H1734a8.9,8.9,0,0,1,0,17.805Z" transform="translate(-1428.859 -1295)" fill="#3b2f45"/>
        </g>
      </g>
      <g id="Untitled-1" transform="translate(207.995 169.461)">
        <g id="Grupo_32907" data-name="Grupo 32907" transform="translate(33.322 7.189)">
          <path id="path868_1_" d="M192.041,50.747c1.793,0,3.224-1.5,3.224-3.749a3.192,3.192,0,0,0-3.224-3.441c-1.865,0-2.843,1.648-2.843,3.64-.018,2.264,1.322,3.549,2.843,3.549Zm8.077,2.137c0,5.976-2.9,7.914-8.783,7.914a17,17,0,0,1-5.56-.924l.254-3.966a9.962,9.962,0,0,0,4.926,1.2c2.916,0,4.473-1.376,4.473-4.22v-.779h-.054a5.665,5.665,0,0,1-4.89,2.481c-4,0-6.483-3.024-6.483-7.316,0-4.328,2.046-7.57,6.574-7.57a5.682,5.682,0,0,1,4.944,2.97h.054V40.026h4.546V52.884Z" transform="translate(-184 -39.7)" fill="#fff"/>
          <path id="path870_1_" d="M361.17,56.388h5.6l5.27-14.488h-4.89l-2.97,10.3h-.054L361.17,41.9H355.9Z" transform="translate(-324.77 -41.502)" fill="#fff"/>
          <path id="path872_1_" d="M285.063,47.588c0-2.173-.942-4.075-3.26-4.075-2.3,0-3.242,1.92-3.242,4.075,0,2.137.942,4.057,3.242,4.057C284.121,51.644,285.063,49.725,285.063,47.588Zm-11.663,0c0-4.8,3.64-7.588,8.421-7.588s8.421,2.771,8.421,7.588c0,4.781-3.64,7.552-8.421,7.552S273.4,52.369,273.4,47.588Z" transform="translate(-257.21 -39.946)" fill="#fff"/>
        </g>
        <g id="Grupo_32908" data-name="Grupo 32908" transform="translate(0 0)">
          <path id="Caminho_7459" data-name="Caminho 7459" d="M106.288,50.088a12.685,12.685,0,0,1-4.183-.706,9.561,9.561,0,0,1-3.4-1.992l1.992-3.586a10.34,10.34,0,0,0,5.415,2.083c.833,0,1.25-.235,1.25-.742a.656.656,0,0,0-.453-.6,11.064,11.064,0,0,0-1.666-.616q-.842-.3-1.358-.489c-.326-.127-.724-.272-1.141-.453a7.6,7.6,0,0,1-1-.471c-.235-.145-.507-.308-.779-.507a2.871,2.871,0,0,1-.634-.579,7.19,7.19,0,0,1-.435-.67,2.578,2.578,0,0,1-.29-.815,5.3,5.3,0,0,1-.072-.96,5.115,5.115,0,0,1,1.865-4.111,7.586,7.586,0,0,1,5.071-1.576,9.643,9.643,0,0,1,6.447,2.336L110.707,39.2a9.536,9.536,0,0,0-4.473-1.739c-.851,0-1.286.29-1.286.851a.764.764,0,0,0,.435.688,8.039,8.039,0,0,0,1.63.58c.905.272,1.63.525,2.209.742a12.418,12.418,0,0,1,1.648.761,4.524,4.524,0,0,1,1.213.924,3.54,3.54,0,0,1,.652,1.141,4.331,4.331,0,0,1,.235,1.521,4.867,4.867,0,0,1-1.793,3.984A7.667,7.667,0,0,1,106.288,50.088Z" transform="translate(-80.826 -27.27)" fill="#fff"/>
          <path id="path876_5_" d="M5.56,14.451c0,2.481,1.231,4.183,3.26,4.183,1.793,0,3.278-1.7,3.278-3.966,0-2.336-1.322-4.057-3.278-4.057C6.719,10.594,5.56,12.387,5.56,14.451ZM17.476,0V22.4H12.514V19.631h-.054a5.735,5.735,0,0,1-5.342,3.133C2.481,22.764,0,18.924,0,14.343c0-3.767,2.354-7.86,6.664-7.86a6.37,6.37,0,0,1,5.342,2.354h.054V0Z" transform="translate(0)" fill="#fff"/>
        </g>
      </g>
      <g id="Grupo_33203" data-name="Grupo 33203" transform="translate(0 59.655)">
        <path id="Caminho_8017" data-name="Caminho 8017" d="M386.839,372.887h2.424l-8.243-75.642-7.273-5.657L360.17,280.758l-44.771-35.4L280,245.2l-6.95,8.89-11.8,27.315-.162,21.658-.485,57.055-10.021,60.934L248,442.064c25.861,35.882,144.011,16.486,144.011,1.94s-4.687-66.106-4.687-66.106Z" transform="translate(-198.486 -151.132)" fill="#1e2bb1"/>
        <path id="Caminho_8018" data-name="Caminho 8018" d="M305.832,346.791,296.134,308,255.727,333.86l-15.355-15.516-22.951,46.549s-3.394,40.407,42.832,20.2C286.275,373.944,305.832,346.791,305.832,346.791Z" transform="translate(-217.366 -112.429)" fill="#1e2bb1"/>
        <path id="Caminho_8019" data-name="Caminho 8019" d="M306.517,367.933l4.364-26.184-5.011-41.862L280.656,267.4,240.9,343.365l-.323-.323-22.951,46.549s-3.394,40.407,42.832,20.2C306.84,389.591,306.517,367.933,306.517,367.933Z" transform="translate(-217.242 -137.45)" fill="#1e2bb1"/>
        <g id="Grupo_33190" data-name="Grupo 33190" transform="translate(142.029 114.708)">
          <rect id="Retângulo_1706" data-name="Retângulo 1706" width="2.586" height="55.278" transform="matrix(0.975, -0.22, 0.22, 0.975, 0, 0.57)" fill="#4976ff"/>
        </g>
        <path id="Caminho_8020" data-name="Caminho 8020" d="M331.5,289.875s-68.692-6.142-72.086-15.84c-.323-1.131,1.616-23.275,1.616-23.275s11.637-16.486,40.569-13.415C358.815,243.487,331.5,289.875,331.5,289.875Z" transform="translate(-191.474 -156.208)" fill="#c6eafd"/>
        <path id="Caminho_8021" data-name="Caminho 8021" d="M329,271.837s-1.293-.162-3.556-.323c-7.112-.808-23.436-2.586-35.558-5.5-3.394-.808-19.719-4.2-23.436-5.98-19.072-9.213,10.506-26.022,30.386-23.759,13.577,1.455,24.244,5.334,28.77,8.89C338.855,255.351,329,271.837,329,271.837Z" transform="translate(-190.909 -156.758)" fill="#4976ff"/>
        <circle id="Elipse_304" data-name="Elipse 304" cx="21.335" cy="21.335" r="21.335" transform="translate(96.386 16.809)" fill="#0f174d"/>
        <path id="Caminho_8022" data-name="Caminho 8022" d="M314.258,224.661v53.822c-7.112-.808-23.436-2.586-35.558-5.5V224.5h35.558Z" transform="translate(-179.566 -163.889)" fill="#ed7666"/>
        <path id="Caminho_8023" data-name="Caminho 8023" d="M309.081,241.448,287.1,238.7l21.982,13.415Z" transform="translate(-174.389 -155.138)"/>
        <path id="Caminho_8024" data-name="Caminho 8024" d="M314.412,268.207,279.5,262.065V224.729c0-13.577,11.637-24.729,25.861-24.729h0c14.223,0,25.86,10.991,25.86,24.729v29.416C331.059,264.49,323.948,270.147,314.412,268.207Z" transform="translate(-179.073 -178.988)" fill="#ed7666"/>
        <circle id="Elipse_305" data-name="Elipse 305" cx="7.435" cy="7.435" r="7.435" transform="translate(112.388 52.044)" fill="#c75450"/>
        <path id="Caminho_8025" data-name="Caminho 8025" d="M292.447,230.369H277.9V212.59a8.968,8.968,0,0,1,8.89-8.89h5.657Z" transform="translate(-180.059 -176.708)" fill="#0f174d"/>
        <circle id="Elipse_306" data-name="Elipse 306" cx="11.799" cy="11.799" r="11.799" transform="translate(81.118 58.394) rotate(-45)" fill="#ed7666"/>
        <path id="Caminho_8026" data-name="Caminho 8026" d="M288.451,220.2s.162,10.991,4.364,15.84,16.486,2.586,16.486,2.586a14.333,14.333,0,0,0,7.112,4.041c4.849.97,5.657-3.879,5.657-3.879l2.1-2.1s11.961,11.961,1.616,18.264c-13.738,8.566-32.164.162-37.5-5.657-5.172-5.819-3.717-29.093-3.717-29.093Z" transform="translate(-176.063 -166.539)" fill="#0f174d"/>
        <path id="Caminho_8027" data-name="Caminho 8027" d="M314.3,219.623v13.415a4.474,4.474,0,0,1-1.455.162c-3.394,0-6.142-3.071-6.142-6.95s2.748-6.95,6.142-6.95C313.327,219.462,313.812,219.462,314.3,219.623Z" transform="translate(-162.31 -167.094)" fill="#c75450"/>
        <g id="Grupo_33192" data-name="Grupo 33192" transform="translate(124.995 50.736)">
          <path id="Caminho_8028" data-name="Caminho 8028" d="M299.225,220.663a2.263,2.263,0,1,1-2.263-2.263A2.209,2.209,0,0,1,299.225,220.663Z" transform="translate(-294.7 -218.385)" fill="#0f174d"/>
          <path id="Caminho_8029" data-name="Caminho 8029" d="M311.826,220.669a2.263,2.263,0,1,1-2.263-2.263A2.12,2.12,0,0,1,311.826,220.669Z" transform="translate(-286.935 -218.39)" fill="#0f174d"/>
          <g id="Grupo_33191" data-name="Grupo 33191" transform="translate(10.667 8.582)">
            <path id="Caminho_8030" data-name="Caminho 8030" d="M305.826,228.387H301.3v-1.94h4.687V223.7h1.94v2.424a2.316,2.316,0,0,1-.646,1.616A2.9,2.9,0,0,1,305.826,228.387Z" transform="translate(-301.3 -223.7)" fill="#0f174d"/>
          </g>
        </g>
        <path id="Caminho_8031" data-name="Caminho 8031" d="M283.862,219.011h4.687a7.415,7.415,0,0,0,7.435-7.435V200.1H283.7v18.911Z" transform="translate(-176.484 -178.927)" fill="#0f174d"/>
        <ellipse id="Elipse_307" data-name="Elipse 307" cx="20.042" cy="18.102" rx="20.042" ry="18.102" transform="translate(113.196)" fill="#0f174d"/>
        <g id="Grupo_33193" data-name="Grupo 33193" transform="translate(161.782 129.465)">
          <path id="Caminho_8032" data-name="Caminho 8032" d="M342.9,347.268c-8.243-32.649-11.152-54.792-11.8-69.339L317.524,267.1c-.485,15.031,1.616,40.892,12.445,83.4.808,3.071,1.616,5.98,2.263,8.89h14.062Q344.6,353.571,342.9,347.268Z" transform="translate(-317.46 -267.1)" fill="#0f174d"/>
        </g>
        <g id="Grupo_33194" data-name="Grupo 33194" transform="translate(37.069 194.763)">
          <path id="Caminho_8033" data-name="Caminho 8033" d="M284.748,309.6l-1.293-2.1L240.3,334.492h4.849Z" transform="translate(-240.3 -307.5)" fill="#0f174d"/>
        </g>
        <g id="Grupo_33195" data-name="Grupo 33195" transform="translate(115.529 121.977)">
          <rect id="Retângulo_1707" data-name="Retângulo 1707" width="2.586" height="47.356" transform="translate(0 0.435) rotate(-9.695)" fill="#4976ff"/>
        </g>
        <ellipse id="Elipse_308" data-name="Elipse 308" cx="10.183" cy="4.364" rx="10.183" ry="4.364" transform="translate(120.306 71.052) rotate(-29.518)" fill="#0f174d"/>
        <ellipse id="Elipse_309" data-name="Elipse 309" cx="4.202" cy="9.536" rx="4.202" ry="9.536" transform="translate(135.568 68.534) rotate(-61.359)" fill="#0f174d"/>
        <path id="Caminho_8034" data-name="Caminho 8034" d="M334.5,341.941c6.627,11.476,22.466,32.649,46.226,22.143,14.385-6.465,14.385-17.779,10.021-28.285-9.7-7.92-24.244-16.648-45.418-25.7C345.329,310.1,350.986,339.84,334.5,341.941Z" transform="translate(-145.177 -111.135)" fill="#1e2bb1"/>
        <path id="Caminho_8035" data-name="Caminho 8035" d="M376.3,331.546,330.4,277.4l2.1,41.215c8.081,5.5,15.516,11.637,15.516,11.637,21.173,9.051,35.72,17.779,45.418,25.7C387.94,343.021,376.3,331.546,376.3,331.546Z" transform="translate(-147.704 -131.287)" fill="#1e2bb1"/>
        <path id="União_1" data-name="União 1" d="M27.034,51.593H23.964C11.033,50.785,3.76,35.915,1.174,22.5Q.931,21.046.688,19.591a52.281,52.281,0,0,1-.646-9.7A6.626,6.626,0,0,0,.2,8.115a18.319,18.319,0,0,1,.97-4.849Q7.74,6.393,15.458,9.878,7.71,6.355,1.012,3.1A15.013,15.013,0,0,1,1.82,1.488c2.586-4.041,11.96.808,20.527,6.627L37.7,19.591q-6.728-2.828-12.837-5.512,6.2,2.739,13,5.674h0c.035.184,5.606,29.745-10.829,31.84Zm0,0a71.3,71.3,0,0,1-3.381-6.756A54.166,54.166,0,0,0,27.034,51.593Z" transform="translate(162.289 179.212)" fill="#ed7666"/>
        <path id="Caminho_8039" data-name="Caminho 8039" d="M347.116,314.537S339.843,308.4,331.6,302.9h0Z" transform="translate(-146.964 -115.572)" fill="#ed7666"/>
        <path id="Caminho_8040" data-name="Caminho 8040" d="M376.3,331.546,330.4,277.4l2.1,41.215c8.081,5.5,15.516,11.637,15.516,11.637,21.173,9.051,35.72,17.779,45.418,25.7C387.94,343.021,376.3,331.546,376.3,331.546Z" transform="translate(-147.704 -131.287)" fill="#1e2bb1"/>
        <path id="Caminho_8041" data-name="Caminho 8041" d="M334.5,341.941c6.627,11.476,22.466,32.649,46.226,22.143,14.385-6.465,14.385-17.779,10.021-28.285-9.7-7.92-24.244-16.648-45.418-25.7C345.329,310.1,350.986,339.84,334.5,341.941Z" transform="translate(-145.177 -111.135)" fill="#1e2bb1"/>
        <g id="Grupo_33196" data-name="Grupo 33196" transform="translate(162.331 187.328)">
          <path id="Caminho_8042" data-name="Caminho 8042" d="M317.8,304.678l10.829,8.081.97-1.131L317.962,302.9C317.962,303.385,317.8,304.031,317.8,304.678Z" transform="translate(-317.8 -302.9)" fill="#0f174d"/>
        </g>
        <g id="Grupo_33197" data-name="Grupo 33197" transform="translate(162.978 198.803)">
          <path id="Caminho_8043" data-name="Caminho 8043" d="M318.2,310l.485,2.909,6.788,8.082,1.131-.97Z" transform="translate(-318.2 -310)" fill="#0f174d"/>
        </g>
        <g id="Grupo_33198" data-name="Grupo 33198" transform="translate(59.697 123.161)">
          <path id="Caminho_8044" data-name="Caminho 8044" d="M260.28,263.2l-5.98,12.122c.323.162,31.194,16.809,31.356,86.31h13.415C299.071,282.919,261.9,264.008,260.28,263.2Z" transform="translate(-254.3 -263.2)" fill="#0f174d"/>
        </g>
        <g id="Grupo_33199" data-name="Grupo 33199" transform="translate(33.918 208.446)">
          <rect id="Retângulo_1708" data-name="Retângulo 1708" width="2.586" height="17.941" transform="translate(0 2.513) rotate(-76.338)" fill="#0f174d"/>
        </g>
        <g id="Grupo_33200" data-name="Grupo 33200" transform="translate(90.568 219.492)">
          <path id="Caminho_8045" data-name="Caminho 8045" d="M276.309,323.123l-2.424-.323a11.332,11.332,0,0,1-.485,2.263h2.586A8.119,8.119,0,0,0,276.309,323.123Z" transform="translate(-273.4 -322.8)" fill="#ba874a"/>
        </g>
        <path id="Caminho_8046" data-name="Caminho 8046" d="M302.205,317.892c.162-.97.323-1.94.485-2.748a63.187,63.187,0,0,0,.647-9.213,6.631,6.631,0,0,0-.162-1.778,14.192,14.192,0,0,0-1.616-6.3c-4.849-7.6-34.265,17.294-34.265,17.294a26.443,26.443,0,0,0,.97,27.477c9.213,14.546,8.728,11.152,8.728,11.152C294.77,347.955,300.589,326.62,302.205,317.892Z" transform="translate(-188.686 -119.573)" fill="#ed7666"/>
        <g id="Grupo_33201" data-name="Grupo 33201" transform="translate(103.66 184.58)">
          <path id="Caminho_8047" data-name="Caminho 8047" d="M292.491,302.978l-10.182,7.758L281.5,309.6l10.991-8.4Z" transform="translate(-281.5 -301.2)" fill="#0f174d"/>
        </g>
        <g id="Grupo_33202" data-name="Grupo 33202" transform="translate(105.923 195.571)">
          <path id="Caminho_8048" data-name="Caminho 8048" d="M290.981,308c-.162.97-.323,1.939-.485,2.748l-6.465,7.6-1.131-.97Z" transform="translate(-282.9 -308)" fill="#0f174d"/>
        </g>
      </g>
    </g>
  </g>
</svg>
