<svg xmlns="http://www.w3.org/2000/svg" xmlns:xlink="http://www.w3.org/1999/xlink" width="260" height="38" viewBox="0 0 260 38">
  <defs>
    <clipPath id="clip-logoSerpro_assinatura">
      <rect width="260" height="38"/>
    </clipPath>
  </defs>
  <g id="logoSerpro_assinatura" clip-path="url(#clip-logoSerpro_assinatura)">
    <rect width="260" height="38" fill="#fff"/>
    <path id="Caminho_8416" data-name="Caminho 8416" d="M242.9,198.808l1.9-4.741a14.548,14.548,0,0,0,2.318,1.37,4.782,4.782,0,0,0,1.9.421,2.1,2.1,0,0,0,.948-.211.911.911,0,0,0,.316-.632c0-.421-.632-.843-1.791-1.053a6.718,6.718,0,0,1-.948-.211,5.479,5.479,0,0,1-2.95-1.686,4.567,4.567,0,0,1-1.053-2.95,5.5,5.5,0,0,1,2-4.425,7.441,7.441,0,0,1,5.162-1.686,8.873,8.873,0,0,1,2.844.421,10.79,10.79,0,0,1,2.844,1.159l-1.9,4.425a7.377,7.377,0,0,0-1.791-.948,5.239,5.239,0,0,0-1.686-.316,2.1,2.1,0,0,0-.948.211.637.637,0,0,0-.316.632q0,.79,2.528,1.264a1.854,1.854,0,0,0,.632.105,5.406,5.406,0,0,1,2.739,1.58,4.791,4.791,0,0,1,1.054,2.95,5.918,5.918,0,0,1-2,4.635,7.968,7.968,0,0,1-5.268,1.791,9.4,9.4,0,0,1-3.371-.527c-.843-.527-2-.948-3.16-1.58m15.381,1.475V183.321h11.378v4.635h-5.373v1.686h4.846v4.319h-4.846v1.791h5.478v4.635H258.281Zm19.279-12.642v3.371h.948a1.943,1.943,0,0,0,1.37-.421,2.107,2.107,0,0,0,0-2.528,1.788,1.788,0,0,0-1.37-.421h-.948Zm-6,12.642V183.321h7.691A7.818,7.818,0,0,1,284.3,184.8a5.255,5.255,0,0,1,1.791,4.214,5.139,5.139,0,0,1-.843,2.95,3.55,3.55,0,0,1-2.423,1.37l4.53,6.953H280.51l-2.95-5.584v5.584Zm16.329,0V183.321h7.269c2.528,0,4.425.527,5.584,1.475s1.791,2.528,1.791,4.741a5.666,5.666,0,0,1-1.58,4.425c-1.053.948-2.739,1.37-5.057,1.37h-1.9v5.057h-6.11Zm6.11-12.326V190.8h.948a2.39,2.39,0,0,0,1.37-.316,1.221,1.221,0,0,0,.421-1.053,1.3,1.3,0,0,0-.527-1.053,2.346,2.346,0,0,0-1.37-.421Zm16.013-.316v3.371h.948a1.943,1.943,0,0,0,1.37-.421,2.107,2.107,0,0,0,0-2.528,1.788,1.788,0,0,0-1.37-.421h-.948Zm-6,12.642V183.321h7.691a7.818,7.818,0,0,1,5.057,1.475,5.255,5.255,0,0,1,1.791,4.214,5.138,5.138,0,0,1-.843,2.95,3.55,3.55,0,0,1-2.423,1.37l4.53,6.953h-6.848l-2.95-5.584v5.584Zm24.757-5.268a2.942,2.942,0,0,0,2.107-.843,3.4,3.4,0,0,0,.737-2.318,3.233,3.233,0,0,0-.737-2.318,2.569,2.569,0,0,0-2.107-.843,2.942,2.942,0,0,0-2.107.843,3.4,3.4,0,0,0-.737,2.318,3.233,3.233,0,0,0,.737,2.318,2.941,2.941,0,0,0,2.107.843m9.06-3.266a9.279,9.279,0,0,1-.632,3.477,8.419,8.419,0,0,1-1.9,2.844,7.9,7.9,0,0,1-2.95,1.9,10.464,10.464,0,0,1-7.164,0,8.838,8.838,0,0,1-2.95-1.9,8.42,8.42,0,0,1-1.9-2.844,9.876,9.876,0,0,1,0-6.953,8.42,8.42,0,0,1,1.9-2.844,7.9,7.9,0,0,1,2.95-1.9,10.464,10.464,0,0,1,7.164,0,8.837,8.837,0,0,1,2.95,1.9,8.419,8.419,0,0,1,1.9,2.844,9.279,9.279,0,0,1,.632,3.477" transform="translate(-77.82 -172.373)" fill="#00c"/>
    <g id="Grupo_33546" data-name="Grupo 33546" transform="translate(119.017)">
      <path id="Caminho_8417" data-name="Caminho 8417" d="M237.9,192.4a18.507,18.507,0,1,1-18.5-19,18.736,18.736,0,0,1,18.5,19" transform="translate(-200.9 -173.4)" fill="#00c"/>
      <path id="Caminho_8418" data-name="Caminho 8418" d="M220.616,198.46a7.686,7.686,0,0,1-11.1,0,5.226,5.226,0,0,1-.713-.843,13.658,13.658,0,0,0,1.833,2.423,11.532,11.532,0,0,0,16.807,0,13.55,13.55,0,0,0,2.241-3.16l-7.232-7.48a8.752,8.752,0,0,1-1.833,9.06" transform="translate(-200.477 -172.339)" fill="#fff"/>
      <path id="Caminho_8419" data-name="Caminho 8419" d="M217.366,184.865a7.686,7.686,0,0,1,11.1,0,5.229,5.229,0,0,1,.713.843,13.658,13.658,0,0,0-1.833-2.423,11.532,11.532,0,0,0-16.807,0,13.55,13.55,0,0,0-2.241,3.16l7.232,7.48a8.8,8.8,0,0,1,1.834-9.06" transform="translate(-200.504 -172.986)" fill="#fff"/>
    </g>
    <path id="Caminho_8420" data-name="Caminho 8420" d="M94.851,194.042h0l.105-6.532c0-.105,0-.105-.105-.105h-.843c-.105,0-.105,0-.105.105v4.53h0l-2.739-4.53c0-.105-.105-.105-.211-.105h-.948c-.105,0-.105,0-.105.105v6.426c0,.105,0,.105.105.105h.843c.105,0,.105,0,.105-.105v-4.53h0l2.739,4.53c0,.105.105.105.211.105h.948Zm4.319-2.318a1.811,1.811,0,0,1-.105.843.878.878,0,0,1-1.686,0,3.424,3.424,0,0,1,0-1.686.878.878,0,0,1,1.686,0,1.811,1.811,0,0,1,.105.843m.948,1.159a6.427,6.427,0,0,0,0-2.318,1.765,1.765,0,0,0-1.9-1.264,1.879,1.879,0,0,0-1.9,1.264,6.426,6.426,0,0,0,0,2.318,1.765,1.765,0,0,0,1.9,1.264,1.879,1.879,0,0,0,1.9-1.264m3.477,1.053,1.686-4.53c0-.105,0-.105-.105-.105h-.948c-.105,0-.105,0-.105.105l-1.053,3.055h0l-1.053-3.055a.1.1,0,0,0-.105-.105h-.948c-.105,0-.105,0-.105.105l1.686,4.53a.1.1,0,0,0,.105.105h.737c.211,0,.211,0,.211-.105m5.373-2.212a1.811,1.811,0,0,1-.105.843.878.878,0,0,1-1.686,0,3.424,3.424,0,0,1,0-1.686.878.878,0,0,1,1.686,0,1.811,1.811,0,0,1,.105.843m.948,1.159a6.427,6.427,0,0,0,0-2.318,1.765,1.765,0,0,0-1.9-1.264,1.879,1.879,0,0,0-1.9,1.264,6.427,6.427,0,0,0,0,2.318,1.765,1.765,0,0,0,1.9,1.264,1.879,1.879,0,0,0,1.9-1.264m4.741-3.687c0-.527.421-.843,1.054-.843a3.135,3.135,0,0,1,1.58.527h.105l.421-.737v-.105a3.56,3.56,0,0,0-2.107-.632,2,2,0,0,0-2.212,2c0,1.053.737,1.686,2,1.9h.316c.948.105,1.159.421,1.159.948s-.421.948-1.264.948a2.542,2.542,0,0,1-1.791-.737h-.105l-.632.737v.105a3.555,3.555,0,0,0,2.423.843c1.686,0,2.528-.843,2.528-2.107,0-1.159-.737-1.791-2-1.9h-.316c-.843-.211-1.159-.527-1.159-.948m7.48,2h0l-1.9.105a.1.1,0,0,1-.105-.105c0-.211,0-.316.105-.421a1.027,1.027,0,0,1,1.9,0v.421m.948.843c.105,0,.105,0,.105-.105a4.375,4.375,0,0,0-.105-1.37,1.765,1.765,0,0,0-1.9-1.264,1.879,1.879,0,0,0-1.9,1.264,3.6,3.6,0,0,0-.105,1.159,3.252,3.252,0,0,0,.211,1.159,1.816,1.816,0,0,0,2,1.264,2.178,2.178,0,0,0,1.9-.843V193.2l-.527-.527h-.105a1.4,1.4,0,0,1-1.053.421.945.945,0,0,1-1.053-.737c0-.105-.105-.211-.105-.316a.1.1,0,0,1,.105-.105h2.528Zm4.109-1.686.527-.632v-.105a1.569,1.569,0,0,0-.948-.421,1.379,1.379,0,0,0-1.264.632h0v-.421c0-.105,0-.105-.105-.105h-.948c-.105,0-.105,0-.105.105v4.53c0,.105,0,.105.105.105h.948c.105,0,.105,0,.105-.105v-2.528c0-.737.316-1.159.843-1.159a1.953,1.953,0,0,1,.737.211.1.1,0,0,0,.105-.105m4.319,1.37a1.811,1.811,0,0,1-.105.843.878.878,0,0,1-1.686,0,3.424,3.424,0,0,1,0-1.686.878.878,0,0,1,1.686,0c.105.105.105.421.105.843m.948,1.264a4.128,4.128,0,0,0,.211-1.37,2.685,2.685,0,0,0-.211-1.37,1.583,1.583,0,0,0-1.58-1.159,1.437,1.437,0,0,0-1.264.527h0V189.3c0-.105,0-.105-.105-.105h-.948c-.105,0-.105,0-.105.105v6.321c0,.105,0,.105.105.105h.948c.105,0,.105,0,.105-.105v-2.107h0a1.437,1.437,0,0,0,1.264.527,1.4,1.4,0,0,0,1.58-1.053m4.214-2.634.527-.632v-.105a1.569,1.569,0,0,0-.948-.421,1.379,1.379,0,0,0-1.264.632h0v-.421c0-.105,0-.105-.105-.105h-.948c-.105,0-.105,0-.105.105v4.53c0,.105,0,.105.105.105h.948c.105,0,.105,0,.105-.105v-2.528c0-.737.316-1.159.843-1.159a1.953,1.953,0,0,1,.737.211l.105-.105m4,1.37a1.811,1.811,0,0,1-.105.843.878.878,0,0,1-1.686,0,3.424,3.424,0,0,1,0-1.686.878.878,0,0,1,1.686,0,1.811,1.811,0,0,1,.105.843m.948,1.159a6.425,6.425,0,0,0,0-2.318,1.765,1.765,0,0,0-1.9-1.264,1.879,1.879,0,0,0-1.9,1.264,6.426,6.426,0,0,0,0,2.318,1.765,1.765,0,0,0,1.9,1.264,1.879,1.879,0,0,0,1.9-1.264m2.318,1.159h0l.105-1.053c0-.105,0-.105-.105-.105H143c-.105,0-.105,0-.105.105v.948c0,.105,0,.105.105.105Zm8.428,0h0l.105-6.532c0-.105,0-.105-.105-.105h-.843c-.105,0-.105,0-.105.105v4.53h0l-2.739-4.53c0-.105-.105-.105-.211-.105h-.948c-.105,0-.105,0-.105.105v6.426c0,.105,0,.105.105.105h.843c.105,0,.105,0,.105-.105v-4.53h0l2.739,4.53c0,.105.105.105.211.105h.948Zm4.425-2.318a1.811,1.811,0,0,1-.105.843.878.878,0,0,1-1.686,0,3.424,3.424,0,0,1,0-1.686.878.878,0,0,1,1.686,0,1.811,1.811,0,0,1,.105.843m.948,1.159a6.427,6.427,0,0,0,0-2.318,1.765,1.765,0,0,0-1.9-1.264,1.879,1.879,0,0,0-1.9,1.264,6.426,6.426,0,0,0,0,2.318,1.843,1.843,0,0,0,1.9,1.264,1.974,1.974,0,0,0,1.9-1.264m3.477,1.053,1.686-4.53c0-.105,0-.105-.105-.105h-.948c-.105,0-.105,0-.105.105l-1.053,3.055h0l-1.054-3.055a.1.1,0,0,0-.105-.105h-.948c-.105,0-.105,0-.105.105l1.686,4.53a.1.1,0,0,0,.105.105h.737c.211,0,.211,0,.211-.105m5.373-2.212a1.811,1.811,0,0,1-.105.843.878.878,0,0,1-1.686,0,3.424,3.424,0,0,1,0-1.686.878.878,0,0,1,1.686,0,1.811,1.811,0,0,1,.105.843m.948,1.159a6.426,6.426,0,0,0,0-2.318,1.765,1.765,0,0,0-1.9-1.264,1.879,1.879,0,0,0-1.9,1.264,6.426,6.426,0,0,0,0,2.318,1.765,1.765,0,0,0,1.9,1.264,2.081,2.081,0,0,0,1.9-1.264m7.269-.843a.917.917,0,0,1-1.053.948h-1.37a.1.1,0,0,1-.105-.105V191.2a.1.1,0,0,1,.105-.105h1.37c.632.105,1.053.421,1.053.948m-.105-2.739c0,.527-.316.843-.948.843h-1.37a.1.1,0,0,1-.105-.105v-1.58a.1.1,0,0,1,.105-.105h1.37c.527.105.948.421.948.948m.316,1.264h0a1.464,1.464,0,0,0,.737-1.475c0-1.054-.632-1.791-2.107-1.791H171.23c-.105,0-.105,0-.105.105v6.426c0,.105,0,.105.105.105h2.423c1.475,0,2.318-.632,2.318-2a1.684,1.684,0,0,0-.948-1.37m4.846-.211.527-.632v-.105a1.569,1.569,0,0,0-.948-.421,1.379,1.379,0,0,0-1.264.632h0v-.421c0-.105,0-.105-.105-.105h-.948c-.105,0-.105,0-.105.105v4.53c0,.105,0,.105.105.105h.948c.105,0,.105,0,.105-.105v-2.528c0-.737.316-1.159.843-1.159a1.953,1.953,0,0,1,.737.211.1.1,0,0,0,.105-.105m3.9,2.107c0,.527-.421.843-1.053.843-.527,0-.843-.211-.843-.632s.316-.632,1.053-.632h.737a.1.1,0,0,1,.105.105Zm.843,1.58h0l.105-3.161c0-1.159-.527-1.686-2-1.686a3.591,3.591,0,0,0-1.686.421v.105l.316.632s.105.105.105,0a1.4,1.4,0,0,1,1.053-.316c.843,0,1.053.211,1.053.737v.211a.1.1,0,0,1-.105.105h-.737c-1.159,0-1.9.421-1.9,1.475a1.466,1.466,0,0,0,1.58,1.475,1.82,1.82,0,0,0,1.37-.527h0v.316c0,.105,0,.105.105.105h.737Zm2.528-3.371c0-.316.211-.527.737-.527a2.259,2.259,0,0,1,1.264.421h.105l.527-.527v-.105a3.013,3.013,0,0,0-1.791-.527c-1.159,0-1.791.527-1.791,1.475,0,.843.527,1.264,1.475,1.37h.527c.632.105.737.211.737.527s-.316.527-.843.527a2,2,0,0,1-1.37-.527h-.105l-.737.527v.105a3.2,3.2,0,0,0,2,.737c1.264,0,2-.632,2-1.58,0-.737-.421-1.264-1.475-1.37h-.527c-.632-.105-.737-.316-.737-.527m4.846-2.212c.105,0,.105-.105,0,0l.105-.948c0-.105,0-.105-.105-.105h-.843c-.105,0-.105,0-.105.105v.843c0,.105,0,.105.105.105h.843Zm0,5.584h0l.105-4.635c0-.105,0-.105-.105-.105h-.843c-.105,0-.105,0-.105.105v4.53c0,.105,0,.105.105.105h.843Zm3.266,0h0l.105-.843c0-.105,0-.105-.105-.105h-.211c-.316,0-.421-.105-.421-.421v-5.162c0-.105,0-.105-.105-.105h-.948c-.105,0-.105,0-.105.105v5.268c0,.948.421,1.37,1.264,1.37h.527Zm2.318-.105v-.948c0-.105,0-.105-.105-.105h-.948c-.105,0-.105,0-.105.105v.948c0,.105,0,.105.105.105l1.053-.105c-.105.105,0,.105,0,0" transform="translate(-89.9 -172.152)" fill="#00c"/>
  </g>
</svg>
