<?xml version="1.0" encoding="utf-8"?>
<!-- Generator: Adobe Illustrator 23.0.4, SVG Export Plug-In . SVG Version: 6.00 Build 0)  -->
<svg version="1.1" id="Camada_1" xmlns="http://www.w3.org/2000/svg" xmlns:xlink="http://www.w3.org/1999/xlink" x="0px" y="0px"
	 viewBox="0 0 398.6 172.4" style="enable-background:new 0 0 398.6 172.4;" xml:space="preserve">
<style type="text/css">
	.st0{fill:#FFFFFF;}
</style>
<path class="st0" d="M54.5,99c8.9,0,16-7.5,16-18.7c0-8.1-4.8-17.2-16-17.2c-9.3,0-14.2,8.2-14.2,18.1C40.2,92.6,46.9,99,54.5,99z
	 M94.8,109.7c0,29.8-14.5,39.5-43.8,39.5c-12,0-21.9-2.5-27.7-4.6l1.2-19.8c7.7,3.8,14.1,6,24.5,6c14.5,0,22.3-6.8,22.3-21.1v-3.9
	h-0.3c-6,8.5-14.4,12.4-24.4,12.4c-19.9,0-32.3-15.1-32.3-36.5c0-21.6,10.2-37.8,32.8-37.8c10.7,0,19.4,5.9,24.7,14.8H72V45.6h22.7
	L94.8,109.7L94.8,109.7z"/>
<polygon class="st0" points="195.9,118.1 223.9,118.1 250.1,45.9 225.7,45.9 210.9,97.4 210.6,97.4 195.9,45.9 169.6,45.9 "/>
<path class="st0" d="M153.3,82.1c0-10.8-4.7-20.4-16.2-20.4c-11.5,0-16.2,9.6-16.2,20.4c0,10.7,4.7,20.2,16.2,20.2
	C148.6,102.3,153.3,92.7,153.3,82.1z M95.2,82.1c0-24,18.1-37.8,42-37.8s42,13.9,42,37.8c0,23.8-18.1,37.7-42,37.7
	C113.3,119.7,95.2,105.9,95.2,82.1z"/>
<path class="st0" d="M252.9,107.9c0,6.5-5.3,11.8-11.8,11.8c-6.5,0-11.8-5.3-11.8-11.8c0-6.5,5.3-11.8,11.8-11.8
	C247.6,96.1,252.9,101.4,252.9,107.9z"/>
<path class="st0" d="M295.4,63.4c-9.1,0-15.2,8-15.2,18.8c0,10.5,6.9,18.4,15.2,18.4c9.4,0,15.1-7.9,15.1-19.4
	C310.5,71.7,305.1,63.4,295.4,63.4z M255.2,14.2h25.1v41h0.3c6.4-8,14.8-10.9,24.8-10.9c20,0,30.9,19,30.9,36.4
	c0,21.3-11.5,39.1-33,39.1c-11.5,0-21.6-6.5-24.8-14.6h-0.3v12.9h-23L255.2,14.2L255.2,14.2z"/>
<path class="st0" d="M387.8,65.9c-2.8-0.8-5.5-0.8-8.5-0.8c-11.6,0-18.1,8.4-18.1,22.6v30.5h-24.9V46h22.7v13.3h0.3
	c4.3-9.1,10.5-15,21.3-15c2.9,0,6,0.4,8.5,0.8L387.8,65.9z"/>
</svg>
