<?xml version="1.0" encoding="utf-8"?>
<!-- Generator: Adobe Illustrator 23.0.3, SVG Export Plug-In . SVG Version: 6.00 Build 0)  -->
<svg version="1.1" id="Camada_1" xmlns="http://www.w3.org/2000/svg" xmlns:xlink="http://www.w3.org/1999/xlink" x="0px" y="0px"
	 viewBox="0 0 398.58 172.44" style="enable-background:new 0 0 398.58 172.44;" xml:space="preserve">
<style type="text/css">
	.st0{fill:#2864AE;}
	.st1{fill:#46AD44;}
	.st2{fill:#FABD10;}
</style>
<path class="st0" d="M54.47,98.98c8.93,0,16.04-7.53,16.04-18.68c0-8.09-4.75-17.15-16.04-17.15c-9.33,0-14.22,8.23-14.22,18.13
	C40.25,92.57,46.94,98.98,54.47,98.98z M94.76,109.71c0,29.83-14.49,39.45-43.77,39.45c-11.99,0-21.88-2.51-27.74-4.6l1.25-19.8
	c7.68,3.77,14.09,6,24.54,6c14.5,0,22.31-6.83,22.31-21.05v-3.91h-0.28c-6,8.5-14.36,12.41-24.4,12.41
	c-19.94,0-32.34-15.05-32.34-36.52c0-21.62,10.17-37.78,32.76-37.78c10.73,0,19.37,5.86,24.67,14.78h0.29v-13.1h22.72V109.71z"/>
<polygon class="st1" points="195.94,118.12 223.86,118.12 250.11,45.93 225.72,45.93 210.9,97.35 210.63,97.35 195.94,45.93 
	169.63,45.93 "/>
<path class="st2" d="M153.33,82.05c0-10.8-4.71-20.36-16.21-20.36c-11.49,0-16.2,9.56-16.2,20.36c0,10.66,4.71,20.22,16.2,20.22
	C148.62,102.27,153.33,92.71,153.33,82.05z M95.16,82.05c0-23.96,18.14-37.8,41.96-37.8c23.82,0,41.96,13.85,41.96,37.8
	c0,23.82-18.14,37.67-41.96,37.67C113.31,119.72,95.16,105.87,95.16,82.05z"/>
<path class="st0" d="M252.93,107.92c0,6.53-5.3,11.82-11.84,11.82c-6.53,0-11.83-5.29-11.83-11.82c0-6.54,5.3-11.84,11.83-11.84
	C247.63,96.08,252.93,101.37,252.93,107.92z"/>
<path class="st0" d="M295.36,63.42c-9.14,0-15.24,8.03-15.24,18.83c0,10.53,6.93,18.43,15.24,18.43c9.42,0,15.1-7.9,15.1-19.4
	C310.46,71.73,305.06,63.42,295.36,63.42z M255.19,14.24h25.07v41.01h0.28c6.38-8.04,14.82-10.94,24.8-10.94
	c19.95,0,30.88,18.97,30.88,36.43c0,21.33-11.49,39.07-32.97,39.07c-11.5,0-21.61-6.51-24.79-14.55h-0.28v12.89h-23V14.24z"/>
<path class="st2" d="M387.76,65.91c-2.77-0.83-5.54-0.83-8.45-0.83c-11.64,0-18.14,8.45-18.14,22.58v30.48h-24.94V45.96h22.72v13.3
	h0.28c4.3-9.15,10.53-14.96,21.33-14.96c2.91,0,5.96,0.41,8.45,0.83L387.76,65.91z"/>
</svg>
