<?xml version="1.0" encoding="UTF-8" standalone="no"?>
<!-- Generator: Adobe Illustrator 23.0.3, SVG Export Plug-In . SVG Version: 6.00 Build 0)  -->

<svg
   xmlns:dc="http://purl.org/dc/elements/1.1/"
   xmlns:cc="http://creativecommons.org/ns#"
   xmlns:rdf="http://www.w3.org/1999/02/22-rdf-syntax-ns#"
   xmlns:svg="http://www.w3.org/2000/svg"
   xmlns="http://www.w3.org/2000/svg"
   xmlns:sodipodi="http://sodipodi.sourceforge.net/DTD/sodipodi-0.dtd"
   xmlns:inkscape="http://www.inkscape.org/namespaces/inkscape"
   version="1.1"
   id="Camada_1"
   x="0px"
   y="0px"
   viewBox="0 0 374.68001 134.92"
   xml:space="preserve"
   sodipodi:docname="govbr.svg"
   width="374.67999"
   height="134.92"
   inkscape:version="0.92.3 (2405546, 2018-03-11)"><metadata
   id="metadata3791"><rdf:RDF><cc:Work
       rdf:about=""><dc:format>image/svg+xml</dc:format><dc:type
         rdf:resource="http://purl.org/dc/dcmitype/StillImage" /><dc:title></dc:title></cc:Work></rdf:RDF></metadata><defs
   id="defs3789" /><sodipodi:namedview
   pagecolor="#ffffff"
   bordercolor="#666666"
   borderopacity="1"
   objecttolerance="10"
   gridtolerance="10"
   guidetolerance="10"
   inkscape:pageopacity="0"
   inkscape:pageshadow="2"
   inkscape:window-width="1533"
   inkscape:window-height="740"
   id="namedview3787"
   showgrid="false"
   fit-margin-top="0"
   fit-margin-left="0"
   fit-margin-right="0"
   fit-margin-bottom="0"
   inkscape:zoom="3.2417072"
   inkscape:cx="184.95999"
   inkscape:cy="62.939999"
   inkscape:window-x="67"
   inkscape:window-y="27"
   inkscape:window-maximized="1"
   inkscape:current-layer="Camada_1" />
<style
   type="text/css"
   id="style3772">
	.st0{fill:#2864AE;}
	.st1{fill:#46AD44;}
	.st2{fill:#FABD10;}
</style>





<g
   id="g3799"
   transform="translate(-14.33,-14.24)"><path
     id="path3774"
     d="m 54.47,98.98 c 8.93,0 16.04,-7.53 16.04,-18.68 0,-8.09 -4.75,-17.15 -16.04,-17.15 -9.33,0 -14.22,8.23 -14.22,18.13 0,11.29 6.69,17.7 14.22,17.7 z m 40.29,10.73 c 0,29.83 -14.49,39.45 -43.77,39.45 -11.99,0 -21.88,-2.51 -27.74,-4.6 l 1.25,-19.8 c 7.68,3.77 14.09,6 24.54,6 14.5,0 22.31,-6.83 22.31,-21.05 v -3.91 h -0.28 c -6,8.5 -14.36,12.41 -24.4,12.41 -19.94,0 -32.34,-15.05 -32.34,-36.52 0,-21.62 10.17,-37.78 32.76,-37.78 10.73,0 19.37,5.86 24.67,14.78 h 0.29 v -13.1 h 22.72 v 64.12 z"
     class="st0"
     inkscape:connector-curvature="0"
     style="fill:#2864ae" /><polygon
     id="polygon3776"
     points="250.11,45.93 225.72,45.93 210.9,97.35 210.63,97.35 195.94,45.93 169.63,45.93 195.94,118.12 223.86,118.12 "
     class="st1"
     style="fill:#46ad44" /><path
     id="path3778"
     d="m 153.33,82.05 c 0,-10.8 -4.71,-20.36 -16.21,-20.36 -11.49,0 -16.2,9.56 -16.2,20.36 0,10.66 4.71,20.22 16.2,20.22 11.5,0 16.21,-9.56 16.21,-20.22 z m -58.17,0 c 0,-23.96 18.14,-37.8 41.96,-37.8 23.82,0 41.96,13.85 41.96,37.8 0,23.82 -18.14,37.67 -41.96,37.67 -23.81,0 -41.96,-13.85 -41.96,-37.67 z"
     class="st2"
     inkscape:connector-curvature="0"
     style="fill:#fabd10" /><path
     id="path3780"
     d="m 252.93,107.92 c 0,6.53 -5.3,11.82 -11.84,11.82 -6.53,0 -11.83,-5.29 -11.83,-11.82 0,-6.54 5.3,-11.84 11.83,-11.84 6.54,0 11.84,5.29 11.84,11.84 z"
     class="st0"
     inkscape:connector-curvature="0"
     style="fill:#2864ae" /><path
     id="path3782"
     d="m 295.36,63.42 c -9.14,0 -15.24,8.03 -15.24,18.83 0,10.53 6.93,18.43 15.24,18.43 9.42,0 15.1,-7.9 15.1,-19.4 0,-9.55 -5.4,-17.86 -15.1,-17.86 z M 255.19,14.24 h 25.07 v 41.01 h 0.28 c 6.38,-8.04 14.82,-10.94 24.8,-10.94 19.95,0 30.88,18.97 30.88,36.43 0,21.33 -11.49,39.07 -32.97,39.07 -11.5,0 -21.61,-6.51 -24.79,-14.55 h -0.28 v 12.89 h -23 V 14.24 Z"
     class="st0"
     inkscape:connector-curvature="0"
     style="fill:#2864ae" /><path
     id="path3784"
     d="m 387.76,65.91 c -2.77,-0.83 -5.54,-0.83 -8.45,-0.83 -11.64,0 -18.14,8.45 -18.14,22.58 v 30.48 H 336.23 V 45.96 h 22.72 v 13.3 h 0.28 c 4.3,-9.15 10.53,-14.96 21.33,-14.96 2.91,0 5.96,0.41 8.45,0.83 z"
     class="st2"
     inkscape:connector-curvature="0"
     style="fill:#fabd10" /></g>
</svg>