<?xml version="1.0" encoding="UTF-8" standalone="no"?>
<!-- Generator: Adobe Illustrator 23.0.4, SVG Export Plug-In . SVG Version: 6.00 Build 0)  -->

<svg
   xmlns:dc="http://purl.org/dc/elements/1.1/"
   xmlns:cc="http://creativecommons.org/ns#"
   xmlns:rdf="http://www.w3.org/1999/02/22-rdf-syntax-ns#"
   xmlns:svg="http://www.w3.org/2000/svg"
   xmlns="http://www.w3.org/2000/svg"
   xmlns:sodipodi="http://sodipodi.sourceforge.net/DTD/sodipodi-0.dtd"
   xmlns:inkscape="http://www.inkscape.org/namespaces/inkscape"
   version="1.1"
   id="Camada_1"
   x="0px"
   y="0px"
   viewBox="0 0 374.79998 135"
   xml:space="preserve"
   sodipodi:docname="govbrNegativa.svg"
   width="374.79999"
   height="135"
   inkscape:version="0.92.3 (2405546, 2018-03-11)"><metadata
   id="metadata21"><rdf:RDF><cc:Work
       rdf:about=""><dc:format>image/svg+xml</dc:format><dc:type
         rdf:resource="http://purl.org/dc/dcmitype/StillImage" /><dc:title></dc:title></cc:Work></rdf:RDF></metadata><defs
   id="defs19" /><sodipodi:namedview
   pagecolor="#ffffff"
   bordercolor="#666666"
   borderopacity="1"
   objecttolerance="10"
   gridtolerance="10"
   guidetolerance="10"
   inkscape:pageopacity="0"
   inkscape:pageshadow="2"
   inkscape:window-width="1853"
   inkscape:window-height="920"
   id="namedview17"
   showgrid="false"
   fit-margin-top="0"
   fit-margin-left="0"
   fit-margin-right="0"
   fit-margin-bottom="0"
   inkscape:zoom="0.858003"
   inkscape:cx="185"
   inkscape:cy="63.000003"
   inkscape:window-x="67"
   inkscape:window-y="27"
   inkscape:window-maximized="1"
   inkscape:current-layer="Camada_1" />
<style
   type="text/css"
   id="style2">
	.st0{fill:#FFFFFF;}
</style>
<path
   class="st0"
   d="m 40.2,84.8 c 8.9,0 16,-7.5 16,-18.7 C 56.2,58 51.4,48.9 40.2,48.9 30.9,48.9 26,57.1 26,67 25.9,78.4 32.6,84.8 40.2,84.8 Z M 80.5,95.5 C 80.5,125.3 66,135 36.7,135 24.7,135 14.8,132.5 9,130.4 l 1.2,-19.8 c 7.7,3.8 14.1,6 24.5,6 14.5,0 22.3,-6.8 22.3,-21.1 V 91.6 H 56.7 C 50.7,100.1 42.3,104 32.3,104 12.4,104 0,88.9 0,67.5 0,45.9 10.2,29.7 32.8,29.7 c 10.7,0 19.4,5.9 24.7,14.8 h 0.2 V 31.4 h 22.7 z"
   id="path4"
   inkscape:connector-curvature="0"
   style="fill:#ffffff" />
<polygon
   class="st0"
   points="250.1,45.9 225.7,45.9 210.9,97.4 210.6,97.4 195.9,45.9 169.6,45.9 195.9,118.1 223.9,118.1 "
   id="polygon6"
   style="fill:#ffffff"
   transform="translate(-14.3,-14.2)" />
<path
   class="st0"
   d="m 139,67.9 c 0,-10.8 -4.7,-20.4 -16.2,-20.4 -11.5,0 -16.2,9.6 -16.2,20.4 0,10.7 4.7,20.2 16.2,20.2 11.5,0 16.2,-9.6 16.2,-20.2 z m -58.1,0 c 0,-24 18.1,-37.8 42,-37.8 23.9,0 42,13.9 42,37.8 0,23.8 -18.1,37.7 -42,37.7 -23.9,-0.1 -42,-13.9 -42,-37.7 z"
   id="path8"
   inkscape:connector-curvature="0"
   style="fill:#ffffff" />
<path
   class="st0"
   d="m 238.6,93.7 c 0,6.5 -5.3,11.8 -11.8,11.8 -6.5,0 -11.8,-5.3 -11.8,-11.8 0,-6.5 5.3,-11.8 11.8,-11.8 6.5,0 11.8,5.3 11.8,11.8 z"
   id="path10"
   inkscape:connector-curvature="0"
   style="fill:#ffffff" />
<path
   class="st0"
   d="m 281.1,49.2 c -9.1,0 -15.2,8 -15.2,18.8 0,10.5 6.9,18.4 15.2,18.4 9.4,0 15.1,-7.9 15.1,-19.4 0,-9.5 -5.4,-17.8 -15.1,-17.8 z M 240.9,0 H 266 v 41 h 0.3 c 6.4,-8 14.8,-10.9 24.8,-10.9 20,0 30.9,19 30.9,36.4 0,21.3 -11.5,39.1 -33,39.1 -11.5,0 -21.6,-6.5 -24.8,-14.6 h -0.3 v 12.9 h -23 z"
   id="path12"
   inkscape:connector-curvature="0"
   style="fill:#ffffff" />
<path
   class="st0"
   d="m 373.5,51.7 c -2.8,-0.8 -5.5,-0.8 -8.5,-0.8 -11.6,0 -18.1,8.4 -18.1,22.6 V 104 H 322 V 31.8 h 22.7 v 13.3 h 0.3 c 4.3,-9.1 10.5,-15 21.3,-15 2.9,0 6,0.4 8.5,0.8 z"
   id="path14"
   inkscape:connector-curvature="0"
   style="fill:#ffffff" />
</svg>