<?xml version="1.0" encoding="utf-8"?>
<!-- Generator: Adobe Illustrator 23.0.3, SVG Export Plug-In . SVG Version: 6.00 Build 0)  -->
<svg version="1.1" id="Camada_1" xmlns="http://www.w3.org/2000/svg" xmlns:xlink="http://www.w3.org/1999/xlink" x="0px" y="0px"
	 viewBox="0 0 496.2 143.8" style="enable-background:new 0 0 496.2 143.8;" xml:space="preserve">
<style type="text/css">
	.st0{fill:#FFFFFF;}
</style>
<g>
	<path class="st0" d="M232.7,82.9c5.5-2,9.2-6.8,9.2-12.4c0-10-6.9-16-21.4-16c-6.5,0-13.2,0.2-20.4,0.3l-0.6,0.6v59.3l0.6,0.6
		c7.3,0.1,13.7,0.3,21.7,0.3c16.3,0,23.4-7.4,23.4-17.2C245.2,90.8,239.4,84.7,232.7,82.9z M209.8,61.6c3.1,0.1,7.7,0.1,10.5,0.1
		c9.2,0,11.1,4.8,11.1,9.1c0,4.2-2.1,9.1-11.3,9.1h-10.3V61.6z M221.7,108.4c-3.6,0-7.8,0.1-11.9,0.1V87.1h11.3
		c10.5,0,13.4,6.3,13.4,10.7C234.5,102.3,232.3,108.4,221.7,108.4z"/>
	<path class="st0" d="M399.7,82.2l-11.4-4.4c-4.9-1.9-8.2-4.1-8.2-8c0-4.7,4.5-8.3,11.8-8.3c5,0,11.7,1.9,16.8,4.2
		c2.1-1.7,3.7-4.6,3.8-7.3c-5.1-2.3-12.6-4.6-20.8-4.6c-13.2,0-22.2,7.5-22.2,17.1c0,7.5,5.2,12.1,13.5,15.3l11.6,4.5
		c5.7,2.2,8.9,5.3,8.9,9.5c-0.1,4.9-4.6,8.3-12.6,8.3c-6.8,0-14.1-2.6-19.8-6v0c-2.2,1.6-4.1,4.5-4.4,7.3c6.6,4.1,15.4,6.6,23.6,6.6
		c16.2,0,24.1-7.6,24.1-17.8C414.4,90.8,408.2,85.4,399.7,82.2z"/>
	<path class="st0" d="M492.6,110.8c0.2-1.1,0.3-2.7,0.3-3.7V107h-19.7c-2.6,0-5.7,0.1-8.7,0.4V60.5c0-4.1-1.6-6-5.9-6h-3.9L454,55
		v54.5c0,3.8,2.6,5.8,6.1,5.8h25.7C489.6,115.3,492,113.8,492.6,110.8z"/>
	<path class="st0" d="M205.5,44.7V34.6h4.1c6.1,0,10.5-3.5,10.5-10.3c0-7-4.5-10.3-10.6-10.3c-3.2,0-6.1,0.1-9.7,0.2l-0.3,0.3v30.2
		c1,0.2,2.2,0.2,3,0.2C203.4,44.9,204.6,44.9,205.5,44.7z M205.5,18.7h3.7c4,0,4.8,3.2,4.8,5.6c0,2.4-0.8,5.6-4.8,5.6
		c-0.6,0-2.2,0.1-3.7,0.1C205.5,30,205.5,18.7,205.5,18.7z"/>
	<path class="st0" d="M469.3,44.9c1,0,1.8,0,2.6-0.2l2.1-6.9h10.7l1.2,4.1c0.8,2.5,1.7,3.2,3.6,3.2c1.1,0,2.6-0.3,3.4-0.8l-9.8-30
		c-0.9-0.2-2.5-0.3-3.4-0.3c-1.1,0-2.5,0.1-3.5,0.2l-9.9,30l0.2,0.3C467.2,44.8,468.4,44.9,469.3,44.9z M477.2,27.5
		c0.6-2,1.6-5.2,2-7.5h0.3c0.7,2.6,1.6,6.1,2.4,8.6l1.3,4.5h-7.7L477.2,27.5z"/>
	<path class="st0" d="M219.7,44.5c0.7,0.3,1.9,0.4,2.8,0.4c1,0,1.8,0,2.6-0.2l2.1-6.9h10.6l1.2,4.1c0.8,2.5,1.7,3.2,3.6,3.2
		c1.1,0,2.6-0.3,3.4-0.8l-9.7-30c-0.9-0.2-2.5-0.3-3.4-0.3c-1.1,0-2.5,0.1-3.5,0.2l-9.9,30L219.7,44.5z M230.4,27.5
		c0.6-2,1.6-5.2,2-7.5h0.3c0.7,2.6,1.6,6.1,2.4,8.6l1.3,4.5h-7.7L230.4,27.5z"/>
	<path class="st0" d="M381,44.7l1-14.3c0.2-2.8,0.4-6.9,0.4-9.7h0.3l5.2,19.4c0.9,0.1,2.2,0.2,3,0.2c0.9,0,2.2-0.1,3.1-0.2l5.2-19.4
		h0.3c0,2.8,0.2,6.9,0.4,9.7l0.8,14.3c0.8,0.2,1.7,0.2,2.6,0.2c1,0,2.2-0.1,3-0.3l-2.4-30.3c-1.4-0.2-3-0.3-4.1-0.3
		c-1,0-2.5,0.1-3.8,0.3l-3.4,12.3c-0.3,1.2-1.4,5.8-1.7,7.6h-0.3c-0.3-1.8-1.4-6.4-1.7-7.6l-3.4-12.3c-1.3-0.2-2.7-0.3-3.8-0.3
		c-1,0-2.7,0.1-4,0.3l-2.4,30.3c0.9,0.2,2.1,0.3,3,0.3C379.3,44.9,380.2,44.8,381,44.7z"/>
	<path class="st0" d="M233.2,11.5l7.4-4.4c-0.3-1.3-1.5-2.7-2.4-3.2l-6.6,5.6C231.8,10.2,232.5,11.2,233.2,11.5z"/>
	<path class="st0" d="M333.9,54.6c-1.7,0-4.4,0.1-6,0.4l-22.2,59.7l0.3,0.4c1.4,0.3,3.2,0.6,5.1,0.6c1.6,0,3.2-0.1,4.5-0.4l5.2-14.8
		v0c1.7,0,4.9,0.1,5.7,0.3H340c0.8,0,4.2-0.1,5.9-0.1l3.6,10.3c1.3,3.8,3,4.9,6.2,4.9c2.3,0,4.6-0.3,6.1-1.2l-22-59.7
		C338.3,54.7,335.6,54.6,333.9,54.6z M338.2,92.8h-9.8c-0.8,0-3.4,0.1-5,0.1l5.8-16c1-3.3,2.8-8.8,3.8-12.8h0.4
		c1.4,4.7,3.4,10.9,5.2,16l4.5,12.8C341.5,92.9,338.9,92.8,338.2,92.8z"/>
	<path class="st0" d="M310.7,44.9c1,0,1.8,0,2.6-0.2l2.1-6.9h10.7l1.2,4.1c0.8,2.5,1.7,3.2,3.6,3.2c1.1,0,2.6-0.3,3.4-0.8l-9.8-30
		c-0.9-0.2-2.5-0.3-3.4-0.3c-1.1,0-2.5,0.1-3.5,0.2l-9.9,30l0.2,0.3C308.6,44.8,309.8,44.9,310.7,44.9z M318.6,27.5
		c0.6-2,1.6-5.2,2-7.5h0.3c0.7,2.6,1.6,6.1,2.4,8.6l1.3,4.5h-7.7L318.6,27.5z"/>
	<path class="st0" d="M429.2,41.9c0.8,2.5,1.7,3.2,3.6,3.2c1.1,0,2.6-0.3,3.4-0.8l-9.7-30c-0.9-0.2-2.5-0.3-3.4-0.3
		c-1.1,0-2.5,0.1-3.5,0.2l-9.9,30l0.2,0.3c0.7,0.3,1.9,0.4,2.8,0.4c1,0,1.8,0,2.6-0.2l2.1-6.9H428L429.2,41.9z M418.9,33.1l1.7-5.6
		c0.6-2,1.6-5.2,2-7.5h0.3c0.7,2.6,1.6,6.1,2.4,8.6l1.3,4.5H418.9z"/>
	<path class="st0" d="M426.6,54.9v60.3c1.5,0.3,3.6,0.4,5.2,0.4c1.6,0,3.6-0.1,5.2-0.4V54.9c-1.6-0.3-3.6-0.4-5.2-0.4
		C430.2,54.5,428.1,54.6,426.6,54.9z"/>
	<path class="st0" d="M348.4,44.9c1,0,1.8,0,2.6-0.2l2.1-6.9h10.6l1.2,4.1c0.8,2.5,1.7,3.2,3.6,3.2c1.1,0,2.6-0.3,3.4-0.8l-9.7-30
		c-0.9-0.2-2.5-0.3-3.4-0.3c-1.1,0-2.5,0.1-3.5,0.2l-9.9,30l0.2,0.3C346.3,44.8,347.5,44.9,348.4,44.9z M356.2,27.5
		c0.6-2,1.6-5.2,2-7.5h0.3c0.7,2.6,1.6,6.1,2.4,8.6l1.3,4.5h-7.7L356.2,27.5z"/>
	<path class="st0" d="M297.3,14.3v30.4c0.9,0.2,2.2,0.2,3,0.2c0.9,0,2,0,3-0.2V14.3c-1-0.2-2.2-0.2-3-0.2S298.2,14.1,297.3,14.3z"/>
	<path class="st0" d="M252.3,19.2v3.3v22.2c1,0.2,2.2,0.2,3,0.2c0.9,0,2,0,3-0.2V19.2h4.8c2.2,0,3.2-0.7,3.2-2.7
		c0-0.7-0.1-1.7-0.3-2.3h-21.3c-0.2,0.9-0.2,1.8-0.2,2.5c0,0.7,0,1.6,0.2,2.5H252.3z"/>
	<path class="st0" d="M295.8,106.5l-4.3-10.3c-1.4-3.4-3.8-6.4-7-7.5c7.2-2,12.6-8,12.5-16.1c0-11.7-8.6-18.1-22.3-18.1
		c-6.6,0-13.7,0.2-21.1,0.3l-0.6,0.6v59.9c1.5,0.3,3.5,0.4,5.1,0.4c1.7,0,3.6-0.1,5.2-0.4V91h8.1c6.1,0,8.2,3.1,9.9,7.2l4.9,11.9
		c1.6,3.8,3,5.7,6.9,5.7c2.7,0,5.7-1,7.1-2.9C298,111.3,296.8,108.9,295.8,106.5z M274.3,83.2c-2.7,0-7.1,0.1-10.9,0.2V61.8
		c3.3,0.1,8,0.1,10.9,0.1c9.6,0,12,5.3,12,10.7C286.3,77.7,283.9,83.2,274.3,83.2z"/>
	<path class="st0" d="M459.4,42.7c4.1-3.3,4.8-8,4.9-13.4c0-5.2-0.8-9.9-4.9-13.2c-2-1.6-5.6-2.2-8-2.2c-3.7,0-6.7,0.1-10.5,0.2
		l-0.3,0.3v30l0.3,0.3c3.9,0.1,6.8,0.2,10.5,0.2C453.8,44.9,457.4,44.3,459.4,42.7z M446.5,18.8h4.9c5.8,0,6.7,5.8,6.7,10.8
		c0,4.9-0.9,10.7-6.7,10.7h-4.9V18.8z"/>
	<path class="st0" d="M276,44.7V33h2.6c2.5,0,3.4,1.4,4.1,3.2l1.9,5.3c0.9,2.3,1.6,3.5,3.8,3.5c1.6,0,3.2-0.7,4-1.8
		c-1-0.8-1.7-2-2.1-3.2l-1.6-4.5c-0.6-1.8-1.7-3.3-3.3-3.9c2.9-1,5.6-3.9,5.7-8.2c0-6.3-4.3-9.4-10.5-9.4c-3.3,0-6.6,0.1-10.2,0.2
		l-0.3,0.3v30.2c0.9,0.2,2.1,0.2,2.9,0.2C273.9,44.9,275,44.9,276,44.7z M276,18.7h4.1c3.9,0,4.8,2.3,4.8,4.8c0,2.4-0.9,4.8-4.8,4.8
		c-0.9,0-2.5,0-4.1,0.1V18.7z"/>
	<path class="st0" d="M210.3,133.7h-3.4c-0.2,0.5-0.3,1-0.4,1.6c0,0.5,0.2,0.9,0.4,1.1c0.3,0.3,0.7,0.4,1.3,0.4h1.1v0.6v0.9v1.4
		c-0.3,0-0.6,0.1-0.9,0.1h-1c-2.4,0-3.6-1.6-3.6-4.9c0-3.3,1.1-4.9,3.5-4.9c1.2,0,2.4,0.4,3.6,1.2c0.2-0.2,0.4-0.3,0.6-0.5
		c0.2-0.2,0.4-0.4,0.5-0.6c0.1-0.2,0.2-0.5,0.3-0.7c0.1-0.2,0.2-0.5,0.2-0.7c-1.7-1.1-3.4-1.6-5.3-1.6c-0.9,0-1.8,0.2-2.6,0.5
		c-0.8,0.4-1.6,0.9-2.2,1.5c-0.6,0.6-1.1,1.5-1.5,2.4c-0.4,0.9-0.6,2.1-0.6,3.4c0,1.2,0.1,2.3,0.4,3.2c0.3,1,0.7,1.8,1.2,2.4
		c0.5,0.7,1.2,1.2,2,1.5c0.8,0.3,1.8,0.5,2.8,0.5c2.1,0,4-0.3,5.9-0.9v-5.7C212.6,134.4,211.8,133.7,210.3,133.7z"/>
	<path class="st0" d="M411.5,129.3c-0.5-0.7-1.2-1.2-2-1.6c-0.8-0.4-1.9-0.6-3.1-0.6h-2.8c-0.9,0.1-1.8,0.1-2.6,0.1l-0.2,0.2V142
		l0.2,0.2c1.3,0.1,2.4,0.1,3.2,0.1h1.9c0.9,0,1.7-0.1,2.5-0.3c0.7-0.2,1.3-0.4,1.8-0.8c0.9-0.8,1.6-1.7,1.9-2.8
		c0.3-1,0.5-2.3,0.5-3.7c0-1.1-0.1-2.1-0.3-3C412.3,130.8,412,130,411.5,129.3z M406.4,139.5L406.4,139.5c-0.5,0-0.9,0-1.2,0.1h-0.9
		v-9.7h2.1c1.9,0,2.9,1.6,2.9,4.8C409.3,137.9,408.3,139.5,406.4,139.5z"/>
	<path class="st0" d="M338.2,129.1c-0.5-0.7-1.2-1.2-2-1.5s-1.7-0.5-2.7-0.5s-1.9,0.2-2.7,0.5c-0.8,0.4-1.4,0.9-2,1.5
		c-0.6,0.6-1,1.4-1.3,2.4c-0.3,0.9-0.4,2-0.4,3.3c0,2.9,0.8,5,2.3,6.3c1.1,0.9,2.5,1.3,4.1,1.4c1,0,1.9-0.2,2.7-0.5
		c0.8-0.4,1.4-0.9,2-1.5c0.6-0.6,1-1.4,1.3-2.4c0.3-0.9,0.4-2,0.4-3.3c0-1.2-0.1-2.3-0.4-3.3C339.2,130.6,338.8,129.8,338.2,129.1z
		 M336.2,136.8c-0.1,0.5-0.2,1-0.4,1.5c-0.2,0.4-0.5,0.8-0.9,1.1c-0.3,0.3-0.8,0.4-1.4,0.4c-1.2,0-2-0.6-2.4-1.7
		c-0.1-0.6-0.2-1.1-0.3-1.6c-0.1-0.5-0.1-1.1-0.1-1.8c0-0.4,0.1-0.9,0.1-1.5c0-0.6,0.1-1.2,0.3-1.7c0.2-0.5,0.4-0.9,0.8-1.3
		c0.4-0.3,0.9-0.5,1.6-0.5s1.2,0.2,1.6,0.6c0.4,0.4,0.6,0.9,0.8,1.4c0.2,0.5,0.3,1.1,0.3,1.7c0.1,0.6,0.1,1.2,0.1,1.7
		C336.3,135.7,336.3,136.2,336.2,136.8z"/>
	<path class="st0" d="M362.2,127.4l-0.2,0.1v14.7c0.4,0.1,1,0.1,1.7,0.1s1.2,0,1.7-0.1v-6h4.7c0.1-0.4,0.2-0.9,0.2-1.4
		s-0.1-1-0.2-1.4h-4.7v-3h4.4c0.6,0,1.1-0.1,1.4-0.4c0.3-0.3,0.4-0.6,0.4-1.2c0-0.6,0-1-0.1-1.4H362.2z"/>
	<path class="st0" d="M426.1,137.7H426v-1.6h4.8c0.1-0.4,0.2-0.9,0.2-1.4s-0.1-1-0.2-1.4H426v-3.1h5.9c0.2-0.5,0.3-1,0.3-1.5
		s0-1-0.1-1.4h-9.3l-0.2,0.2v12.7c0,0.6,0.1,1.1,0.5,1.5c0.4,0.3,0.9,0.5,1.5,0.5h5.8c1.3,0,2-0.6,2.2-1.7c0.1-0.3,0.1-0.7,0.1-1.2
		h-6.6V137.7z"/>
	<path class="st0" d="M489.9,139.2L489.9,139.2c-0.7,0-1.4,0-1.9,0.1v-9.9c0-1.5-0.7-2.2-2-2.2h-1.3l-0.2,0.2v12.8
		c0,0.6,0.1,1.1,0.5,1.5c0.4,0.3,0.9,0.5,1.5,0.5h4.9c0.6,0,1.1-0.1,1.5-0.4c0.4-0.3,0.6-0.7,0.7-1.1c0.1-0.4,0.1-0.9,0.1-1.5H489.9
		z"/>
	<path class="st0" d="M452.8,139.7l-0.6-1.8c-0.4-1.1-0.9-1.7-1.7-2c0.3-0.2,0.7-0.3,1-0.6s0.6-0.6,0.8-0.9c0.3-0.3,0.5-0.6,0.6-1.1
		c0.1-0.5,0.2-0.9,0.2-1.4h0c0-0.8-0.1-1.5-0.1-2c-0.3-0.6-0.6-1.1-1.1-1.5c-0.5-0.4-1.1-0.7-1.7-0.9c-0.7-0.2-1.4-0.3-2.2-0.3h-2
		c-0.9,0.1-1.9,0.1-3.2,0.1l-0.2,0.2v14.7c0.4,0.1,1,0.1,1.7,0.1s1.2,0,1.7-0.1v-5.4h0.9c0.5,0,0.9,0.1,1.2,0.3
		c0.2,0.2,0.4,0.6,0.6,1l0.8,2.3c0.2,0.7,0.5,1.2,0.8,1.5s0.7,0.4,1.2,0.4s1-0.1,1.4-0.3c0.5-0.2,0.8-0.4,1-0.7
		C453.4,141,453,140.4,452.8,139.7z M449.3,133.2c-0.1,0.2-0.3,0.4-0.6,0.6c-0.3,0.2-0.6,0.3-1.1,0.3h-1.7v-4.3v0
		c0.2,0,0.5,0,0.7,0.1h0.9c1.3,0,2,0.7,2,2.1C449.5,132.5,449.4,132.9,449.3,133.2z"/>
	<path class="st0" d="M468.6,127.2c-0.8,0-1.4,0-2,0.1l-4.8,14.5l0.1,0.2c0.4,0.1,1,0.2,1.7,0.2c0.6,0,1.1,0,1.4-0.1l0.9-3.1h0.9h4
		l0.4,1.4c0.2,0.7,0.5,1.2,0.8,1.5c0.3,0.3,0.8,0.4,1.6,0.4c0.6,0,1.2-0.1,1.7-0.4l-4.7-14.5C470.1,127.3,469.5,127.2,468.6,127.2z
		 M466.8,136.3l0.6-1.7c0.5-2.1,0.9-3.5,1-4.1h0.1c0.5,1.8,0.9,3.3,1.2,4.5l0.4,1.3H466.8z"/>
	<path class="st0" d="M384.4,137.7v-1.6h4.8c0.1-0.4,0.2-0.9,0.2-1.4s-0.1-1-0.2-1.4h-4.8v-3.1h5.9c0.2-0.5,0.3-1,0.3-1.5
		s0-1-0.1-1.4h-9.3l-0.2,0.2v12.7c0,0.6,0.1,1.1,0.5,1.5c0.4,0.3,0.9,0.5,1.5,0.5h5.7c1.3,0,2-0.6,2.2-1.7c0.1-0.3,0.1-0.7,0.1-1.2
		h-6.6V137.7z"/>
	<path class="st0" d="M253.7,127.2c-0.5,0-1,0-1.3,0.1l-2.8,11.9c-0.2,0-0.2-0.1-0.3-0.3c-0.3-1.6-0.5-2.9-0.8-3.9l-1.7-6.2
		c-0.2-0.6-0.4-1-0.7-1.3c-0.2-0.3-0.7-0.4-1.3-0.4c-0.5,0-1.1,0.2-1.9,0.5l3.6,13.1c0.2,0.6,0.4,1,0.8,1.2c0.4,0.2,1,0.3,1.8,0.3
		c0.9,0,1.7,0,2.5-0.1l4-14.5l-0.1-0.2C255,127.3,254.5,127.2,253.7,127.2z"/>
	<path class="st0" d="M233,129.1c-0.5-0.7-1.2-1.2-2-1.5s-1.7-0.5-2.7-0.5s-1.9,0.2-2.7,0.5c-0.8,0.4-1.4,0.9-2,1.5
		c-0.6,0.6-1,1.4-1.3,2.4c-0.3,0.9-0.4,2-0.4,3.3c0,2.9,0.8,5,2.3,6.3c1.1,0.9,2.4,1.3,4.1,1.4c1,0,1.9-0.2,2.7-0.5
		c0.8-0.4,1.4-0.9,2-1.5c0.6-0.6,1-1.4,1.3-2.4c0.3-0.9,0.4-2,0.4-3.3c0-1.2-0.1-2.3-0.4-3.3C234,130.6,233.6,129.8,233,129.1z
		 M231,136.8c-0.1,0.5-0.2,1-0.4,1.5c-0.2,0.4-0.5,0.8-0.9,1.1c-0.3,0.3-0.8,0.4-1.4,0.4c-1.2,0-2-0.6-2.4-1.7h0
		c-0.2-0.6-0.3-1.1-0.3-1.6c-0.1-0.5-0.1-1.1-0.1-1.8c0-0.4,0.1-0.9,0.1-1.5c0-0.6,0.1-1.2,0.3-1.7s0.4-0.9,0.8-1.3
		c0.4-0.3,0.9-0.5,1.6-0.5s1.2,0.2,1.6,0.6c0.4,0.4,0.6,0.9,0.8,1.4c0.2,0.5,0.3,1.1,0.3,1.7c0.1,0.6,0.1,1.2,0.1,1.7
		C231.1,135.7,231.1,136.2,231,136.8z"/>
	<path class="st0" d="M268.3,137.7L268.3,137.7l-0.1-1.6h4.8c0.1-0.4,0.2-0.9,0.2-1.4s-0.1-1-0.2-1.4h-4.8v-3.1h5.9
		c0.2-0.5,0.3-1,0.3-1.5s0-1-0.1-1.4H265l-0.2,0.2v12.7c0,0.6,0.1,1.1,0.5,1.5c0.4,0.3,0.9,0.5,1.5,0.5h5.8c1.3,0,2-0.6,2.2-1.7
		c0.1-0.3,0.1-0.7,0.1-1.2h-6.6V137.7z"/>
	<path class="st0" d="M295,139.7l-0.6-1.8c-0.4-1.1-0.9-1.7-1.7-2c0.3-0.2,0.7-0.3,1-0.6s0.6-0.6,0.8-0.9c0.3-0.3,0.5-0.7,0.6-1.1
		c0.1-0.5,0.2-0.9,0.2-1.4h0c0-0.8-0.1-1.5-0.1-2c-0.3-0.6-0.6-1.1-1.1-1.5c-0.5-0.4-1.1-0.7-1.7-0.9c-0.7-0.2-1.4-0.3-2.2-0.3h-2
		c-0.9,0.1-1.9,0.1-3.2,0.1l-0.2,0.2v14.7c0.4,0.1,1,0.1,1.7,0.1s1.2,0,1.7-0.1v-5.4h0.9c0.5,0,0.9,0.1,1.2,0.3
		c0.2,0.2,0.4,0.6,0.6,1l0.8,2.3c0.2,0.7,0.5,1.2,0.8,1.5c0.3,0.3,0.7,0.4,1.2,0.4s1-0.1,1.4-0.3c0.5-0.2,0.8-0.4,1-0.7
		C295.6,141,295.2,140.4,295,139.7z M291.6,133.2c-0.1,0.2-0.3,0.4-0.6,0.6c-0.3,0.2-0.6,0.3-1.1,0.3h-1.7v-4.3v0
		c0.2,0,0.4,0,0.7,0.1h0.9c1.3,0,2,0.7,2,2.1C291.8,132.5,291.7,132.9,291.6,133.2z"/>
	<path class="st0" d="M317.1,127.2h-0.9c-0.7,0-1.2,0.2-1.5,0.5c-0.3,0.3-0.5,0.8-0.5,1.6v2.6c0,2.3,0.1,4.4,0.3,6.4h-0.1
		c-0.2-0.8-0.7-1.9-1.3-3.3l-3.4-7.7c-0.6-0.1-1.3-0.1-2.1-0.1s-1.5,0.1-2,0.2v14.7c0.4,0.1,1,0.1,1.6,0.1c0.6,0,1.2,0,1.6-0.1v-4.3
		c0-2.2-0.1-4.4-0.3-6.5h0.1c0.4,1.2,0.8,2.2,1.2,3.1l3.4,7.7c0.6,0.1,1.4,0.1,2.1,0.1s1.4-0.1,2-0.2v-14.6L317.1,127.2L317.1,127.2
		z"/>
	<polygon class="st0" points="0.7,83.8 72.8,25.6 181.9,73.7 181.9,14 0.7,14 	"/>
	<path class="st0" d="M17.3,121c19.9-13.2,57-33.7,106.3-42.8c-11.2-8.4-25.2-13.4-40.3-13.4C50,64.8,22.4,89.1,17.3,121z"/>
	<path class="st0" d="M140.2,96.5C79.3,100,37.4,119.4,16.4,131.8C6,137.9,0.7,142.3,0.7,142.3h181.1V96.6
		C167.1,95.7,153.3,95.7,140.2,96.5z"/>
</g>
</svg>
