<svg width="22" height="18" viewBox="0 0 22 18" fill="none" xmlns="http://www.w3.org/2000/svg">
<path d="M18.6361 1.42627C17.212 0.75997 15.6893 0.27573 14.0973 0C13.9018 0.353476 13.6734 0.82891 13.5159 1.20712C11.8236 0.952616 10.1469 0.952616 8.48573 1.20712C8.32828 0.82891 8.09468 0.353476 7.89742 0C6.30374 0.27573 4.77928 0.761749 3.35518 1.4298C0.482756 5.7704 -0.29591 10.0032 0.0934236 14.1759C1.99856 15.5986 3.84488 16.4629 5.66003 17.0284C6.1082 16.4116 6.50791 15.7559 6.85225 15.0649C6.19644 14.8157 5.56832 14.5082 4.97482 14.1512C5.13227 14.0345 5.28628 13.9125 5.43508 13.7871C9.05501 15.4802 12.9882 15.4802 16.5648 13.7871C16.7154 13.9125 16.8694 14.0345 17.0251 14.1512C16.4299 14.5099 15.8 14.8174 15.1442 15.0666C15.4886 15.7559 15.8865 16.4134 16.3364 17.0301C18.1533 16.4646 20.0014 15.6004 21.9065 14.1759C22.3633 9.33867 21.1261 5.14476 18.6361 1.42627ZM7.34541 11.6097C6.25874 11.6097 5.36759 10.5952 5.36759 9.35988C5.36759 8.1245 6.23972 7.10828 7.34541 7.10828C8.45114 7.10828 9.34226 8.12272 9.32323 9.35988C9.32495 10.5952 8.45114 11.6097 7.34541 11.6097ZM14.6545 11.6097C13.5678 11.6097 12.6767 10.5952 12.6767 9.35988C12.6767 8.1245 13.5488 7.10828 14.6545 7.10828C15.7602 7.10828 16.6514 8.12272 16.6323 9.35988C16.6323 10.5952 15.7602 11.6097 14.6545 11.6097Z" fill="#1351B4"/>
</svg>
