<svg width="75" height="58" viewBox="0 0 75 58" fill="none" xmlns="http://www.w3.org/2000/svg">
<path d="M62.751 4.8025C57.9558 2.55895 52.8286 0.928433 47.4682 0C46.8099 1.19022 46.0407 2.79109 45.5105 4.06457C39.8122 3.20763 34.1664 3.20763 28.5729 4.06457C28.0428 2.79109 27.2562 1.19022 26.592 0C21.2258 0.928433 16.0927 2.56494 11.2975 4.81438C1.62552 19.43 -0.996382 33.6825 0.314574 47.7327C6.72952 52.5232 12.9464 55.4333 19.0583 57.3376C20.5674 55.2607 21.9133 53.0529 23.0727 50.7261C20.8645 49.887 18.7495 48.8515 16.7511 47.6494C17.2813 47.2567 17.7999 46.846 18.3009 46.4235C30.4898 52.1245 43.7334 52.1245 55.7767 46.4235C56.2837 46.846 56.8022 47.2567 57.3265 47.6494C55.3222 48.8574 53.2014 49.8929 50.9932 50.7321C52.1527 53.0529 53.4928 55.2667 55.0076 57.3435C61.1255 55.4392 67.3481 52.5292 73.763 47.7327C75.3012 31.445 71.1353 17.3233 62.751 4.8025ZM24.7333 39.092C21.0743 39.092 18.0736 35.6761 18.0736 31.5163C18.0736 27.3566 21.0102 23.9348 24.7333 23.9348C28.4565 23.9348 31.457 27.3506 31.393 31.5163C31.3988 35.6761 28.4565 39.092 24.7333 39.092ZM49.3443 39.092C45.6853 39.092 42.6847 35.6761 42.6847 31.5163C42.6847 27.3566 45.6212 23.9348 49.3443 23.9348C53.0674 23.9348 56.0681 27.3506 56.004 31.5163C56.004 35.6761 53.0674 39.092 49.3443 39.092Z" fill="white"/>
</svg>
