<svg width="79" height="73" viewBox="0 0 79 73" fill="none" xmlns="http://www.w3.org/2000/svg">
<path d="M39.1852 72.1875L53.624 27.7742H24.7675L39.1852 72.1875Z" fill="#E24329"/>
<path d="M4.54344 27.7744L0.146488 41.2678C-0.251398 42.493 0.178292 43.8454 1.22849 44.6092L39.1853 72.1875L4.54344 27.7744Z" fill="#FCA326"/>
<path d="M4.54346 27.7744H24.7674L16.0636 1.0264C15.6181 -0.342066 13.6767 -0.342066 13.2153 1.0264L4.54346 27.7744Z" fill="#E24329"/>
<path d="M73.848 27.7744L78.2291 41.2678C78.627 42.493 78.1973 43.8454 77.1471 44.6092L39.1849 72.1875L73.848 27.7744Z" fill="#FCA326"/>
<path d="M73.8481 27.7744H53.6241L62.312 1.0264C62.7574 -0.342066 64.6988 -0.342066 65.1603 1.0264L73.8481 27.7744Z" fill="#E24329"/>
<path d="M39.1849 72.1875L53.6238 27.7744H73.848L39.1849 72.1875Z" fill="#FC6D26"/>
<path d="M39.1851 72.1875L4.54346 27.7744H24.7674L39.1851 72.1875Z" fill="#FC6D26"/>
</svg>
