<svg xmlns="http://www.w3.org/2000/svg" xmlns:xlink="http://www.w3.org/1999/xlink" width="780" height="398" viewBox="0 0 780 398">
  <defs>
    <clipPath id="clip-path">
      <rect id="Retângulo_1730" data-name="Retângulo 1730" width="780" height="398" transform="translate(0 0.474)" fill="none"/>
    </clipPath>
    <clipPath id="clip-path-2">
      <rect id="SVGID" width="302.307" height="296.223" fill="none"/>
    </clipPath>
    <clipPath id="clip-ilustra-destaque_g">
      <rect width="780" height="398"/>
    </clipPath>
  </defs>
  <g id="ilustra-destaque_g" clip-path="url(#clip-ilustra-destaque_g)">
    <g id="_.ilustra-destaque" data-name=".ilustra-destaque" transform="translate(0 -0.474)" clip-path="url(#clip-path)">
      <g id="Grupo_33551" data-name="Grupo 33551" transform="translate(234.764 104.341)" clip-path="url(#clip-path-2)">
        <path id="Caminho_8487" data-name="Caminho 8487" d="M400.92,133.62a23,23,0,0,1,46,0,22.275,22.275,0,0,1-.409,4.235q1.394-.133,2.82-.133c15.714,0,28.453,12.484,28.453,27.876a27.865,27.865,0,0,1-16.156,25.156,18.3,18.3,0,0,1,4.423,22.867,16.432,16.432,0,1,1-19.661,16.133,16.01,16.01,0,0,1,1.3-6.347,18.8,18.8,0,0,1-17.361-18.522,18.367,18.367,0,0,1,6.635-14.132A27.854,27.854,0,0,1,420.913,165.6a27.323,27.323,0,0,1,1.692-9.487A22.735,22.735,0,0,1,400.92,133.62Z" transform="translate(-193.447 -69.32)" fill="#0f174d"/>
        <ellipse id="Elipse_339" data-name="Elipse 339" cx="43.359" cy="40.548" rx="43.359" ry="40.548" transform="translate(132.753 58.064)" fill="#0f174d"/>
        <rect id="Retângulo_1726" data-name="Retângulo 1726" width="35.419" height="40.394" transform="translate(158.408 120.042)" fill="#f18918"/>
        <path id="Caminho_8488" data-name="Caminho 8488" d="M356.55,204.483l21.807-2.643L356.55,214.866Z" transform="translate(-198.142 -59.672)"/>
        <path id="Caminho_8489" data-name="Caminho 8489" d="M392.328,210.479V168.748a25.853,25.853,0,0,0-25.7-26.008h0a25.853,25.853,0,0,0-25.7,26.008v25.2C340.919,224.655,392.328,210.479,392.328,210.479Z" transform="translate(-199.795 -65.923)" fill="#f18918"/>
        <path id="Caminho_8490" data-name="Caminho 8490" d="M340.92,174.592v13.125a5.285,5.285,0,0,0,1.515.221c3.384,0,6.126-3.041,6.126-6.789s-2.742-6.789-6.126-6.789a5.287,5.287,0,0,0-1.515.232Z" transform="translate(-199.796 -62.578)" fill="#c75450"/>
        <path id="Caminho_8491" data-name="Caminho 8491" d="M35.43,35.55H14.7A14.7,14.7,0,0,1,0,20.855V0H35.386V35.55Z" transform="translate(158.396 71.167)" fill="#0f174d"/>
        <ellipse id="Elipse_340" data-name="Elipse 340" cx="11.722" cy="11.489" rx="11.722" ry="11.489" transform="translate(182.105 103.19)" fill="#f18918"/>
        <ellipse id="Elipse_341" data-name="Elipse 341" cx="7.343" cy="7.199" rx="7.343" ry="7.199" transform="translate(165.783 111.583)" fill="#c75450"/>
        <path id="Caminho_8492" data-name="Caminho 8492" d="M365.1,187.84l-16.388.63S357.313,199.8,365.1,187.84Z" transform="translate(-198.972 -61.153)" fill="#fff"/>
        <path id="Caminho_8493" data-name="Caminho 8493" d="M363.22,175.217a2.322,2.322,0,1,0,2.322-2.267,2.322,2.322,0,0,0-2.322,2.267Z" transform="translate(-197.437 -62.727)" fill="#0f174d"/>
        <path id="Caminho_8494" data-name="Caminho 8494" d="M344.87,175.217a2.322,2.322,0,1,0,2.322-2.267,2.322,2.322,0,0,0-2.322,2.267Z" transform="translate(-199.378 -62.727)" fill="#0f174d"/>
        <path id="Caminho_8495" data-name="Caminho 8495" d="M353.837,185.758a1.914,1.914,0,0,0,.354,0l5.131-.818-.3-1.791-5.142.818-.254-.243,1.217-9.952L353,173.55l-1.205,9.952a1.946,1.946,0,0,0,.619,1.7A2.057,2.057,0,0,0,353.837,185.758Z" transform="translate(-198.648 -62.664)" fill="#0f174d"/>
        <path id="Caminho_8496" data-name="Caminho 8496" d="M391.97,137.64v32.067a11.755,11.755,0,0,0-8.437,3.538H372.6a15.912,15.912,0,0,1-16.056-15.735V137.64Z" transform="translate(-198.144 -66.462)" fill="#0f174d"/>
        <path id="Caminho_8497" data-name="Caminho 8497" d="M458.092,485.845,252.61,451.621l43.425-173.727,71.513-59.534h35.486l52.216,41.245Z" transform="translate(-209.141 -57.925)" fill="#0f174d"/>
        <path id="Caminho_8498" data-name="Caminho 8498" d="M398.78,488.215l.442-261.535,40.561,32.045,36.094,54.459-33.108-3.107,10.373,178.139Z" transform="translate(-193.674 -57.045)" fill="#fcf4e5"/>
        <path id="Caminho_8499" data-name="Caminho 8499" d="M260.427,228.37s66.592,154.4,11.246,163.487C202.8,403.136,235.314,239.1,235.314,239.1Z" transform="translate(-211.782 -56.866)" fill="#0f174d"/>
        <path id="Caminho_8500" data-name="Caminho 8500" d="M267.614,220.974l-29.492.343a1,1,0,0,1-1.006-.962l-.586-49.339a.984.984,0,0,1,.984-.984l29.492-.332a.984.984,0,0,1,1.006.962l.586,49.328a.984.984,0,0,1-.984.984Z" transform="translate(-210.842 -63.071)" fill="#fcf4e5"/>
        <path id="Caminho_8501" data-name="Caminho 8501" d="M275.982,213.371c0,1.183,0,2.388-.066,3.6-.641,16.586-6.635,35.384-22.194,38.879-24.2,5.4-22.791-35.384-22.791-35.384s32.577-36.844,40.285-28.308c1.316,1.46,2.433,4.091,3.262,7.5.155.675.31,1.4.453,2.156A66.549,66.549,0,0,1,275.982,213.371Z" transform="translate(-211.436 -60.831)" fill="#f18918"/>
        <path id="Caminho_8502" data-name="Caminho 8502" d="M271.954,200.926,260.4,212.614l-1.338-1.272L271.5,198.77C271.655,199.445,271.81,200.13,271.954,200.926Z" transform="translate(-208.458 -59.997)" fill="#0f174d"/>
        <path id="Caminho_8503" data-name="Caminho 8503" d="M272.473,211.22c0,1.183,0,2.388-.066,3.6l-6.734,10.836-1.592-.951Z" transform="translate(-207.927 -58.68)" fill="#0f174d"/>
        <ellipse id="Elipse_342" data-name="Elipse 342" cx="3.03" cy="2.963" rx="3.03" ry="2.963" transform="translate(44.631 112.125)" fill="#0f174d"/>
        <path id="Caminho_8504" data-name="Caminho 8504" d="M351.177,231.38,293.443,465.846,243.98,452.577l52.968-176.06Z" transform="translate(-210.054 -56.548)" fill="#fcf4e5"/>
        <path id="Caminho_8505" data-name="Caminho 8505" d="M419.388,296.18l56.032,9.653s17.616,54.448-18.976,70.371S403.1,324.41,403.1,324.41Z" transform="translate(-193.217 -49.694)" fill="#0f174d"/>
        <path id="Caminho_8506" data-name="Caminho 8506" d="M379.38,298.1c.177,1.106.354,2.211.586,3.317,3.008,15.16,11.257,31.747,26.141,32.775,23.111,1.6,15.868-35.882,15.868-35.882s-35.386-29.446-41.291-20.49a16.783,16.783,0,0,0-1.913,7.364c-.055.652-.088,1.349-.111,2.057A62.911,62.911,0,0,0,379.38,298.1Z" transform="translate(-195.804 -51.815)" fill="#f18918"/>
        <path id="Caminho_8507" data-name="Caminho 8507" d="M378.66,286.367l12.363,9.178,1.106-1.36-13.27-9.874A11.271,11.271,0,0,0,378.66,286.367Z" transform="translate(-195.803 -50.949)" fill="#0f174d"/>
        <path id="Caminho_8508" data-name="Caminho 8508" d="M379.31,296c.177,1.106.354,2.211.586,3.317l7.8,9.067,1.327-1.106Z" transform="translate(-195.734 -49.713)" fill="#0f174d"/>
      </g>
      <path id="Caminho_8509" data-name="Caminho 8509" d="M50.193,274.63l9.222,72.616H33.34Z" transform="translate(2.422 52.368)" fill="#9dc5c6"/>
      <ellipse id="Elipse_343" data-name="Elipse 343" cx="36.746" cy="36.004" rx="36.746" ry="36.004" transform="translate(145.392 161.94)" fill="#0f174d"/>
      <ellipse id="Elipse_344" data-name="Elipse 344" cx="7.465" cy="26.738" rx="7.465" ry="26.738" transform="translate(158.144 158.014) rotate(-58.91)" fill="#0f174d"/>
      <ellipse id="Elipse_345" data-name="Elipse 345" cx="7.531" cy="26.484" rx="7.531" ry="26.484" transform="translate(176.464 151.173) rotate(-30.49)" fill="#0f174d"/>
      <path id="Caminho_8510" data-name="Caminho 8510" d="M48.626,280.562l85.49-52.17,2.3-1.4L150.4,218.44l28.143,3.317,2.554.3,11.312,1.338,12.319,11.688,1.825,1.7,67.632,63.991h0v.022l10.185,52.391H48.15Z" transform="translate(3.989 46.425)" fill="#c4d3ea"/>
      <path id="Caminho_8511" data-name="Caminho 8511" d="M125.89,227.574l24.781,18.212,15.935-15.613-1.692-1.659-.1-.1-2.2,2.156-.044.044-12.131,11.909L128.19,226.17Z" transform="translate(12.214 47.242)" fill="#0f174d"/>
      <path id="Caminho_8512" data-name="Caminho 8512" d="M170.64,228.1l2.267,2.234,13.59,13.335,7.1-7.718-1.825-1.7-5.374,5.838-11.346-11.168-2.621-2.576Z" transform="translate(16.95 47.26)" fill="#0f174d"/>
      <path id="Caminho_8513" data-name="Caminho 8513" d="M165.74,218.6l2.51-.265L179.784,353.2H177.24Z" transform="translate(16.431 46.413)" fill="#0f174d"/>
      <path id="Caminho_8514" data-name="Caminho 8514" d="M158.47,223.039l2.521-.2,7.94,129.883H166.4Z" transform="translate(15.662 46.89)" fill="#0f174d"/>
      <path id="Caminho_8515" data-name="Caminho 8515" d="M182.618,227.983,140.63,223.03V175.15h41.988Z" transform="translate(13.774 41.846)" fill="#ed7666"/>
      <path id="Caminho_8516" data-name="Caminho 8516" d="M181.074,202l-25.854-3.14,25.854,15.459Z" transform="translate(15.318 44.354)"/>
      <path id="Caminho_8517" data-name="Caminho 8517" d="M183.225,212.395,142,205.373V162.314c0-15.735,13.635-28.484,30.465-28.484h0c16.819,0,30.465,12.749,30.465,28.484V196.25C202.952,208.027,194.46,214.484,183.225,212.395Z" transform="translate(13.919 37.476)" fill="#ed7666"/>
      <path id="Caminho_8518" data-name="Caminho 8518" d="M180.613,185c-1.836,0-3.251,3.66-3.163,8.105s1.648,8.017,3.472,7.984,3.251-3.66,3.163-8.105S182.482,184.934,180.613,185Z" transform="translate(17.67 42.888)" fill="#0f174d"/>
      <path id="Caminho_8519" data-name="Caminho 8519" d="M198,166.565v15.558a6.193,6.193,0,0,1-1.8.276c-4,0-7.265-3.616-7.265-8.05s3.262-8.05,7.265-8.05a6.633,6.633,0,0,1,1.8.265Z" transform="translate(18.885 40.91)" fill="#c75450"/>
      <ellipse id="Elipse_346" data-name="Elipse 346" cx="13.889" cy="13.612" rx="13.889" ry="13.612" transform="translate(136.501 197.955)" fill="#ed7666"/>
      <ellipse id="Elipse_347" data-name="Elipse 347" cx="8.703" cy="8.525" rx="8.703" ry="8.525" transform="translate(170.239 206.978)" fill="#c75450"/>
      <path id="Caminho_8520" data-name="Caminho 8520" d="M171.45,183.7l19.407,1.272S180.263,198.13,171.45,183.7Z" transform="translate(17.035 42.75)" fill="#fff"/>
      <path id="Caminho_8521" data-name="Caminho 8521" d="M171.217,167.258a2.753,2.753,0,1,1-2.753-2.7A2.753,2.753,0,0,1,171.217,167.258Z" transform="translate(16.428 40.726)" fill="#0f174d"/>
      <path id="Caminho_8522" data-name="Caminho 8522" d="M192.967,167.258a2.753,2.753,0,1,1-2.742-2.7A2.72,2.72,0,0,1,192.967,167.258Z" transform="translate(18.729 40.726)" fill="#0f174d"/>
      <path id="Caminho_8523" data-name="Caminho 8523" d="M182.637,178.943a2.488,2.488,0,0,0,1.626-.686,2.367,2.367,0,0,0,.73-2.024V173.58h-2.212l-.077,3.129h-.088l-.321.066H177.13v2.156h5.164a1.235,1.235,0,0,0,.343.011Z" transform="translate(17.636 41.68)" fill="#0f174d"/>
      <path id="Caminho_8524" data-name="Caminho 8524" d="M140.63,218.45l42.021,4.954s-2.311,9.432-14.232,9.432S140.63,218.45,140.63,218.45Z" transform="translate(13.774 46.426)" fill="#ed7666"/>
      <ellipse id="Elipse_348" data-name="Elipse 348" cx="3.262" cy="8.194" rx="3.262" ry="8.194" transform="translate(197.388 225.367) rotate(-69.54)" fill="#0f174d"/>
      <path id="Caminho_8525" data-name="Caminho 8525" d="M165.213,184.711c.42,1.747,4.9,2.212,9.952,1.028s8.847-3.561,8.448-5.308-4.9-2.212-9.952-1.039S164.793,182.952,165.213,184.711Z" transform="translate(16.372 42.226)" fill="#0f174d"/>
      <rect id="Retângulo_1727" data-name="Retângulo 1727" width="9.985" height="43.003" transform="translate(155.974 174.148)" fill="#0f174d"/>
      <path id="Caminho_8526" data-name="Caminho 8526" d="M6.126,22.889H0V0H15.9V13.114a9.775,9.775,0,0,1-9.775,9.775Z" transform="translate(162.178 169.205)" fill="#0f174d"/>
      <rect id="Retângulo_1728" data-name="Retângulo 1728" width="26.23" height="9.587" transform="translate(173.811 169.205)" fill="#0f174d"/>
      <path id="Caminho_8527" data-name="Caminho 8527" d="M184.017,136.4s9.211,4.313,13.1,12l-3.406,12.44-21.851-.553L162,141.044h21.973Z" transform="translate(16.035 37.748)" fill="none"/>
      <path id="Caminho_8528" data-name="Caminho 8528" d="M67.387,233.119s-48.092-30.7-49.673-23.6S58.95,244.188,58.95,244.188Z" transform="translate(0.764 45.369)" fill="#ed7666"/>
      <path id="Caminho_8529" data-name="Caminho 8529" d="M55.114,261.658S12.2,224.56,9.632,231.349s35.53,40.106,35.53,40.106Z" transform="translate(-0.1 47.702)" fill="#ed7666"/>
      <path id="Caminho_8530" data-name="Caminho 8530" d="M41.36,270.286c8.946,10.571,24.427,10.66,35.231,2.444s12.308-23.453,3.317-34.024-24.914-12.484-35.718-4.213S32.414,259.715,41.36,270.286Z" transform="translate(2.629 47.578)" fill="#ed7666"/>
      <path id="Caminho_8531" data-name="Caminho 8531" d="M59.138,242.323s-49.01-31.481-51.6-24.106,40.915,35.705,40.915,35.705Z" transform="translate(-0.32 46.283)" fill="#ed7666"/>
      <path id="Caminho_8532" data-name="Caminho 8532" d="M83.345,248.985s-3.019-7.475-11.2-18.135S48.81,208.48,45.117,209.84s20.524,39.94,20.524,39.94Z" transform="translate(3.627 45.504)" fill="#ed7666"/>
      <path id="Caminho_8533" data-name="Caminho 8533" d="M55.629,259.753l1.46-2.212a19.03,19.03,0,0,1-6.513-9.178c-1.747-4.954,4.136-11.71,6.557-13.9l.73-.675L50.9,220.52l-2.355,1.194,6.06,11.5c-2.212,2.212-8.847,9.532-6.524,15.956A21.363,21.363,0,0,0,55.629,259.753Z" transform="translate(3.929 46.645)" fill="#0f174d"/>
      <path id="Caminho_8534" data-name="Caminho 8534" d="M38.24,249.2a69.862,69.862,0,0,1,3.848-8.791,63.925,63.925,0,0,1,5.673-7.641l-2.046-1.659a67.828,67.828,0,0,0-5.982,8.116,68.162,68.162,0,0,0-4,9.156Z" transform="translate(2.674 47.765)" fill="#0f174d"/>
      <path id="Caminho_8535" data-name="Caminho 8535" d="M57.89,258.229l28.331-4.589s7.962,50.865,6,96.765H26.33C34.878,306.252,57.89,258.229,57.89,258.229Z" transform="translate(1.68 50.148)" fill="#ed7666"/>
      <path id="Caminho_8536" data-name="Caminho 8536" d="M588.97,159.725s-45.15-2.621-48.092,31.16-32.069,20-32.069,20Z" transform="translate(52.733 40.21)"/>
      <ellipse id="Elipse_349" data-name="Elipse 349" cx="48.39" cy="47.415" rx="48.39" ry="47.415" transform="translate(639.181 139.969)"/>
      <ellipse id="Elipse_350" data-name="Elipse 350" cx="41.158" cy="38.492" rx="41.158" ry="38.492" transform="translate(601.628 196.318)"/>
      <path id="União_10" data-name="União 10" d="M0,18.422l30.864,43.49a55.446,55.446,0,0,0,7.276,8.459A35.487,35.487,0,0,0,44.7,75.38a5.982,5.982,0,0,0,.6.332A30.566,30.566,0,0,0,60.6,79.67v47.935h42.032V79.67h0l55.412-33.858,17.561-10.8L198.128,21.3c-4.423.984-9.531,1.9-15.348,2.632q-5.275.663-11.357,1.106a289.671,289.671,0,0,1-44.741-.742c-14.309-1.26-28-3.1-40.66-5.2q-4.988-.818-9.776-1.691c-12.485-2.289-23.786-4.777-33.5-7.144C20.3,4.788,6.436,0,6.436,0Z" transform="translate(724.396 387.848) rotate(180)" fill="#a35a5f"/>
      <path id="Caminho_8538" data-name="Caminho 8538" d="M563.27,241.14,589.146,238,563.27,253.47Z" transform="translate(58.495 48.493)"/>
      <path id="Caminho_8539" data-name="Caminho 8539" d="M605.727,248.292V198.743a30.686,30.686,0,0,0-30.5-30.873h0a30.686,30.686,0,0,0-30.5,30.873V228.6C544.719,265.078,605.727,248.292,605.727,248.292Z" transform="translate(56.533 41.076)" fill="#a35a5f"/>
      <path id="Caminho_8540" data-name="Caminho 8540" d="M544.72,205.665v15.58a6.634,6.634,0,0,0,1.8.265c4.014,0,7.276-3.616,7.276-8.05s-3.262-8.061-7.276-8.061A6.635,6.635,0,0,0,544.72,205.665Z" transform="translate(56.532 45.046)" fill="#c75450"/>
      <path id="Caminho_8541" data-name="Caminho 8541" d="M42.1,42.218H32.069A32.068,32.068,0,0,1,0,10.151V0H42.021V42.218Z" transform="translate(621.709 202.212)"/>
      <ellipse id="Elipse_351" data-name="Elipse 351" cx="13.911" cy="13.634" rx="13.911" ry="13.634" transform="translate(649.886 240.239)" fill="#a35a5f"/>
      <path id="Caminho_8542" data-name="Caminho 8542" d="M571.19,213.727a8.714,8.714,0,1,0,8.714-8.537,8.625,8.625,0,0,0-8.714,8.537Z" transform="translate(59.333 45.023)" fill="#c75450"/>
      <path id="Caminho_8543" data-name="Caminho 8543" d="M573.41,221.39l-19.44.752S564.177,235.6,573.41,221.39Z" transform="translate(57.511 46.737)" fill="#fff"/>
      <path id="Caminho_8544" data-name="Caminho 8544" d="M571.19,206.368a2.753,2.753,0,1,0,2.754-2.7,2.72,2.72,0,0,0-2.754,2.7Z" transform="translate(59.333 44.863)"/>
      <path id="Caminho_8545" data-name="Caminho 8545" d="M549.41,206.368a2.753,2.753,0,1,0,2.753-2.7,2.72,2.72,0,0,0-2.753,2.7Z" transform="translate(57.028 44.863)"/>
      <path id="Caminho_8546" data-name="Caminho 8546" d="M560.057,218.265a2.446,2.446,0,0,0,.409,0l6.093-.973-.354-2.123-6.093.973v-.066l-.31-.354V210.58h-2.212v5.153a2.278,2.278,0,0,0,.752,1.9A2.488,2.488,0,0,0,560.057,218.265Z" transform="translate(57.893 45.593)"/>
      <path id="Caminho_8547" data-name="Caminho 8547" d="M685.719,326.559v58.793a202.172,202.172,0,0,1-20.159,6.325l-1.482.376-1.7.409A204.579,204.579,0,0,1,614.6,398.08c-55.29,0-115.447-10.626-151.717-46.155-2.411-2.366,2.09-13.579,2.986-18.61a55.614,55.614,0,0,1,3.859-9.952c.686-1.382,1.438-2.742,2.212-4.047a49.238,49.238,0,0,1,6.358-8.371l.122-.122,1.006-.221,2.068-.431,1.272-.243,1.858-.354c1.681-.3,3.439-.586,5.275-.851l.763-.111,2.82-.376h.288c.674-.077,1.349-.166,2.035-.232q4.423-.509,9.311-.84c5.839-.409,12.23-.608,19.23-.553,3.948,0,8.072.144,12.4.365h.232l2.477.133,2.687.166c2.51.166,5.1.365,7.741.6,2.09.188,4.18.376,6.237.6,1.017.089,2.046.2,3.074.31l2.433.265q5.728.63,11.257,1.382l3,.409c5.021.686,9.952,1.449,14.663,2.212l2.477.409q3.716.63,7.3,1.294c7.276,1.327,14.154,2.731,20.557,4.136,3.826.852,7.5,1.7,10.959,2.532l1.979.476,1.968.475,1.648.409.486.122,1.106.287c.962.243,1.924.487,2.842.741l2.709.7,4.357,1.172,1.559.431.785.221.774.21,2.377.674,1.426.409.686.2.686.2,4.047,1.194,1.106.332.243.077.929.288h.077l2.466.763h.144l.365.122,1.106.354.509.166c1.272.409,1.935.641,1.935.641l6.436-18.4Z" transform="translate(47.799 55.749)" fill="#dee3e1"/>
      <path id="Caminho_8548" data-name="Caminho 8548" d="M469,322.425c11.113-2.145,39.29-6.115,81.62-1.836A586.991,586.991,0,0,1,650.873,339.94l1.106-3.317a586.838,586.838,0,0,0-100.972-19.495c-39.809-4.036-66.846-.984-79.729,1.294A45.683,45.683,0,0,0,469,322.425Z" transform="translate(48.52 56.654)" fill="#838c9c"/>
      <path id="Caminho_8549" data-name="Caminho 8549" d="M730.237,356.117a201.562,201.562,0,0,1-79.11,40.581l-1.482.376-23.355-54.238-1.769-4.1-5.109-11.854h0l-6.933-16.144-7.2-16.752c-.1-.243-.21-.5-.3-.741-1.46-3.439-2.743-6.845-3.749-10.085-5.208-16.465-3.782-28.75,13.956-22.259.542.2,1.106.387,1.6.6l.674.254c2.576.973,5.186,2.035,7.873,3.185C659.543,279.6,701.464,308.745,730.237,356.117Z" transform="translate(62.232 50.729)" fill="#a35a5f"/>
      <path id="Caminho_8550" data-name="Caminho 8550" d="M649.942,391.818l-1.482.376-1.7.409-23.686-55.178-1.758-4.091-5.065-11.776h0l-6.458-15.049,1.5-.619,1.493-.619,7.409,17.25h0l5.087,11.876,1.77,4.125Z" transform="translate(63.417 55.608)"/>
      <path id="Caminho_8551" data-name="Caminho 8551" d="M578,318.3l7.354,5.075,2.764-3.859,19.064-26.538,19.042-26.538,1.316-1.836c-2.687-1.106-5.3-2.211-7.873-3.174a6.081,6.081,0,0,0-.6-.332l-.066.088-15.57,21.75-25.113,34.887Z" transform="translate(60.053 50.937)" fill="#dee3e1"/>
      <path id="Caminho_8552" data-name="Caminho 8552" d="M490.63,310.4l7.619,4.688,3.914-6.071,13.358-20.777-17.538,10.737-7.177,11.135Z" transform="translate(50.808 53.807)" fill="#dee3e1"/>
    </g>
  </g>
</svg>
