<?xml version="1.0" encoding="utf-8"?>
<!-- Generator: Adobe Illustrator 23.0.3, SVG Export Plug-In . SVG Version: 6.00 Build 0)  -->
<svg version="1.1" id="Camada_1" text-rendering="geometricPrecision" shape-rendering="geometricPrecision"
	 xmlns="http://www.w3.org/2000/svg" xmlns:xlink="http://www.w3.org/1999/xlink" x="0px" y="0px" viewBox="0 0 117 49"
	 style="enable-background:new 0 0 117 49;" xml:space="preserve">
<style type="text/css">
	.st0{fill:#FFFFFF;}
</style>
<g>
	<path class="st0" d="M22,1C9.8,1,0,10.8,0,23c0,5.2,1.8,10,4.9,13.8l-2.7,5.3c-0.4,0.8-0.2,1.7,0.3,2.3C2.9,44.8,3.5,45,4,45
		c0.3,0,0.5-0.1,0.8-0.2l6.3-2.7C14.3,44,18,45,22,45c12.2,0,22-9.8,22-22S34.2,1,22,1z M26.5,36c0,2.5-2,4.5-4.5,4.5
		s-4.5-2-4.5-4.5V23c0-2.5,2-4.5,4.5-4.5s4.5,2,4.5,4.5V36z M22,15.5c-2.5,0-4.5-2-4.5-4.5s2-4.5,4.5-4.5s4.5,2,4.5,4.5
		S24.5,15.5,22,15.5z"/>
	<path class="st0" d="M49.4,16.1h2.9l0.6,1.9h1.8l-2.8-7.9h-2L47,18h1.8L49.4,16.1z M50.8,11.3c0,0.1,0.1,0.3,0.1,0.5
		c0.1,0.2,0.4,1.2,0.9,2.9h-2C50.3,12.9,50.7,11.8,50.8,11.3z"/>
	<path class="st0" d="M59.7,17.7v-1.4c-0.3,0.2-0.5,0.3-0.8,0.4c-0.3,0.1-0.6,0.1-0.9,0.1c-0.9,0-1.3-0.6-1.3-1.8
		c0-1.2,0.4-1.8,1.3-1.8c0.2,0,0.4,0,0.7,0.1s0.5,0.2,0.7,0.3l0.5-1.3c-0.6-0.3-1.2-0.4-1.9-0.4c-0.9,0-1.7,0.3-2.2,0.8
		S55.1,14,55.1,15c0,2.1,0.9,3.1,2.8,3.1c0.4,0,0.8,0,1-0.1C59.2,17.9,59.4,17.8,59.7,17.7z"/>
	<path class="st0" d="M63.8,18.1c0.5,0,0.9,0,1.2-0.1c0.3-0.1,0.6-0.2,0.9-0.3v-1.3c-0.4,0.2-0.7,0.3-1,0.4s-0.7,0.1-1,0.1
		c-0.5,0-0.8-0.1-1.1-0.4s-0.4-0.6-0.4-1.1h3.9v-0.8c0-0.9-0.2-1.5-0.7-2s-1.1-0.7-2-0.7c-0.9,0-1.6,0.3-2.1,0.8
		C61,13.3,60.7,14,60.7,15c0,1,0.3,1.7,0.8,2.3C62.1,17.8,62.9,18.1,63.8,18.1z M62.8,13.4c0.2-0.2,0.5-0.3,0.8-0.3
		c0.3,0,0.6,0.1,0.8,0.3c0.2,0.2,0.3,0.5,0.3,0.9h-2.3C62.5,13.9,62.6,13.6,62.8,13.4z"/>
	<path class="st0" d="M71.8,16.2c0-0.3-0.1-0.6-0.2-0.8c-0.1-0.2-0.3-0.4-0.5-0.6c-0.2-0.2-0.6-0.3-1-0.5c-0.5-0.2-0.9-0.4-1-0.5
		c-0.2-0.1-0.2-0.2-0.2-0.4c0-0.3,0.2-0.4,0.7-0.4c0.3,0,0.5,0,0.8,0.1c0.3,0.1,0.5,0.2,0.8,0.3l0.5-1.2c-0.7-0.3-1.4-0.5-2.1-0.5
		c-0.8,0-1.3,0.1-1.8,0.4c-0.4,0.3-0.6,0.7-0.6,1.2c0,0.3,0,0.6,0.1,0.8s0.3,0.4,0.5,0.6c0.2,0.2,0.6,0.3,1,0.5
		c0.3,0.1,0.6,0.3,0.8,0.4c0.2,0.1,0.3,0.2,0.4,0.3c0.1,0.1,0.1,0.2,0.1,0.3c0,0.3-0.3,0.5-0.9,0.5c-0.3,0-0.6,0-1-0.1
		c-0.4-0.1-0.7-0.2-1-0.4v1.4c0.3,0.1,0.6,0.2,0.9,0.3c0.3,0.1,0.7,0.1,1.1,0.1c0.9,0,1.5-0.2,1.9-0.5
		C71.6,17.3,71.8,16.8,71.8,16.2z"/>
	<path class="st0" d="M77.3,16.2c0-0.3-0.1-0.6-0.2-0.8c-0.1-0.2-0.3-0.4-0.5-0.6c-0.2-0.2-0.6-0.3-1-0.5c-0.5-0.2-0.9-0.4-1-0.5
		c-0.2-0.1-0.2-0.2-0.2-0.4c0-0.3,0.2-0.4,0.7-0.4c0.3,0,0.5,0,0.8,0.1c0.3,0.1,0.5,0.2,0.8,0.3l0.5-1.2c-0.7-0.3-1.4-0.5-2.1-0.5
		c-0.8,0-1.3,0.1-1.8,0.4c-0.4,0.3-0.6,0.7-0.6,1.2c0,0.3,0,0.6,0.1,0.8c0.1,0.2,0.3,0.4,0.5,0.6c0.2,0.2,0.6,0.3,1,0.5
		c0.3,0.1,0.6,0.3,0.8,0.4c0.2,0.1,0.3,0.2,0.4,0.3c0.1,0.1,0.1,0.2,0.1,0.3c0,0.3-0.3,0.5-0.9,0.5c-0.3,0-0.6,0-1-0.1
		c-0.4-0.1-0.7-0.2-1-0.4v1.4c0.3,0.1,0.6,0.2,0.9,0.3c0.3,0.1,0.7,0.1,1.1,0.1c0.9,0,1.5-0.2,1.9-0.5S77.3,16.8,77.3,16.2z"/>
	<path class="st0" d="M82.6,12.3c-0.4-0.3-0.9-0.4-1.5-0.4c-0.9,0-1.6,0.3-2.2,0.8c-0.5,0.5-0.8,1.3-0.8,2.3c0,0.6,0.1,1.2,0.4,1.7
		s0.6,0.8,1,1.1c0.4,0.3,0.9,0.4,1.5,0.4c0.9,0,1.6-0.3,2.2-0.8S84,16,84,15c0-0.6-0.1-1.2-0.4-1.6S83.1,12.5,82.6,12.3z M82,16.3
		c-0.2,0.3-0.5,0.5-0.9,0.5c-0.4,0-0.8-0.2-1-0.5s-0.3-0.8-0.3-1.3c0-0.6,0.1-1,0.3-1.3c0.2-0.3,0.5-0.4,0.9-0.4
		c0.4,0,0.8,0.1,1,0.4s0.3,0.7,0.3,1.3C82.3,15.6,82.2,16,82,16.3z"/>
	<path class="st0" d="M93.2,18v-4c0-0.7-0.2-1.2-0.6-1.6c-0.4-0.4-1-0.5-1.9-0.5c-0.8,0-1.6,0.2-2.3,0.5l0.5,1.1
		c0.6-0.3,1.2-0.4,1.7-0.4c0.6,0,0.9,0.3,0.9,0.9v0.3l-1,0c-0.9,0-1.6,0.2-2,0.5c-0.4,0.3-0.7,0.8-0.7,1.4c0,0.6,0.2,1.1,0.5,1.4
		c0.3,0.3,0.8,0.5,1.4,0.5c0.5,0,0.8-0.1,1.1-0.2c0.3-0.1,0.6-0.4,0.9-0.7h0L92,18H93.2z M91.5,15.7c0,0.4-0.1,0.7-0.3,0.9
		s-0.5,0.3-0.9,0.3c-0.5,0-0.8-0.2-0.8-0.7c0-0.3,0.1-0.6,0.3-0.7s0.6-0.2,1.1-0.3l0.6,0V15.7z"/>
	<path class="st0" d="M90.6,11.3h1.1v-0.1c-0.6-0.7-1-1.3-1.3-1.6h-1.8v0.1c0.2,0.2,0.6,0.5,1,0.9C90.1,10.9,90.4,11.2,90.6,11.3z"
		/>
	<rect x="48" y="23.1" class="st0" width="1.7" height="7.9"/>
	<path class="st0" d="M54.9,24.9c-0.4,0-0.8,0.1-1.1,0.2c-0.3,0.1-0.6,0.4-0.8,0.7H53L52.8,25h-1.3v6h1.6v-2.8
		c0-0.7,0.1-1.2,0.3-1.5c0.2-0.3,0.5-0.5,1-0.5c0.3,0,0.6,0.1,0.7,0.3s0.2,0.5,0.2,1V31H57v-3.9c0-0.7-0.2-1.3-0.5-1.6
		S55.6,24.9,54.9,24.9z"/>
	<path class="st0" d="M60.8,24.1c0.1-0.1,0.3-0.2,0.5-0.2c0.3,0,0.6,0.1,0.9,0.2l0.4-1.2c-0.4-0.2-0.9-0.3-1.5-0.3
		c-0.7,0-1.3,0.2-1.6,0.5c-0.3,0.3-0.5,0.8-0.5,1.5V25l-0.9,0.4v0.8H59V31h1.6v-4.8H62V25h-1.4v-0.4C60.6,24.4,60.7,24.2,60.8,24.1z
		"/>
	<path class="st0" d="M67.1,25.3c-0.4-0.3-0.9-0.4-1.5-0.4c-0.9,0-1.6,0.3-2.2,0.8c-0.5,0.5-0.8,1.3-0.8,2.3c0,0.6,0.1,1.2,0.4,1.7
		s0.6,0.8,1,1.1c0.4,0.3,0.9,0.4,1.5,0.4c0.9,0,1.6-0.3,2.2-0.8s0.8-1.3,0.8-2.3c0-0.6-0.1-1.2-0.4-1.6
		C67.9,25.9,67.5,25.5,67.1,25.3z M66.5,29.3c-0.2,0.3-0.5,0.5-0.9,0.5c-0.4,0-0.8-0.2-1-0.5s-0.3-0.8-0.3-1.3c0-0.6,0.1-1,0.3-1.3
		c0.2-0.3,0.5-0.4,0.9-0.4c0.4,0,0.8,0.1,1,0.4s0.3,0.7,0.3,1.3C66.8,28.6,66.7,29,66.5,29.3z"/>
	<path class="st0" d="M72.1,25.2c-0.3,0.2-0.6,0.5-0.8,0.8h-0.1L71,25h-1.2v6h1.6v-3.1c0-0.5,0.1-0.9,0.4-1.1
		c0.3-0.3,0.7-0.4,1.2-0.4c0.2,0,0.4,0,0.5,0.1l0.1-1.5c-0.1,0-0.3,0-0.6,0C72.8,24.9,72.4,25,72.1,25.2z"/>
	<path class="st0" d="M81.8,24.9c-0.4,0-0.7,0.1-1.1,0.2c-0.3,0.2-0.6,0.4-0.7,0.7h-0.1c-0.3-0.6-0.9-0.9-1.8-0.9
		c-0.4,0-0.7,0.1-1,0.2c-0.3,0.2-0.5,0.4-0.7,0.6h-0.1L76,25h-1.3v6h1.6v-2.8c0-0.7,0.1-1.2,0.3-1.5c0.2-0.3,0.5-0.5,0.9-0.5
		c0.3,0,0.5,0.1,0.7,0.3s0.2,0.5,0.2,1V31h1.6v-3c0-0.6,0.1-1.1,0.3-1.4c0.2-0.3,0.5-0.4,0.9-0.4c0.3,0,0.5,0.1,0.7,0.3
		s0.2,0.5,0.2,1V31h1.6v-3.9c0-0.8-0.2-1.3-0.5-1.7C83,25.1,82.5,24.9,81.8,24.9z"/>
	<path class="st0" d="M88.1,24.9c-0.8,0-1.6,0.2-2.3,0.5l0.5,1.1c0.6-0.3,1.2-0.4,1.7-0.4c0.6,0,0.9,0.3,0.9,0.9v0.3l-1,0
		c-0.9,0-1.6,0.2-2,0.5c-0.4,0.3-0.7,0.8-0.7,1.4c0,0.6,0.2,1.1,0.5,1.4s0.8,0.5,1.4,0.5c0.5,0,0.8-0.1,1.1-0.2
		c0.3-0.1,0.6-0.4,0.9-0.7h0l0.3,0.8h1.1v-4c0-0.7-0.2-1.2-0.6-1.6C89.5,25,88.9,24.9,88.1,24.9z M88.9,28.7c0,0.4-0.1,0.7-0.3,0.9
		c-0.2,0.2-0.5,0.3-0.9,0.3c-0.5,0-0.8-0.2-0.8-0.7c0-0.3,0.1-0.6,0.3-0.7s0.6-0.2,1.1-0.3l0.6,0V28.7z"/>
	<path class="st0" d="M94.8,26.2c0.2,0,0.4,0,0.7,0.1s0.5,0.2,0.7,0.3l0.5-1.3c-0.6-0.3-1.2-0.4-1.9-0.4c-0.9,0-1.7,0.3-2.2,0.8
		c-0.5,0.5-0.8,1.3-0.8,2.3c0,1.8,0.7,2.7,2.1,3l-0.4,0.8c0.6,0.1,0.9,0.3,0.9,0.6c0,0.2-0.1,0.3-0.4,0.3c-0.1,0-0.2,0-0.4,0
		c-0.2,0-0.3-0.1-0.4-0.1v0.9c0.2,0.1,0.5,0.1,0.8,0.1c0.6,0,1-0.1,1.3-0.3c0.3-0.2,0.4-0.5,0.4-1c0-0.2-0.1-0.4-0.2-0.6
		s-0.4-0.3-0.6-0.4l0.1-0.2c0.3,0,0.6,0,0.8-0.1c0.3-0.1,0.5-0.2,0.8-0.3v-1.4c-0.3,0.2-0.5,0.3-0.8,0.4c-0.3,0.1-0.6,0.1-0.9,0.1
		c-0.9,0-1.3-0.6-1.3-1.8C93.5,26.8,94,26.2,94.8,26.2z"/>
	<path class="st0" d="M99.2,23.9c0.1-0.1,0.2-0.1,0.3-0.1c0.1,0,0.3,0,0.4,0.1c0.1,0.1,0.3,0.1,0.4,0.2c0.1,0.1,0.3,0.1,0.4,0.2
		c0.1,0.1,0.3,0.1,0.4,0.1c0.4,0,0.8-0.1,1-0.4c0.3-0.3,0.4-0.7,0.4-1.2h-0.8c0,0.2-0.1,0.3-0.2,0.4c-0.1,0.1-0.2,0.1-0.3,0.1
		c-0.1,0-0.3,0-0.4-0.1c-0.1-0.1-0.3-0.1-0.4-0.2c-0.1-0.1-0.3-0.1-0.4-0.2c-0.1-0.1-0.3-0.1-0.4-0.1c-0.4,0-0.8,0.1-1,0.4
		c-0.3,0.3-0.4,0.7-0.4,1.2H99C99,24.2,99.1,24,99.2,23.9z"/>
	<path class="st0" d="M100.4,24.9c-0.8,0-1.6,0.2-2.3,0.5l0.5,1.1c0.6-0.3,1.2-0.4,1.7-0.4c0.6,0,0.9,0.3,0.9,0.9v0.3l-1,0
		c-0.9,0-1.6,0.2-2,0.5c-0.4,0.3-0.7,0.8-0.7,1.4c0,0.6,0.2,1.1,0.5,1.4c0.3,0.3,0.8,0.5,1.4,0.5c0.5,0,0.8-0.1,1.1-0.2
		c0.3-0.1,0.6-0.4,0.9-0.7h0l0.3,0.8h1.1v-4c0-0.7-0.2-1.2-0.6-1.6C101.8,25,101.2,24.9,100.4,24.9z M101.2,28.7
		c0,0.4-0.1,0.7-0.3,0.9s-0.5,0.3-0.9,0.3c-0.5,0-0.8-0.2-0.8-0.7c0-0.3,0.1-0.6,0.3-0.7s0.6-0.2,1.1-0.3l0.6,0V28.7z"/>
	<path class="st0" d="M109.6,26.3c-0.2-0.5-0.6-0.8-1-1.1c-0.4-0.3-0.9-0.4-1.5-0.4c-0.9,0-1.6,0.3-2.2,0.8
		c-0.5,0.5-0.8,1.3-0.8,2.3c0,0.6,0.1,1.2,0.4,1.7s0.6,0.8,1,1.1c0.4,0.3,0.9,0.4,1.5,0.4c0.9,0,1.6-0.3,2.2-0.8S110,29,110,28
		C110,27.4,109.9,26.8,109.6,26.3z M108,29.3c-0.2,0.3-0.5,0.5-0.9,0.5c-0.4,0-0.8-0.2-1-0.5s-0.3-0.8-0.3-1.3c0-0.6,0.1-1,0.3-1.3
		c0.2-0.3,0.5-0.4,0.9-0.4c0.4,0,0.8,0.1,1,0.4s0.3,0.7,0.3,1.3C108.3,28.6,108.2,29,108,29.3z"/>
</g>
</svg>
