<svg width="40" height="40" viewBox="0 0 40 40" fill="none" xmlns="http://www.w3.org/2000/svg">
<circle cx="20" cy="20" r="19.5" fill="white" stroke="#1351B4"/>
<path d="M27.6361 12.4263C26.212 11.76 24.6893 11.2757 23.0973 11C22.9018 11.3535 22.6734 11.8289 22.5159 12.2071C20.8236 11.9526 19.1469 11.9526 17.4857 12.2071C17.3283 11.8289 17.0947 11.3535 16.8974 11C15.3037 11.2757 13.7793 11.7617 12.3552 12.4298C9.48276 16.7704 8.70409 21.0032 9.09342 25.1759C10.9986 26.5986 12.8449 27.4629 14.66 28.0284C15.1082 27.4116 15.5079 26.7559 15.8522 26.0649C15.1964 25.8157 14.5683 25.5082 13.9748 25.1512C14.1323 25.0345 14.2863 24.9125 14.4351 24.7871C18.055 26.4802 21.9882 26.4802 25.5648 24.7871C25.7154 24.9125 25.8694 25.0345 26.0251 25.1512C25.4299 25.5099 24.8 25.8174 24.1442 26.0666C24.4886 26.7559 24.8865 27.4134 25.3364 28.0301C27.1533 27.4646 29.0014 26.6004 30.9065 25.1759C31.3633 20.3387 30.1261 16.1448 27.6361 12.4263ZM16.3454 22.6097C15.2587 22.6097 14.3676 21.5952 14.3676 20.3599C14.3676 19.1245 15.2397 18.1083 16.3454 18.1083C17.4511 18.1083 18.3423 19.1227 18.3232 20.3599C18.325 21.5952 17.4511 22.6097 16.3454 22.6097ZM23.6545 22.6097C22.5678 22.6097 21.6767 21.5952 21.6767 20.3599C21.6767 19.1245 22.5488 18.1083 23.6545 18.1083C24.7602 18.1083 25.6514 19.1227 25.6323 20.3599C25.6323 21.5952 24.7602 22.6097 23.6545 22.6097Z" fill="#1351B4"/>
</svg>
