<svg width="28" height="32" viewBox="0 0 28 32" fill="none" xmlns="http://www.w3.org/2000/svg">
<path d="M27.5625 22.6719V2.32812C27.5625 1.54102 26.8965 0.875 26.1094 0.875H6.25C3.04102 0.875 0.4375 3.47852 0.4375 6.6875V26.0625C0.4375 29.2715 3.04102 31.875 6.25 31.875H26.1094C26.8965 31.875 27.5625 31.2695 27.5625 30.4219V29.4531C27.5625 29.0293 27.3203 28.6055 27.0176 28.3633C26.7148 27.3945 26.7148 24.7305 27.0176 23.8223C27.3203 23.5801 27.5625 23.1562 27.5625 22.6719ZM8.1875 8.98828C8.1875 8.80664 8.30859 8.625 8.55078 8.625H21.3867C21.5684 8.625 21.75 8.80664 21.75 8.98828V10.1992C21.75 10.4414 21.5684 10.5625 21.3867 10.5625H8.55078C8.30859 10.5625 8.1875 10.4414 8.1875 10.1992V8.98828ZM8.1875 12.8633C8.1875 12.6816 8.30859 12.5 8.55078 12.5H21.3867C21.5684 12.5 21.75 12.6816 21.75 12.8633V14.0742C21.75 14.3164 21.5684 14.4375 21.3867 14.4375H8.55078C8.30859 14.4375 8.1875 14.3164 8.1875 14.0742V12.8633ZM23.5059 28H6.25C5.16016 28 4.3125 27.1523 4.3125 26.0625C4.3125 25.0332 5.16016 24.125 6.25 24.125H23.5059C23.3848 25.2148 23.3848 26.9707 23.5059 28Z" fill="white"/>
</svg>

